<svg width="178" height="170" viewBox="0 0 178 170" fill="none" xmlns="http://www.w3.org/2000/svg">
<path fill-rule="evenodd" clip-rule="evenodd" d="M154.923 112.795C161.201 130.167 114.58 153.544 70.1414 155.513C25.7024 157.482 -1.33757 130.374 14.9296 108.643C31.1968 86.9127 148.646 95.4233 154.923 112.795Z" fill="#F2F2F2"/>
<g opacity="0.5">
<path fill-rule="evenodd" clip-rule="evenodd" d="M84.1758 33.1807C84.8584 33.5198 85.5056 33.9815 85.955 34.6187C86.1074 34.8347 86.5525 36.264 86.6908 36.2713C85.3096 36.3022 82.8641 36.2829 82.2026 34.7242C81.5851 33.2687 83.0654 32.6301 84.1758 33.1807Z" fill="white"/>
<path fill-rule="evenodd" clip-rule="evenodd" d="M90.9979 48.9902C90.9634 48.9209 90.9278 48.8525 90.8934 48.783C90.6316 48.7574 90.3696 48.734 90.1075 48.7174C90.4063 48.7944 90.7031 48.8882 90.9979 48.9902Z" fill="white"/>
<path fill-rule="evenodd" clip-rule="evenodd" d="M90.5165 45.2481C90.5291 45.2812 90.541 45.3146 90.5537 45.3477C90.657 45.1922 90.803 44.9924 90.9553 44.7955C90.9853 44.7232 91.0018 44.6826 90.9973 44.6944C90.8404 44.8812 90.6819 45.0713 90.5165 45.2481Z" fill="white"/>
<path fill-rule="evenodd" clip-rule="evenodd" d="M93.7583 50.2655C93.7693 50.2105 93.8087 50.1388 93.8848 50.0459C93.8199 50.0902 93.744 50.1489 93.6513 50.1853C93.6869 50.212 93.7223 50.2388 93.7583 50.2655Z" fill="white"/>
<path fill-rule="evenodd" clip-rule="evenodd" d="M100.418 59.7281C100.474 59.765 100.528 59.8033 100.582 59.8412C100.542 59.8009 100.502 59.7606 100.462 59.7205C100.447 59.7229 100.433 59.7253 100.418 59.7281Z" fill="white"/>
<path fill-rule="evenodd" clip-rule="evenodd" d="M99.2691 60.4216C99.2768 60.423 99.2833 60.424 99.2909 60.4253C99.3312 60.4075 99.3713 60.3892 99.4116 60.3717C99.3701 60.3898 99.3218 60.4061 99.2691 60.4216Z" fill="white"/>
<path fill-rule="evenodd" clip-rule="evenodd" d="M96.9707 61.1253C97.2509 61.3648 96.9935 61.1477 96.9707 61.1253V61.1253Z" fill="white"/>
<path fill-rule="evenodd" clip-rule="evenodd" d="M106.366 65.6289C106.606 65.5978 106.861 65.5983 107.096 65.5809C106.978 65.4527 106.859 65.3245 106.741 65.1962C106.571 65.2554 106.388 65.3385 106.199 65.436C106.268 65.4709 106.325 65.5412 106.366 65.6289Z" fill="white"/>
<path fill-rule="evenodd" clip-rule="evenodd" d="M103.685 66.7251C103.667 66.7561 103.651 66.7865 103.637 66.8154C103.717 66.7669 103.794 66.7112 103.872 66.6562C103.802 66.6779 103.739 66.7006 103.685 66.7251Z" fill="white"/>
<path fill-rule="evenodd" clip-rule="evenodd" d="M116.889 68.6689C116.674 68.8406 116.501 69.0866 116.402 69.322C116.566 69.1055 116.728 68.8878 116.889 68.6689Z" fill="white"/>
<path fill-rule="evenodd" clip-rule="evenodd" d="M86.9993 33.7225C86.9997 33.7254 86.8916 33.0483 86.8705 32.9406C86.8748 33.0062 86.8712 33.0868 86.8646 33.1757C86.9027 33.3099 86.9309 33.4492 86.9461 33.5946C86.9175 33.4607 86.8904 33.3269 86.8633 33.1929C86.8353 33.5532 86.7649 34.046 86.9586 34.3023C86.9686 34.0602 86.9699 33.8215 86.9461 33.5946C86.9753 33.732 87.0055 33.8694 87.0365 34.0068C87.0281 33.9119 87.0174 33.8173 86.9993 33.7225Z" fill="white"/>
<path fill-rule="evenodd" clip-rule="evenodd" d="M83.1064 40.2303C83.8896 39.6316 85.1049 40.0132 85.8934 40.3666C86.1972 40.5029 86.9737 40.9388 87.5495 41.4294C87.4734 41.0894 87.4056 40.7463 87.3463 40.4005C87.1027 38.9785 86.9349 37.5295 86.8542 36.089C86.826 35.5859 86.8846 35.0039 86.9147 34.4354C86.8832 34.4015 86.8619 34.3545 86.8529 34.291C86.8367 34.4196 86.8546 34.4241 86.792 34.3317C86.2093 33.4599 85.7199 32.4775 85.6527 31.3975C85.5958 30.4816 86.3481 28.7486 87.4144 29.9483C87.8914 30.4841 87.7675 34.2469 87.051 34.4775C87.2424 35.7243 87.4831 36.9691 87.7845 38.198C87.8297 38.19 87.8758 38.1893 87.9214 38.1955C87.9171 37.89 87.9166 37.5566 87.9291 37.4419C88.0365 36.4544 88.8611 34.4494 90.1738 34.8387C91.1825 35.1378 90.5642 36.3693 90.2209 36.9083C89.6683 37.7761 89.0432 38.1519 88.2516 38.6032C88.2358 38.7897 88.1156 38.8981 87.9737 38.9334C88.5037 40.918 89.2001 42.8537 90.1115 44.6821C90.2321 44.105 90.3803 43.3734 90.4718 43.2279C90.9185 42.5167 91.9073 41.6479 92.8192 42.0688C94.7343 42.9539 92.6556 45.4978 91.0251 45.7745C90.9573 45.8682 90.8856 45.9436 90.8094 45.9868C91.1261 46.5387 91.4647 47.0792 91.827 47.6057C92.3703 48.3976 92.9542 49.187 93.5664 49.9718C93.5853 49.3579 93.8275 47.9897 93.8963 47.8427C94.3143 46.95 95.5193 46.0314 96.4969 46.6656C97.5964 47.3807 96.5994 48.7318 95.9723 49.3433C95.7153 49.594 94.4439 50.5128 93.9955 50.517C95.4745 52.3676 97.1069 54.1865 98.7667 55.9397C98.6292 55.1549 98.4496 52.9934 98.4697 52.7536C98.5727 51.5153 99.3859 49.5349 100.988 50.0174C102.543 50.4849 101.855 52.5423 101.323 53.5231C101.001 54.1166 100.555 54.7198 100.017 55.1337C99.8038 55.2982 99.4459 55.3962 99.2642 55.5733C99.0822 55.7508 99.1596 55.9823 98.965 56.1495C99.862 57.0928 100.765 58.0165 101.656 58.9146C102.076 59.3385 102.503 59.7541 102.935 60.1646C103.172 60.0665 103.509 60.1955 103.491 60.5303C103.489 60.579 103.477 60.6209 103.462 60.6594C103.789 60.9642 104.119 61.2667 104.451 61.566C104.443 61.4788 104.445 61.3559 104.461 61.1861C104.137 61.6466 104.27 60.5761 104.235 60.3386C104.125 59.5772 103.914 58.8392 103.921 58.0624C103.931 56.9391 104.642 55.0562 106.138 55.7251C107.513 56.339 107.013 58.0038 106.494 59.0475C106.166 59.7079 105.716 60.2977 105.246 60.8623C105.038 61.1127 104.773 61.5832 104.607 61.7064C106.456 63.3652 108.368 64.9535 110.252 66.5737C110.278 66.4637 110.299 66.3546 110.317 66.2526C110.28 66.2938 110.231 66.3131 110.167 66.3093C109.943 65.1955 108.396 59.2525 111.608 60.3017C113.783 61.0143 112.248 65.3711 110.626 66.8952C111.61 67.7461 112.585 68.6079 113.538 69.4955C114.227 70.1376 114.896 70.8019 115.539 71.4882C115.206 70.5995 114.892 69.449 115.098 68.5334C115.398 67.201 116.802 65.9429 118.174 66.7011C120.756 68.1351 116.436 70.3612 115.923 71.9046C117.968 74.156 119.714 76.6572 120.881 79.5063C122.149 82.6047 123.327 86.768 122.676 90.2344C122.812 88.5026 122.13 86.2679 121.783 84.9374C121.241 82.8528 120.469 80.8245 119.453 78.9261C117.826 75.8857 115.676 73.3046 113.194 70.9613C112.282 71.2793 111.243 72.0344 110.725 72.2582C109.776 72.6684 107.952 73.2563 107.347 71.9643C106.752 70.6937 108.271 69.9832 109.212 69.6984C110.121 69.4236 110.941 69.4568 111.789 69.682C110.234 68.3013 108.634 66.9724 107.042 65.6343C105.614 66.8062 103.564 70.1572 101.793 68.4162C99.7598 66.4183 103.648 64.3877 105.304 64.5462C105.507 64.5655 105.704 64.6084 105.896 64.6669C104.207 63.2312 102.544 61.766 100.971 60.1977C100.054 60.3651 97.3763 64.3742 95.5587 62.6159C94.6507 61.7375 94.9616 60.3693 95.8393 59.5871C96.7205 58.8014 97.998 58.8027 99.0838 59.0674C99.5532 59.1812 99.9862 59.3984 100.39 59.6632C100.407 59.6641 100.424 59.6651 100.44 59.666C98.8924 58.1064 97.3353 56.5119 95.8356 54.863C95.8094 54.8714 95.7825 54.88 95.7557 54.8888C95.665 55.0001 95.5132 55.0408 95.3741 55.0162C94.1582 55.4333 92.5041 56.0507 91.2405 55.8078C90.3691 55.6403 89.5785 54.931 90.316 54.0577C90.9157 53.3475 92.5427 53.4495 93.3362 53.6177C93.886 53.7344 94.5051 54.1656 95.0992 54.467C95.1449 54.3748 95.2245 54.3156 95.3153 54.2872C93.8343 52.6302 92.4212 50.9159 91.1395 49.1271C89.8181 49.3321 88.0055 50.8186 86.8412 49.433C85.6269 47.9876 87.9105 47.144 88.9961 47.2813C89.3626 47.3276 89.7241 47.4316 90.073 47.569C89.1404 46.0963 88.4281 44.5221 87.9277 42.8688C87.9152 42.8751 87.9053 42.8818 87.8911 42.8881C87.9042 42.8809 87.9146 42.8733 87.9268 42.8661C87.8769 42.7007 87.829 42.5345 87.7834 42.3678C87.6986 42.3205 87.6193 42.2858 87.5814 42.2714C88.0746 42.6119 85.9938 42.7786 85.6041 42.8097C84.7426 42.8786 83.5885 42.9043 82.9564 42.1976C82.4256 41.604 82.4566 40.727 83.1064 40.2303Z" fill="white"/>
<path fill-rule="evenodd" clip-rule="evenodd" d="M122.768 90.2393C122.731 90.7416 122.64 91.2016 122.471 91.5809C122.598 91.149 122.695 90.7002 122.768 90.2393Z" fill="white"/>
</g>
<path opacity="0.2" fill-rule="evenodd" clip-rule="evenodd" d="M42.4279 7.86396C41.8563 7.43128 40.9688 7.70767 40.393 7.96353C40.1711 8.06221 39.604 8.37769 39.1834 8.73267C39.2391 8.48674 39.2887 8.23867 39.3321 7.98857C39.5106 6.96023 39.6336 5.91243 39.6931 4.87074C39.7086 4.59905 39.6887 4.29551 39.6686 3.98799C39.6618 3.88379 39.655 3.77914 39.6495 3.67511C39.6725 3.65052 39.6881 3.61659 39.6946 3.57062C39.697 3.58967 39.6984 3.60496 39.6995 3.61665C39.7012 3.63558 39.702 3.64507 39.7051 3.64584C39.7082 3.64662 39.7135 3.63858 39.7241 3.62246C39.7282 3.6162 39.7332 3.60873 39.7391 3.60008C40.1649 2.96942 40.5225 2.25887 40.572 1.47793C40.6139 0.815619 40.0653 -0.437213 39.2863 0.430659C38.9378 0.818255 39.0269 3.53907 39.5499 3.70555C39.4097 4.60721 39.2336 5.50737 39.013 6.39611C38.98 6.39036 38.9463 6.38986 38.9131 6.39438C38.9163 6.17345 38.9168 5.93236 38.9077 5.84948C38.8297 5.13541 38.2283 3.68591 37.2698 3.96788C36.5331 4.18459 36.9841 5.07485 37.2346 5.46448C37.6377 6.09178 38.094 6.36327 38.6718 6.6893C38.6833 6.82415 38.771 6.9025 38.8746 6.92793C38.4869 8.36324 37.9777 9.76317 37.3116 11.0856L37.2939 11.0016L37.2939 11.0016C37.2096 10.6003 37.1114 10.1325 37.049 10.0342C36.7232 9.52008 36.0015 8.89225 35.3356 9.19692C33.9369 9.83764 35.4538 11.6764 36.6441 11.8759C36.6936 11.9436 36.7459 11.9981 36.8016 12.0293C36.5701 12.4285 36.3227 12.8194 36.0579 13.2003C35.661 13.7731 35.2343 14.3441 34.7871 14.9118C34.7735 14.468 34.5971 13.4787 34.547 13.3725C34.2421 12.7271 33.3626 12.0633 32.6486 12.5223C31.8456 13.0397 32.573 14.0164 33.0306 14.4583C33.2182 14.6395 34.1462 15.3034 34.4736 15.3062C33.393 16.6449 32.2004 17.9608 30.9879 19.2292C31.0886 18.6616 31.2205 17.0986 31.206 16.9252C31.1312 16.0298 30.5381 14.5981 29.3681 14.9476C28.233 15.2862 28.7343 16.7736 29.1224 17.4826C29.3575 17.9117 29.6827 18.3477 30.075 18.6468C30.1457 18.7007 30.238 18.7447 30.3302 18.7886C30.4414 18.8416 30.5523 18.8944 30.6248 18.9644C30.6894 19.0268 30.7092 19.0984 30.7288 19.1695C30.7495 19.2445 30.7701 19.3189 30.843 19.3809C30.1878 20.0634 29.5279 20.7316 28.8775 21.3813C28.5706 21.688 28.2582 21.9887 27.9427 22.2857C27.7702 22.2148 27.5241 22.3082 27.5368 22.5504C27.5386 22.5855 27.5468 22.6159 27.5579 22.6437C27.3187 22.8642 27.0781 23.0831 26.8356 23.2996C26.8412 23.2366 26.8396 23.1477 26.8285 23.0249C27.0029 23.2709 26.9958 22.9125 26.9904 22.6393L26.9904 22.6393C26.9885 22.5427 26.9868 22.4569 26.9933 22.412C27.0191 22.2365 27.0524 22.0626 27.0856 21.8891L27.0856 21.889C27.1565 21.5182 27.2273 21.1486 27.2239 20.7659C27.2167 19.9537 26.6984 18.5925 25.606 19.0767C24.6014 19.5211 24.9662 20.7247 25.3447 21.4792C25.5843 21.9567 25.9122 22.383 26.255 22.791C26.3162 22.8639 26.384 22.9625 26.4511 23.0602C26.5508 23.2052 26.6491 23.348 26.7217 23.4012C25.7888 24.2301 24.834 25.0347 23.8791 25.8393L23.8787 25.8397C23.4511 26.2 23.0235 26.5603 22.5979 26.9228C22.5794 26.8433 22.5641 26.7644 22.551 26.6907C22.5776 26.7204 22.6138 26.7343 22.6603 26.7316C22.6727 26.6706 22.6906 26.5897 22.7122 26.4924L22.7122 26.4923C22.9757 25.3042 23.7781 21.6857 21.6101 22.3881C20.0217 22.9041 21.1411 26.054 22.325 27.1554C21.6059 27.7711 20.8936 28.3946 20.1979 29.0367C19.6945 29.5013 19.206 29.9819 18.7361 30.4784C18.9795 29.8357 19.2089 29.0037 19.0589 28.3417C18.8406 27.3783 17.8156 26.4691 16.8142 27.0179C15.5658 27.7049 16.5255 28.6418 17.4254 29.5205C17.8849 29.9691 18.3289 30.4025 18.4553 30.7797C16.9614 32.4084 15.6858 34.2176 14.833 36.2783C13.9055 38.5192 13.0441 41.53 13.5184 44.0364C13.4311 42.9343 13.8074 41.5502 14.0716 40.5782L14.0716 40.5781C14.1076 40.4457 14.1415 40.3211 14.1719 40.2058C14.5689 38.6982 15.1327 37.2313 15.8753 35.8582C17.0648 33.659 18.6355 31.7919 20.4486 30.0965C20.8612 30.2389 21.3093 30.5026 21.6804 30.7211L21.6805 30.7211C21.9081 30.855 22.1067 30.972 22.2504 31.0334C22.9437 31.3297 24.2748 31.7541 24.7171 30.8196C25.1519 29.9007 24.0435 29.3874 23.3565 29.1819C22.6926 28.9835 22.094 29.0078 21.4745 29.171C22.4342 28.3272 23.4173 27.5101 24.4003 26.6932L24.4031 26.6908C24.5829 26.5414 24.7627 26.3919 24.9423 26.2423C25.192 26.4453 25.4677 26.7386 25.7604 27.0501C26.6894 28.0386 27.79 29.2098 28.774 28.252C30.2589 26.8066 27.421 25.3396 26.2116 25.4549C26.0631 25.4689 25.9195 25.5001 25.7794 25.5424C27.0133 24.5036 28.228 23.4435 29.3769 22.3089C29.583 22.3461 29.9109 22.6466 30.3048 23.0076C31.1901 23.819 32.4088 24.9359 33.3277 24.0555C33.991 23.42 33.7645 22.4308 33.1239 21.8655C32.4809 21.2977 31.5481 21.2991 30.7552 21.4909C30.4125 21.5733 30.0962 21.7306 29.8014 21.9222L29.7648 21.9242C30.8953 20.7959 32.0328 19.6424 33.1285 18.4495L33.1868 18.4682C33.2529 18.5486 33.3638 18.5779 33.4653 18.5601L33.6368 18.6185C34.504 18.915 35.6186 19.296 36.4831 19.131C37.1194 19.0095 37.697 18.4963 37.1588 17.8651C36.7212 17.3518 35.5332 17.4262 34.9538 17.5481C34.6711 17.6077 34.3632 17.78 34.0543 17.953C33.9245 18.0256 33.7946 18.0984 33.6662 18.1629C33.6329 18.0963 33.5748 18.0535 33.5085 18.033C34.5905 16.8342 35.6229 15.5941 36.5594 14.3001C36.8426 14.3435 37.1567 14.4667 37.4806 14.5938C38.2601 14.8996 39.0967 15.2279 39.6976 14.5198C40.5848 13.4742 38.9177 12.865 38.125 12.9647C37.8574 12.9983 37.5934 13.0737 37.3386 13.1731C38.0201 12.1079 38.5408 10.9693 38.9067 9.77364C38.9158 9.77819 38.9231 9.78304 38.9334 9.78752C38.928 9.78458 38.9231 9.7815 38.9183 9.77843L38.918 9.77822C38.9145 9.776 38.911 9.7738 38.9074 9.77167C38.9439 9.65204 38.9789 9.53188 39.0123 9.41129C39.0742 9.37708 39.1321 9.3519 39.1598 9.34153C38.7996 9.58793 40.3188 9.70764 40.6033 9.73005C41.2323 9.77953 42.075 9.79771 42.5367 9.28647C42.9245 8.85703 42.9022 8.22289 42.4279 7.86396ZM13.4275 43.9375C13.4553 44.2723 13.5379 44.5777 13.7004 44.828C13.5811 44.5419 13.4916 44.244 13.4275 43.9375Z" fill="#C1DEE2"/>
<g opacity="0.5">
<path fill-rule="evenodd" clip-rule="evenodd" d="M41.141 38.5174C42.0903 37.1639 43.8518 33.7265 45.1878 33.2428C46.0484 32.9313 45.7975 36.1537 45.8081 36.7681C45.8495 39.1453 45.6181 41.5073 45.3323 43.8645C44.8174 48.1157 43.1338 51.9017 40.8246 55.5199C39.6363 57.3817 38.2426 59.266 36.3122 60.4277C35.4236 60.9627 34.3545 61.0522 33.477 61.5132C32.455 62.0497 33.0116 61.616 32.551 62.6809C31.9114 64.1595 31.7068 66.067 31.4109 67.6447C30.0521 74.887 26.7625 113.172 27.3328 120.539C27.3834 121.192 26.4729 121.348 26.4275 120.551C26.1859 116.324 28.2764 87.0549 29.331 77.4829C30.3857 67.911 31.453 59.4546 32.5232 56.143C33.8215 52.1254 36.1662 47.2938 38.1181 43.5471C39.0247 41.8065 40.0129 40.1259 41.141 38.5174Z" fill="#69A1AC"/>
<path fill-rule="evenodd" clip-rule="evenodd" d="M48.1878 85.4637C50.6579 83.6503 53.3315 87.0728 51.0964 88.8865C49.8607 89.889 48.569 89.5323 47.8417 88.6969C47.3696 89.2724 46.9277 89.8741 46.5032 90.3823C45.2096 91.931 43.987 93.5166 42.8185 95.1392C40.3912 98.5101 38.311 102.071 36.136 105.568C33.9896 109.018 31.8604 112.486 29.9149 116.024C28.2668 119.022 26.0701 122.548 25.5059 125.834C26.362 118.865 29.6106 112.166 33.4791 106.022C37.3162 99.9285 41.7196 93.2737 47.6608 88.4648C47.0561 87.5756 47.0394 86.3063 48.1878 85.4637Z" fill="#C1DEE2"/>
<path fill-rule="evenodd" clip-rule="evenodd" d="M1.31693 68.4669C2.69917 68.7372 4.95773 71.8641 6.09711 73.0554C7.45119 74.4712 8.67967 75.9802 9.83766 77.5612C12.3306 80.9644 14.56 84.5826 16.4559 88.3558C19.5465 94.5069 22.0225 100.821 23.8195 107.519C24.9195 111.62 25.6317 115.869 26.0538 120.089C26.1335 120.885 26.9679 127.021 25.7655 127.186C24.6842 127.335 25.0182 122.527 24.966 121.873C24.3763 114.495 22.6097 107.315 20.1524 100.361C19.6171 98.8457 19.1199 96.9901 18.2639 95.6267C17.6475 94.6447 18.2595 94.9872 17.1762 94.6155C16.246 94.2962 15.1862 94.3742 14.2337 93.9834C12.1644 93.1348 10.5076 91.4874 9.0552 89.8304C6.23275 86.6101 3.9961 83.1262 2.83022 78.9998C2.18348 76.7119 1.58915 74.4106 1.25934 72.0519C1.17402 71.4423 0.426636 68.2928 1.31693 68.4669Z" fill="#69A1AC"/>
<path fill-rule="evenodd" clip-rule="evenodd" d="M6.77194 16.442C11.9786 25.4716 16.2571 35.3903 19.0199 45.4365C20.6937 51.5234 21.8643 57.7695 23.0274 63.9704C24.8282 73.5717 26.5316 83.1723 27.0161 92.9442C27.5035 102.773 28.4675 114.109 25.2492 123.575C26.8567 113.964 25.3262 103.734 25.0552 94.0634C24.9257 89.4468 24.5504 84.8754 24.0582 80.2857C23.5805 75.8335 22.8 71.4025 22.0732 66.9853C21.7192 64.8341 21.3474 62.6861 20.9689 60.5392C20.8559 59.8987 20.8081 57.9981 20.4018 57.5605C19.9929 57.1201 17.9064 56.9405 17.2514 56.6173C15.9324 55.9664 14.6916 55.0419 13.5935 54.0649C11.4885 52.1922 9.65723 49.7453 8.21184 47.3331C4.86759 41.7518 3.53055 34.9406 3.59813 28.4767C3.61112 27.2217 5.62943 13.7074 4.81884 13.5213C4.86765 13.4642 4.91381 13.4051 4.95734 13.3438C5.57102 14.3712 6.17323 15.4057 6.77194 16.442Z" fill="#89C5CC"/>
<path fill-rule="evenodd" clip-rule="evenodd" d="M62.9686 49.008C63.0489 48.8921 63.5718 48.0862 63.3085 48.1377C63.8446 48.0329 62.5711 49.0265 63.9069 48.4168C63.2726 49.0158 63.6387 49.7939 63.6471 50.6C63.6609 51.9088 63.442 53.207 63.1954 54.4877C62.8059 56.5122 62.2256 58.4806 61.3834 60.3636C59.5476 64.4671 56.4304 68.4175 52.7297 70.983C50.9028 72.2496 49.1123 72.6809 47.0287 73.264C45.7126 73.6324 45.6082 74.3132 44.9096 75.5904C43.4552 78.2504 42.0267 80.9008 40.7441 83.6505C39.2125 86.934 37.7257 90.2211 36.3232 93.5623C31.5985 104.817 27.753 116.477 25.7335 128.545C25.6841 121.433 27.3291 114.11 29.4042 107.331C30.9158 102.393 32.8835 97.6326 34.9824 92.9204C35.491 91.7788 36.2617 90.3103 36.4777 89.0499C36.6289 88.1668 36.1665 87.3175 35.9548 86.3873C35.1295 82.7647 35.1886 78.7062 35.9133 75.0642C36.7124 71.0482 39.0233 69.1843 42.9324 68.6155C44.3621 68.4074 46.1792 68.4836 47.4901 67.8741C48.9183 67.2103 49.5075 65.0283 50.3196 63.6277C52.501 59.8653 55.0928 56.257 58.0689 53.0869C58.8929 52.209 59.7791 51.3992 60.7193 50.6485C61.3121 50.1749 62.5645 49.5914 62.9686 49.008Z" fill="#89C5CC"/>
<path fill-rule="evenodd" clip-rule="evenodd" d="M18.2864 123.985C18.0439 122.34 19.3182 120.864 20.9803 120.864H31.1616C32.8237 120.864 34.098 122.34 33.8555 123.985L33.4191 126.944C32.8817 130.588 29.7546 133.288 26.0709 133.288C22.3873 133.288 19.2602 130.588 18.7228 126.944L18.2864 123.985Z" fill="#C1DEE2"/>
</g>
<g opacity="0.5">
<path fill-rule="evenodd" clip-rule="evenodd" d="M127.42 110.005C127.42 119.112 134.803 126.494 143.909 126.494C153.016 126.494 160.399 119.112 160.399 110.005" fill="#89C5CC"/>
<path fill-rule="evenodd" clip-rule="evenodd" d="M125.121 62.0663C128.205 61.9063 132.019 63.7064 132.348 67.0585C132.587 69.4942 132.513 71.9228 132.883 74.3548C133.179 76.2984 133.804 78.1643 134.657 79.9348C135.478 81.6373 137.179 83.0865 137.622 84.9053C137.904 86.0642 137.746 87.6945 137.357 88.8281C136.884 90.2063 137.135 90.0974 138.078 91.2539C139.925 93.5202 141.589 95.8443 142.765 98.5511C144.459 102.45 145.57 107.007 144.941 111.275C144.861 111.817 144.766 113.762 144.02 113.898C143.186 114.049 143.576 112.937 143.621 112.578C143.904 110.285 144.156 108.281 143.814 105.953C142.494 96.9696 136.049 91.0507 131.853 83.4261C131.622 83.0329 131.135 82.0967 130.797 81.479C130.262 80.5038 129.725 78.6482 129.001 77.9251C127.638 76.5628 128.891 79.3015 129.157 79.8243C129.493 80.4856 129.862 81.1885 130.206 81.768C131.78 84.4541 133.538 87.3862 135.164 90.1552C128.131 91.7575 123.179 83.3029 121.291 77.7445C119.736 73.1651 117.876 62.4582 125.121 62.0663Z" fill="#69A1AC"/>
<path fill-rule="evenodd" clip-rule="evenodd" d="M166.455 53.5616C161.3 53.9706 157.99 57.3723 156.45 62.1303C155.619 64.6944 155.524 67.3285 155.063 69.9636C154.369 73.928 152.875 76.9323 149.956 79.7568C149.052 80.6315 148.386 81.5296 147.912 82.4905C146.972 83.4498 146.154 84.5355 145.553 85.8628C144.785 87.5578 144.567 89.5916 145.454 91.2816C145.693 91.7358 146.287 92.6478 146.904 93.0622C144.596 97.9774 143.327 103.361 143.47 108.737C143.556 111.982 143.715 115.229 143.9 118.471C143.949 119.341 144.233 120.778 144.659 119.319C145.048 117.984 144.56 115.888 144.514 114.493C144.294 107.698 144.106 101.52 146.903 95.1716C147.197 94.5063 147.508 93.8462 147.832 93.1915C147.851 93.1805 147.868 93.1672 147.886 93.1542C147.898 93.1637 147.91 93.174 147.922 93.1833C147.943 93.1464 147.971 93.1025 148.004 93.0535C148.097 92.9576 148.178 92.8365 148.255 92.7013C148.503 92.3575 148.784 91.9536 148.786 91.7324C148.786 91.7307 148.785 91.728 148.785 91.7263C150.516 88.8998 152.499 86.229 154.525 83.6105C154.51 83.6295 156.722 80.617 156.38 82.283C156.215 83.0859 154.588 84.6148 153.931 85.4651C152.477 87.357 150.769 89.7542 149.35 92.0722C149.16 92.182 148.89 92.7207 148.695 93.1219C148.587 93.3252 148.487 93.5302 148.388 93.7087C153.415 95.3698 157.326 92.0239 159.993 88.1323C159.996 88.1278 159.999 88.123 160.002 88.1184C160.813 87.0431 161.645 85.9753 162.683 85.1253C164.416 83.7069 166.272 83.4567 168.314 82.7586C173.886 80.8551 176.254 73.635 177.006 68.2776C177.855 62.2336 173.704 52.9656 166.455 53.5616Z" fill="#89C5CC"/>
<path fill-rule="evenodd" clip-rule="evenodd" d="M156.272 36.6368C150.981 42.1436 148.425 49.7816 146.401 56.9621C144.14 64.982 142.647 73.1257 142.59 81.4639C142.552 86.9422 142.403 92.4546 142.723 97.9266C142.836 99.8699 143.03 101.817 143.338 103.739C143.363 103.897 144.053 108.19 144.712 107.189C145.087 106.621 144.006 102.736 143.924 102.09C143.464 98.4459 143.357 94.7754 143.38 91.1054C143.417 85.0629 143.238 79.0513 143.851 73.0311C143.942 72.1322 144.014 71.1881 144.228 70.3088C144.455 69.3739 144.166 69.782 144.904 69.4119C145.622 69.0521 146.508 69.1035 147.253 68.6521C150.206 66.8616 151.716 62.2622 152.892 59.2444C154.237 55.7934 155.054 52.1134 155.707 48.4817C156.186 45.8134 156.529 43.1613 156.723 40.4587C156.784 39.6069 156.787 38.7162 156.955 37.8786C157 37.6527 157.226 37.2531 157.218 37.053C157.2 36.6295 156.945 36.3805 156.924 36.0247C156.702 36.224 156.485 36.4282 156.272 36.6368Z" fill="#89C5CC"/>
<path fill-rule="evenodd" clip-rule="evenodd" d="M155.209 95.568C159.29 95.2671 163.848 98.5595 165.816 101.986C167.403 104.748 167.136 108.376 166.156 111.311C165.499 113.275 164.067 116.077 161.678 116.104C158.689 116.138 158.545 112.444 158.487 110.285C158.41 107.414 158.047 104.912 155.785 102.955C155.506 102.714 155.213 102.488 154.919 102.262C154.659 102.061 154.399 101.86 154.149 101.649C154.109 101.615 154.068 101.581 154.028 101.547C153.228 100.875 152.388 100.169 152.286 99.0605C152.137 97.4544 153.044 97.1653 154.428 97.4637C154.473 97.4733 154.594 97.5193 154.759 97.5818C155.466 97.8498 156.975 98.4216 156.689 97.738C156.582 97.4805 156.189 97.2764 155.694 97.1235C154.412 96.9841 152.884 96.8224 152.444 96.919C147.702 97.9595 145.855 104.529 145.365 108.703C145.312 109.153 145.269 109.605 145.232 110.058H144.36C144.421 108.965 144.501 107.873 144.683 106.792C145.382 102.658 147.568 96.5859 152.361 95.9149C152.538 95.8899 153.189 95.8857 153.976 95.9319C154.35 95.7232 154.768 95.597 155.209 95.568Z" fill="#69A1AC"/>
</g>
<path d="M81.3213 111.929L80.7559 112.826L105.104 128.165L105.67 127.267L81.3213 111.929Z" fill="#10191B"/>
<path d="M129.879 111.779L105.076 127.392L105.641 128.289L130.445 112.677L129.879 111.779Z" fill="#10191B"/>
<path d="M129.739 111.906H81.5996V112.967H129.739V111.906Z" fill="#10191B"/>
<path d="M72.3168 129.942C71.919 129.942 71.6537 129.809 71.3885 129.676C70.4602 129.146 70.195 127.952 70.7254 127.024L73.1125 123.046C73.643 122.117 74.8365 121.852 75.7648 122.383C76.6931 122.913 76.9583 124.107 76.4279 125.035L74.0408 129.013C73.5103 129.676 72.8473 129.942 72.3168 129.942Z" fill="#10191B"/>
<path d="M138.36 129.942C138.758 129.942 139.023 129.809 139.288 129.676C140.217 129.146 140.482 127.952 139.951 127.024L137.564 123.046C137.034 122.117 135.84 121.852 134.912 122.383C133.984 122.913 133.718 124.107 134.249 125.035L136.636 129.013C137.034 129.676 137.697 129.942 138.36 129.942Z" fill="#10191B"/>
<path d="M136.367 126.494C135.836 126.494 135.306 126.229 135.041 125.698L104.407 75.968C104.009 75.1723 104.141 74.244 104.937 73.8462C105.733 73.4483 106.661 73.5809 107.059 74.3766L137.693 124.107C138.091 124.903 137.958 125.831 137.162 126.229C136.897 126.494 136.632 126.494 136.367 126.494Z" fill="#242A31"/>
<path d="M74.6938 125.698C74.4285 125.698 74.1633 125.566 73.8981 125.433C73.1024 125.035 72.9698 123.974 73.3676 123.311L92.7293 91.8815C93.1272 91.0858 94.1881 90.9532 94.8512 91.351C95.6469 91.7489 95.7795 92.8098 95.3816 93.4728L76.0199 124.902C75.7547 125.433 75.2242 125.698 74.6938 125.698Z" fill="#242A31"/>
<path d="M125.095 109.123C124.299 109.123 123.503 108.725 122.973 107.929L103.611 76.4995C102.948 75.306 103.213 73.8472 104.407 73.0515C105.6 72.3884 107.059 72.6537 107.855 73.8472L127.216 105.277C127.88 106.47 127.614 107.929 126.421 108.725C125.89 108.99 125.492 109.123 125.095 109.123Z" fill="#A4A9C2"/>
<path d="M117.269 51.0375L110.771 40.4283C110.373 39.7652 109.445 39.5 108.649 39.8979C107.986 40.2957 107.721 41.224 108.119 42.0197L113.688 51.0375H117.269Z" fill="#10191B"/>
<path d="M112.492 55.4125L105.994 44.8033C105.596 44.1402 104.667 43.875 103.872 44.2729C103.209 44.6707 102.943 45.599 103.341 46.3947L108.911 55.4125H112.492Z" fill="#10191B"/>
<path d="M85.5768 109.122C85.179 109.122 84.6485 108.989 84.2507 108.724C83.0571 108.061 82.6593 106.47 83.455 105.276L102.817 73.8464C103.48 72.6528 105.071 72.255 106.265 73.0507C107.458 73.7138 107.856 75.3051 107.06 76.4987L87.6987 107.928C87.1682 108.724 86.3725 109.122 85.5768 109.122Z" fill="#A4A9C2"/>
<path d="M105.328 142.938C104.532 142.938 103.736 142.275 103.736 141.346V97.5835C103.736 96.7879 104.399 95.9922 105.328 95.9922C106.123 95.9922 106.919 96.6552 106.919 97.5835V141.346C106.786 142.142 106.123 142.938 105.328 142.938Z" fill="#242A31"/>
<path d="M105.334 120.924C104.008 120.924 102.814 119.863 102.814 118.405V74.6417C102.814 73.3156 103.875 72.1221 105.334 72.1221C106.66 72.1221 107.854 73.183 107.854 74.6417V118.405C107.721 119.731 106.66 120.924 105.334 120.924Z" fill="#C1C8DC"/>
<path d="M113.027 73.7139V75.9683L105.998 79.9468V77.6923L113.027 73.7139Z" fill="#242A31"/>
<path d="M105.997 77.6921V79.9466L97.7754 75.1724V72.918L105.997 77.6921Z" fill="#10191B"/>
<path d="M113.026 73.7126L105.997 77.691L97.7754 72.9169L104.671 68.9385L113.026 73.7126Z" fill="#37404A"/>
<path d="M96.5957 67.0839L102.431 63.7686H105.879L100.044 67.2165L96.5957 67.0839Z" fill="#23282F"/>
<path d="M105.611 74.113L111.446 70.665V73.7152L105.611 77.1631V74.113Z" fill="#2A3139"/>
<path d="M100.033 67.2165L105.868 63.7686L111.438 70.6645L105.603 74.1125L100.033 67.2165Z" fill="#373F49"/>
<path d="M100.044 67.2156L105.614 74.1116V77.1617L100.044 73.979L96.5957 67.083L100.044 67.2156Z" fill="#1E2228"/>
<path d="M106.661 63.2378L72.0486 87.6388C70.4572 88.6997 68.2028 88.3019 66.6114 86.4453C64.8874 84.4561 64.8874 81.8038 66.3462 80.345C66.4788 80.2124 66.6114 80.0798 66.744 80.0798L101.356 55.6787C101.224 55.8113 101.091 55.8113 100.959 55.944C99.3672 57.4027 99.4998 60.1876 101.224 62.0442C102.815 63.9008 105.07 64.4313 106.661 63.2378Z" fill="#242A31"/>
<path d="M106.657 63.2378L72.0447 87.6388C70.4533 88.6997 68.1989 88.3019 66.6075 86.4453C64.8835 84.4561 64.8835 81.8038 66.3423 80.345C66.4749 80.2124 66.6075 80.0798 66.7401 80.0798L101.352 55.6787C101.22 55.8113 101.087 55.8113 100.955 55.944C99.3633 57.4027 99.4959 60.1876 101.22 62.0442C102.811 63.9008 105.066 64.4313 106.657 63.2378Z" fill="#242A31"/>
<path d="M106.798 56.8733C108.522 58.8626 108.522 61.5148 107.064 62.9736C105.472 64.4323 102.953 64.0345 101.229 62.1779C99.5046 60.1887 99.5046 57.5364 100.963 56.0776C102.555 54.4863 105.074 54.8841 106.798 56.8733Z" fill="#242A31"/>
<path d="M68.6005 69.0713L73.5072 75.9673C73.905 76.4977 73.3746 77.5586 72.3137 78.4869C71.1202 79.5478 69.6614 79.9457 68.9983 79.5478C68.8657 79.5478 68.8657 79.4152 68.8657 79.4152L63.959 72.5193L64.0916 72.6519C64.7546 73.0497 66.2134 72.6519 67.4069 71.591C68.6005 70.53 68.9983 69.6017 68.6005 69.0713Z" fill="#10191B"/>
<path d="M68.5996 69.0713L73.5063 75.9673V76.0999L68.5996 69.0713C68.7322 69.0713 68.7322 69.0713 68.5996 69.0713Z" fill="#10191B"/>
<path d="M68.7285 69.0713L73.6353 75.9673C73.7679 76.0999 73.7679 76.3651 73.6353 76.6303L68.7285 69.7344C68.8611 69.6017 68.8611 69.3365 68.7285 69.0713Z" fill="#10191B"/>
<path d="M68.7345 69.8672L73.6413 76.7632C73.5087 77.2936 73.1108 77.824 72.4478 78.3545L67.541 71.4586C68.2041 70.9281 68.6019 70.265 68.7345 69.8672Z" fill="#10191B"/>
<path d="M67.5396 71.459L72.4464 78.3549C72.1811 78.6201 71.7833 78.8854 71.518 79.018L66.6113 72.1221C66.8766 71.9894 67.1418 71.7242 67.5396 71.459Z" fill="#10191B"/>
<path d="M66.4787 72.1211L71.3854 79.017C70.4571 79.5475 69.5288 79.6801 68.9983 79.2823C68.8657 79.2823 68.8657 79.1496 68.8657 79.1496L63.959 72.2537L64.0916 72.3863C64.622 72.7841 65.5504 72.6516 66.4787 72.1211Z" fill="#10191B"/>
<path d="M68.4674 68.8056C69.1305 69.2035 68.7326 70.397 67.5391 71.4579C66.3455 72.5188 64.8868 72.9167 64.2237 72.5188C63.5606 72.121 63.9585 70.9274 65.152 69.8665C66.3456 68.8056 67.8043 68.4078 68.4674 68.8056Z" fill="#37404A"/>
<path d="M64.8877 72.3865C64.6225 72.3865 64.4898 72.3865 64.3572 72.2538C64.2246 72.1212 64.2246 72.1212 64.2246 71.856C64.2246 71.4582 64.4898 70.7951 65.4181 69.9994C66.2138 69.3363 67.1422 68.9385 67.9378 68.9385C68.2031 68.9385 68.3357 68.9385 68.4683 69.0711C68.6009 69.2037 68.6009 69.2037 68.6009 69.469C68.6009 69.9994 68.203 70.6625 67.4073 71.3256C66.479 71.9886 65.5508 72.3865 64.8877 72.3865Z" fill="#242A31"/>
<path d="M121.123 56.0769L86.5111 80.478C84.2566 82.0694 80.9413 81.4063 78.8194 78.8866C76.4324 76.1017 76.2998 72.2559 78.4216 70.2667C78.5542 70.134 78.8194 70.0014 78.952 69.8688L113.564 45.4678C113.432 45.6004 113.167 45.733 113.034 45.8656C110.912 47.9874 111.045 51.8333 113.432 54.4855C115.554 56.8726 118.869 57.5357 121.123 56.0769Z" fill="#A4A9C2"/>
<path d="M121.127 56.0769L86.515 80.478C84.2606 82.0694 80.9452 81.4063 78.8233 78.8866C76.4363 76.1017 76.3037 72.2559 78.4255 70.2667C78.5581 70.134 78.8233 70.0014 78.956 69.8688L113.568 45.4678C113.436 45.6004 113.171 45.733 113.038 45.8656C110.916 47.9874 111.049 51.8333 113.436 54.4855C115.558 56.8726 118.873 57.5357 121.127 56.0769Z" fill="#A4A9C2"/>
<path d="M121.257 46.927C123.644 49.7119 123.777 53.5578 121.655 55.547C119.533 57.6688 115.82 57.1383 113.433 54.3534C111.046 51.5685 110.913 47.7227 113.035 45.7335C115.157 43.7443 118.87 44.1421 121.257 46.927Z" fill="#A4A9C2"/>
<path d="M108.785 64.5634L99.8996 71.0615C97.6452 72.6529 94.5951 71.7246 92.3406 69.2049C92.0754 68.9397 91.8102 68.5418 91.5449 68.144L102.154 60.585C102.419 61.1154 102.817 61.6459 103.215 62.1764C103.878 62.8394 104.541 63.5025 105.337 63.9003C105.469 64.0329 105.735 64.033 105.867 64.1656C106.132 64.2982 106.398 64.4308 106.663 64.4308C106.796 64.4308 107.061 64.5634 107.193 64.5634C107.724 64.696 108.254 64.696 108.785 64.696C108.652 64.5634 108.652 64.5634 108.785 64.5634Z" fill="#10191B"/>
<path d="M109.183 64.5634L100.431 70.7963C98.1763 72.3877 94.8609 71.7246 92.7391 69.2049C92.4738 68.9397 92.2086 68.5418 91.9434 68.144L102.553 60.585C102.818 61.1154 103.216 61.6459 103.613 62.1764C104.277 62.8394 104.94 63.5025 105.735 63.9003C105.868 64.0329 106.133 64.033 106.266 64.1656C106.531 64.2982 106.796 64.4308 107.061 64.4308C107.194 64.4308 107.459 64.5634 107.592 64.5634C108.122 64.696 108.653 64.696 109.183 64.696C109.051 64.5634 109.051 64.5634 109.183 64.5634Z" fill="#242A31"/>
<path d="M145.654 40.9568L111.042 65.3578C108.39 67.2144 104.279 66.4187 101.626 63.3686C98.7088 60.0532 98.5762 55.2791 101.228 52.6268C101.494 52.4942 101.626 52.229 101.892 52.0964L136.504 27.6953C136.239 27.8279 136.106 28.0931 135.841 28.2258C133.189 30.7454 133.321 35.5196 136.239 38.9675C138.758 42.1503 142.869 42.946 145.654 40.9568Z" fill="#C1C8DC"/>
<path d="M145.658 40.9568L111.046 65.3578C108.394 67.2144 104.283 66.4187 101.63 63.3686C98.7127 60.0532 98.5801 55.2791 101.232 52.6268C101.498 52.4942 101.63 52.229 101.895 52.0964L136.508 27.6953C136.243 27.8279 136.11 28.0931 135.845 28.2258C133.192 30.7454 133.325 35.5196 136.243 38.9675C138.762 42.1503 142.873 42.946 145.658 40.9568Z" fill="#D8DFE9"/>
<path d="M145.784 29.8173C148.701 33.1326 148.834 37.9067 146.182 40.559C143.529 43.0787 139.02 42.4156 136.103 39.1003C133.185 35.7849 133.053 31.0108 135.705 28.3585C138.357 25.7062 142.866 26.3693 145.784 29.8173Z" fill="#C1C8DC"/>
<path d="M152.414 38.0405L147.375 41.6211C144.059 43.8756 139.152 42.9472 135.97 39.234C132.389 35.123 132.256 29.4206 135.439 26.2378C135.704 25.9726 135.97 25.84 136.235 25.5747L141.274 21.9941C141.009 22.1268 140.744 22.392 140.479 22.6572C137.296 25.7073 137.428 31.5424 141.009 35.6535C144.192 39.4993 149.099 40.4276 152.414 38.0405Z" fill="#242A31"/>
<path d="M152.414 38.0405L147.375 41.6211C144.059 43.8756 139.152 42.9472 135.97 39.234C132.389 35.123 132.256 29.4206 135.439 26.2378C135.704 25.9726 135.97 25.84 136.235 25.5747L141.274 21.9941C141.009 22.1268 140.744 22.392 140.479 22.6572C137.296 25.7073 137.428 31.5424 141.009 35.6535C144.192 39.4993 149.099 40.4276 152.414 38.0405Z" fill="#10191B"/>
<path d="M152.679 24.5153C156.259 28.6263 156.392 34.3287 153.209 37.5115C150.027 40.5616 144.457 39.7659 141.009 35.7875C137.428 31.6764 137.296 25.974 140.478 22.7913C143.661 19.6085 149.231 20.4042 152.679 24.5153Z" fill="#37404A"/>
<path d="M152.417 36.7153C151.356 37.7762 149.897 38.3067 148.305 38.3067C147.642 38.3067 146.979 38.1741 146.184 38.0415C145.123 37.7762 144.062 37.2458 143.133 36.4501C142.603 36.0522 142.073 35.5218 141.675 34.9914C138.492 31.4108 138.227 26.2388 141.012 23.5865C142.073 22.5256 143.531 21.9951 145.123 21.9951C146.316 21.9951 147.642 22.2604 148.836 22.9234C149.897 23.4539 150.958 24.2496 151.753 25.3105C155.069 28.8911 155.334 33.9304 152.417 36.7153Z" fill="#10191B"/>
<path d="M150.424 36.3183C149.363 37.3792 147.904 37.9096 146.313 37.9096C145.252 37.6444 144.191 37.114 143.262 36.3183C142.732 35.9204 142.201 35.39 141.804 34.8595C138.621 31.2789 138.356 26.107 141.141 23.4547C142.201 22.3938 143.66 21.8633 145.252 21.8633C145.782 21.9959 146.313 22.2611 146.843 22.5264C147.904 23.0568 148.965 23.8525 149.761 24.9134C152.943 28.494 153.208 33.666 150.424 36.3183Z" fill="#32226B"/>
<path d="M111.03 43.8769L102.012 50.375C101.216 50.9054 100.023 50.7728 99.0946 49.7119C98.1663 48.651 98.1663 47.1922 98.962 46.5292L99.0946 46.3965L108.112 39.8984C107.98 39.8984 107.98 40.0311 107.98 40.0311C107.184 40.8267 107.184 42.2855 108.112 43.2138C109.041 44.2747 110.234 44.5399 111.03 43.8769Z" fill="#10191B"/>
<path d="M111.026 43.8759L102.008 50.374C101.213 50.9045 100.019 50.7718 99.0907 49.7109C98.1624 48.65 98.1624 47.1913 98.9581 46.5282L99.0907 46.3956L108.108 39.8975C107.976 39.8975 107.976 40.0301 107.976 40.0301C107.18 40.8258 107.18 42.2845 108.108 43.2128C109.037 44.2737 110.23 44.539 111.026 43.8759Z" fill="#10191B"/>
<path d="M111.164 40.5617C112.093 41.6226 112.093 43.0814 111.297 43.7444C110.501 44.5401 109.175 44.2749 108.247 43.3466C107.319 42.2857 107.319 40.8269 108.114 40.1639C108.91 39.3682 110.236 39.5008 111.164 40.5617Z" fill="#242A31"/>
<path d="M115.551 41.4888L106.534 47.9869C105.473 48.65 104.014 48.3847 102.953 47.1912C101.892 45.9977 101.759 44.1411 102.82 43.2128C102.953 43.0801 102.953 43.0801 103.086 43.0801L112.103 36.582C111.971 36.582 111.971 36.7147 111.838 36.7147C110.91 37.643 110.91 39.4996 111.971 40.6931C113.032 42.0192 114.49 42.2845 115.551 41.4888Z" fill="#242A31"/>
<path d="M115.555 41.4888L106.537 47.9869C105.477 48.65 104.018 48.3847 102.957 47.1912C101.896 45.9977 101.763 44.1411 102.824 43.2128C102.957 43.0801 102.957 43.0801 103.09 43.0801L112.107 36.582C111.975 36.582 111.975 36.7147 111.842 36.7147C110.914 37.643 110.914 39.4996 111.975 40.6931C113.036 42.0192 114.494 42.2845 115.555 41.4888Z" fill="#242A31"/>
<path d="M115.678 37.3777C116.739 38.5713 116.872 40.4279 115.811 41.3562C114.882 42.2845 113.158 42.0192 112.098 40.8257C111.037 39.6322 110.904 37.7756 111.965 36.8473C112.893 35.919 114.485 36.1842 115.678 37.3777Z" fill="#37404A"/>
<path d="M114.359 41.6212C113.563 41.6212 112.9 41.2233 112.37 40.5603C111.441 39.3667 111.309 37.7754 112.237 36.9797C112.635 36.7145 113.033 36.4492 113.563 36.4492C114.359 36.4492 115.022 36.8471 115.552 37.5102C116.481 38.7037 116.613 40.295 115.685 41.0907C115.287 41.4886 114.757 41.6212 114.359 41.6212Z" fill="#10191B"/>
<path d="M101.353 75.1719L101.088 75.3045L101.353 75.1719Z" fill="#242A31"/>
<path d="M101.084 75.3045L101.349 75.1719L101.084 75.3045C101.084 75.4371 101.084 75.3045 101.084 75.3045Z" fill="#242A31"/>
<path d="M101.349 75.1736L101.614 75.041L101.349 75.1736L101.084 75.3063L101.349 75.1736Z" fill="#242A31"/>
<path d="M99.4941 70.9295L99.7594 70.7969C99.892 70.7969 100.025 70.7969 100.157 70.7969L100.29 70.9295L100.157 71.1947L100.025 71.0621C99.7594 70.9295 99.6268 70.9295 99.4941 70.9295Z" fill="#242A31"/>
<path d="M99.4902 70.9295L99.7555 70.7969C99.8881 70.7969 99.8881 70.7969 100.021 70.7969L99.7555 70.9295C99.6229 70.9295 99.6228 70.9295 99.4902 70.9295Z" fill="#242A31"/>
<path d="M99.7559 70.9295L100.021 70.7969H100.154L99.8884 70.9295C99.8884 70.9295 99.8885 70.9295 99.7559 70.9295Z" fill="#242A31"/>
<path d="M100.021 71.0623L100.287 70.9297C100.287 70.9297 100.419 70.9297 100.419 71.0623H100.021Z" fill="#242A31"/>
<path d="M100.162 71.194L100.427 70.9287L100.693 71.194L100.427 71.4592L100.162 71.194Z" fill="#242A31"/>
<path d="M103.736 76.6316L103.471 76.7643C103.603 76.6316 103.736 76.3664 103.471 75.9686L103.736 75.8359C104.001 76.1012 103.869 76.499 103.736 76.6316Z" fill="#242A31"/>
<path d="M103.471 75.9695L103.736 75.8369C103.736 75.9695 103.869 75.9695 103.869 76.1022L103.603 76.2347C103.603 76.1021 103.471 75.9695 103.471 75.9695Z" fill="#242A31"/>
<path d="M103.607 76.2341L103.873 76.1016C103.873 76.2342 103.873 76.2342 103.873 76.3668L103.607 76.4994C103.607 76.3668 103.607 76.2341 103.607 76.2341Z" fill="#242A31"/>
<path d="M103.603 76.4998L103.869 76.3672C103.869 76.4998 103.736 76.6324 103.736 76.6324L103.471 76.7651C103.471 76.7651 103.603 76.6324 103.603 76.4998Z" fill="#242A31"/>
<path d="M103.346 75.5691L103.611 75.4365L103.744 75.8344L103.478 75.967L103.346 75.5691Z" fill="#242A31"/>
<path d="M100.557 71.3268L100.822 71.1941C100.955 71.0615 101.22 71.0615 101.485 71.0615L101.22 71.1941C100.954 71.1941 100.822 71.1942 100.557 71.3268Z" fill="#242A31"/>
<path d="M100.561 71.3268L100.826 71.1941C100.958 71.0615 101.224 71.0615 101.489 71.0615L101.224 71.1941C100.958 71.1941 100.826 71.1942 100.561 71.3268Z" fill="#242A31"/>
<path d="M103.607 74.5096L103.872 74.377C103.872 74.7748 103.739 75.1727 103.474 75.3053L103.209 75.4379C103.474 75.3053 103.607 75.04 103.607 74.5096Z" fill="#242A31"/>
<path d="M103.607 74.5086L103.873 74.376V74.5086H103.607C103.607 74.6412 103.607 74.6412 103.607 74.5086Z" fill="#242A31"/>
<path d="M103.607 74.6414L103.872 74.5088C103.872 74.9066 103.739 75.1719 103.474 75.4371L103.209 75.5697C103.474 75.3045 103.607 75.0393 103.607 74.6414Z" fill="#242A31"/>
<path d="M102.412 71.4588L102.677 71.3262V71.724L102.412 71.8566V71.4588Z" fill="#242A31"/>
<path d="M101.486 70.5311L101.752 70.3984C101.884 70.3984 102.017 70.3984 102.149 70.3984L101.884 70.5311C101.752 70.3984 101.619 70.3984 101.486 70.5311Z" fill="#242A31"/>
<path d="M101.482 70.5311L101.748 70.3984C101.88 70.3984 101.88 70.3984 102.013 70.3984L101.748 70.5311C101.615 70.3984 101.482 70.3984 101.482 70.5311Z" fill="#242A31"/>
<path d="M101.748 70.3982L102.013 70.2656H102.146L101.881 70.3982C101.748 70.5309 101.748 70.5309 101.748 70.3982Z" fill="#242A31"/>
<path d="M102.412 71.8572L102.677 71.7246C103.075 72.1225 103.34 72.5203 103.606 72.9181L103.34 73.0508C103.075 72.6529 102.81 72.2551 102.412 71.8572Z" fill="#242A31"/>
<path d="M102.412 71.8563L102.677 71.7236C103.075 72.1215 103.34 72.5193 103.606 72.9172L103.34 73.0498C103.075 72.6519 102.81 72.2541 102.412 71.8563Z" fill="#242A31"/>
<path d="M103.346 73.0506L103.611 72.918L103.876 73.0506L103.611 73.1832L103.346 73.0506Z" fill="#242A31"/>
<path d="M101.877 70.5311L102.142 70.3984C102.407 70.5311 102.673 71.0615 102.673 71.3268L102.407 71.4594C102.407 71.1941 102.142 70.6637 101.877 70.5311Z" fill="#242A31"/>
<path d="M101.877 70.532L102.142 70.3994L101.877 70.532Z" fill="#242A31"/>
<path d="M101.877 70.532L102.142 70.3994C102.407 70.532 102.54 70.9299 102.673 71.1951L102.407 71.3277C102.407 71.0625 102.142 70.6647 101.877 70.532Z" fill="#242A31"/>
<path d="M102.408 71.3279L102.673 71.1953V71.3279L102.408 71.4606V71.3279Z" fill="#242A31"/>
<path d="M104.403 74.3767L104.138 74.5094C104.27 74.3767 104.403 74.2441 104.27 73.9789C104.138 73.7137 104.005 73.3158 103.74 73.1832C103.74 73.1832 103.607 73.1832 103.607 73.0506L103.873 72.918C103.873 72.918 104.005 72.918 104.005 73.0506C104.27 73.1832 104.536 73.4484 104.536 73.8463C104.668 74.1115 104.668 74.3767 104.403 74.3767Z" fill="#242A31"/>
<path d="M103.607 73.1834L103.873 73.0508L103.607 73.1834Z" fill="#242A31"/>
<path d="M103.607 73.1834L103.873 73.0508H104.005L103.74 73.1834C103.74 73.1834 103.74 73.1834 103.607 73.1834Z" fill="#242A31"/>
<path d="M103.869 73.3162L104.134 73.1836C104.4 73.3162 104.532 73.5814 104.665 73.9793L104.4 74.1119C104.267 73.7141 104.002 73.4488 103.869 73.3162Z" fill="#242A31"/>
<path d="M104.268 73.9793L104.533 73.8467C104.533 73.9793 104.533 73.9793 104.533 74.1119L104.268 74.2445C104.4 74.2445 104.4 74.1119 104.268 73.9793Z" fill="#242A31"/>
<path d="M104.4 74.2439L104.665 74.1113C104.665 74.2439 104.533 74.3765 104.533 74.3765L104.268 74.5092C104.268 74.5092 104.268 74.3765 104.4 74.2439Z" fill="#242A31"/>
<path d="M101.877 70.5305C102.142 70.6632 102.407 71.1936 102.407 71.4589V71.8567C102.805 72.2545 103.07 72.6524 103.335 73.0502H103.601C103.601 73.0502 103.733 73.0502 103.733 73.1828C103.998 73.3154 104.264 73.5807 104.264 73.9785C104.396 74.3764 104.131 74.6416 103.866 74.6416H103.601C103.601 75.0394 103.468 75.4373 103.203 75.5699L103.335 75.9677C103.468 76.3656 103.468 76.7634 103.203 76.7634C103.07 76.7634 102.938 76.7634 102.805 76.6308C102.672 76.4982 102.407 76.3656 102.274 76.1004L102.142 75.7025C102.009 75.7025 101.744 75.5699 101.611 75.4373C101.479 75.3047 101.214 75.172 101.081 75.0394L100.948 75.172C100.816 75.3047 100.683 75.3047 100.418 75.172C100.285 75.0394 100.153 75.0394 100.02 74.9068C99.7548 74.509 99.7548 74.1111 99.8874 73.9785L100.02 73.8459C99.7548 73.4481 99.7548 72.9176 99.6222 72.5198L99.3569 72.2545C99.0917 71.9893 98.8265 71.4588 98.9591 71.1936C99.0917 70.9284 99.2243 70.9284 99.4896 71.061L99.6222 71.1936L99.8874 71.4589C100.153 71.1936 100.418 71.1936 100.816 71.1936V70.7958C101.214 70.5306 101.479 70.3979 101.877 70.5305Z" fill="#10191B"/>
<path d="M105.339 146.785C104.278 146.785 103.482 145.989 103.482 144.928V139.756C103.482 138.695 104.278 137.899 105.339 137.899C106.4 137.899 107.196 138.695 107.196 139.756V144.928C107.063 145.989 106.267 146.785 105.339 146.785Z" fill="#10191B"/>
<path fill-rule="evenodd" clip-rule="evenodd" d="M51.6699 73.0537L62.5346 111.18L70.4616 139.282H76.2432L67.8197 73.0537H51.6699Z" fill="#1D6561"/>
<path fill-rule="evenodd" clip-rule="evenodd" d="M48.7647 73.0537C48.5134 92.7046 47.6565 103.423 47.3926 105.208C47.1288 106.994 43.1392 118.351 35.4238 139.282H41.4132C51.2354 119.203 56.7185 107.845 57.8623 105.208C59.0061 102.572 62.536 91.8534 67.8527 73.0537H48.7647Z" fill="#2F7672"/>
<path fill-rule="evenodd" clip-rule="evenodd" d="M34.8887 144.677L35.1883 138.384L41.4815 138.384C45.9576 141.53 53.1688 143.478 53.1688 143.478V144.677H41.7812L37.8854 144.078V144.677H34.8887Z" fill="#764A09"/>
<path fill-rule="evenodd" clip-rule="evenodd" d="M69.6504 144.677L69.9501 138.384L76.2432 138.384C80.7193 141.53 87.9305 143.478 87.9305 143.478V144.677H76.5429L72.6471 144.078V144.677H69.6504Z" fill="#764A09"/>
<path fill-rule="evenodd" clip-rule="evenodd" d="M60.0422 37.7639C61.9832 38.9341 63.8907 39.4996 64.7859 39.2689C67.0303 38.6903 67.2366 30.4799 65.5001 27.2431C63.7635 24.0062 54.8361 22.5954 54.3862 29.0086C54.23 31.2341 55.1643 33.2202 56.5448 34.8409L54.0684 46.3835H61.2605L60.0422 37.7639Z" fill="#93563A"/>
<path fill-rule="evenodd" clip-rule="evenodd" d="M66.3548 24.2057C66.3548 25.8069 65.0991 27.1148 63.5187 27.1982C62.6152 27.477 61.4544 27.6817 60.1671 27.768C60.2924 28.2385 60.3605 28.773 60.3605 29.3771C60.3605 29.9089 60.3019 30.4729 60.194 31.0455C59.9149 30.7142 59.5419 30.498 59.1633 30.498C58.1032 30.498 57.3652 31.3701 57.3652 32.2961C57.3652 33.4712 58.0436 34.3213 59.0338 34.3894C58.1418 36.1025 56.9078 37.393 55.6749 37.393C53.3342 37.393 51.6699 34.2635 51.6699 30.8989C51.6699 30.7802 51.6723 30.6623 51.6769 30.5454C50.8845 31.0891 50.1502 31.8019 49.4106 32.5199C47.8392 34.0452 46.244 35.5938 44.0163 35.5938C39.5591 35.5938 37.7889 26.6035 44.0163 26.6035C48.2517 26.6035 50.335 27.2211 52.1304 28.1343C52.4828 27.1412 53.0192 26.3054 53.675 25.7199C53.8414 25.5286 54.1046 25.3461 54.4475 25.1781C54.6134 25.0905 54.7842 25.0175 54.959 24.96C56.0429 24.555 57.6266 24.2687 59.398 24.2068C59.7257 24.1954 60.0475 24.1921 60.3613 24.1963C60.3664 22.5456 61.7062 21.209 63.3581 21.209C65.0131 21.209 66.3548 22.5507 66.3548 24.2057Z" fill="#191847"/>
<path fill-rule="evenodd" clip-rule="evenodd" d="M76.2441 61.1587L88.0762 59.5448C90.443 58.2282 92.6205 57.337 94.6084 56.871C95.1678 56.8547 96.0578 57.058 94.732 58.1633C93.4062 59.2685 92.0611 60.4911 92.2973 61.081C92.5335 61.6708 93.7664 61.4514 93.9707 62.3586C94.1068 62.9634 92.1058 63.0617 87.9677 62.6534L78.367 66.4597L76.2441 61.1587Z" fill="#965A42"/>
<path fill-rule="evenodd" clip-rule="evenodd" d="M39.0748 63.8978C39.0748 63.8978 31.3907 86.8269 30.5126 88.6085C30.0832 89.4795 26.9058 92.1256 24.7009 93.6375C23.8158 94.2444 24.1821 95.0209 24.5164 95.2272C27.2352 96.9048 29.0254 94.9211 31.3786 93.8262C33.9568 92.6268 33.739 96.0137 35.7828 95.0991C35.1553 93.6927 33.6879 91.0754 34.3814 89.3569C34.8436 88.2113 45.6369 63.9224 45.6369 63.9224L39.0748 63.8978Z" fill="#965A42"/>
<path fill-rule="evenodd" clip-rule="evenodd" d="M57.0473 43.0859L62.1852 43.4282C63.4506 54.8761 70.343 62.1071 85.7746 59.6591L87.8248 74.4015C73.4016 76.2655 60.7524 70.4911 58.16 54.8567C57.4889 50.8094 56.9591 46.5974 57.0473 43.0859Z" fill="#AFC5C0"/>
<path fill-rule="evenodd" clip-rule="evenodd" d="M31.4121 85.641C34.9794 66.6608 42.5086 51.9768 53.9998 41.5889H54.4923H54.5097L54.5139 41.5938L62.2977 43.3765C62.2977 52.7275 64.3781 59.7145 66.3782 66.4319C67.2419 69.3328 68.0907 72.1834 68.7505 75.1524H47.727C47.4308 78.554 47.249 82.0502 47.1542 85.641H31.4121Z" fill="#C5D6D6"/>
<path fill-rule="evenodd" clip-rule="evenodd" d="M47.7271 75.1497C48.3305 68.2201 49.4083 61.6832 51.1904 55.5391C50.7997 62.1081 50.6905 70.2615 52.0031 75.1497H47.7271Z" fill="black" fill-opacity="0.1"/>
<path fill-rule="evenodd" clip-rule="evenodd" d="M5.31055 131.812C5.31055 136.62 5.69001 140.518 10.7832 140.518C15.8765 140.518 16.2559 136.62 16.2559 131.812" fill="#F2F2F2"/>
<path fill-rule="evenodd" clip-rule="evenodd" d="M12.2967 128.812C12.11 129.134 11.9435 129.464 11.7965 129.798C11.7913 129.109 11.8293 128.416 11.9333 127.713C12.1109 126.51 12.3822 125.312 12.6372 124.116C12.8204 123.257 12.8089 121.714 13.5043 121.029C13.6949 120.881 13.7409 121.171 13.7409 121.297C13.7432 121.324 13.7403 120.783 13.5552 120.877C12.455 121.445 12.0985 123.232 11.7463 124.127C11.2324 125.432 10.7952 126.767 10.6151 128.126C10.5696 128.469 10.5449 128.812 10.5391 129.154C10.5017 129.063 10.4666 128.97 10.4278 128.879C9.79276 127.39 8.93581 125.937 7.86701 124.596C7.60394 124.267 4.29603 121.013 4.03708 121.511C4.06263 121.583 4.11612 121.643 4.19769 121.691C4.20248 121.696 4.20261 121.693 4.19982 121.685C4.3941 121.999 4.94646 122.484 5.11851 122.759C5.55151 123.451 5.88804 124.185 6.23002 124.906C6.95258 126.428 7.62283 127.965 8.2726 129.506C8.4239 129.865 8.58158 130.222 8.74246 130.578C7.08405 128.186 4.87168 126.014 1.82617 124.771C2.86636 125.3 3.54832 126.296 4.25078 127.058C5.09802 127.978 5.99037 128.872 6.8392 129.791C7.8404 130.874 9.01844 132.015 9.98145 133.214C10.9142 135.173 11.8207 137.133 12.3802 139.192C12.151 138.481 12.3623 137.498 12.323 136.751C12.2919 136.157 12.2224 135.568 12.1273 134.98C12.2449 135.245 12.3463 135.51 12.3922 135.757C12.3503 135.343 12.302 134.932 12.2501 134.522C12.3833 134.139 12.5141 133.781 12.6025 133.486C13.0553 131.975 13.5945 130.489 14.3287 129.042C15.0082 127.702 15.7876 126.38 16.6368 125.098C17.0329 124.5 17.4345 123.905 17.8336 123.309C18.0948 122.918 18.3435 122.293 18.7072 121.919C16.3564 124.068 13.7881 126.233 12.2967 128.812Z" fill="#F2F2F2"/>
</svg>
