<svg width="483" height="357" viewBox="0 0 483 357" fill="none" xmlns="http://www.w3.org/2000/svg">
<path d="M297.249 298.45C93.3942 316.561 -62.2366 294.281 49.4098 152.503C161.056 10.7247 361.637 74.8231 417.472 134.151C473.308 193.479 501.105 280.339 297.249 298.45Z" fill="#031634"/>
<g clip-path="url(#clip0_22_972)">
<path d="M396.433 270.744H41.0647V270.921H396.433V270.744Z" fill="#EBEBEB"/>
<path d="M164.178 275.261H147.704V275.438H164.178V275.261Z" fill="#EBEBEB"/>
<path d="M367.129 279.056H326.852V279.233H367.129V279.056Z" fill="#EBEBEB"/>
<path d="M111.705 279.056H71.4274V279.233H111.705V279.056Z" fill="#EBEBEB"/>
<path d="M209.509 239.166H72.2731C71.1981 239.164 70.1676 238.738 69.4081 237.98C68.6485 237.222 68.222 236.194 68.222 235.124V42.948C68.2313 41.8832 68.662 40.865 69.4206 40.1147C70.1791 39.3644 71.2042 38.9425 72.2731 38.9407H209.509C210.585 38.9407 211.618 39.3666 212.379 40.1248C213.14 40.8829 213.567 41.9112 213.567 42.9834V235.124C213.567 236.196 213.14 237.224 212.379 237.982C211.618 238.74 210.585 239.166 209.509 239.166ZM72.2731 39.0823C71.2452 39.0842 70.26 39.4923 69.5337 40.217C68.8075 40.9418 68.3996 41.924 68.3996 42.948V235.124C68.3996 236.148 68.8075 237.13 69.5337 237.855C70.26 238.579 71.2452 238.987 72.2731 238.989H209.509C210.537 238.986 211.522 238.577 212.249 237.853C212.976 237.129 213.386 236.148 213.39 235.124V42.948C213.386 41.9239 212.976 40.9428 212.249 40.2186C211.522 39.4945 210.537 39.086 209.509 39.0823H72.2731Z" fill="#EBEBEB"/>
<path d="M363.248 239.166H226.005C224.93 239.163 223.9 238.735 223.14 237.978C222.38 237.221 221.951 236.195 221.947 235.124V42.948C221.958 41.8825 222.391 40.8644 223.15 40.1143C223.91 39.3641 224.936 38.9425 226.005 38.9407H363.248C364.316 38.9444 365.339 39.3671 366.096 40.1172C366.853 40.8673 367.283 41.8844 367.292 42.948V235.124C367.293 235.653 367.19 236.178 366.987 236.668C366.784 237.158 366.486 237.604 366.111 237.979C365.735 238.355 365.289 238.653 364.798 238.856C364.307 239.06 363.78 239.165 363.248 239.166ZM226.005 39.0823C224.977 39.086 223.992 39.4945 223.265 40.2186C222.538 40.9428 222.128 41.9239 222.125 42.948V235.124C222.128 236.148 222.538 237.129 223.265 237.853C223.992 238.577 224.977 238.986 226.005 238.989H363.248C364.276 238.986 365.261 238.577 365.988 237.853C366.715 237.129 367.125 236.148 367.129 235.124V42.948C367.125 41.9239 366.715 40.9428 365.988 40.2186C365.261 39.4945 364.276 39.086 363.248 39.0823H226.005Z" fill="#EBEBEB"/>
<path d="M193.276 171.077H93.2256V270.744H193.276V171.077Z" fill="#E0E0E0"/>
<path d="M175.522 171.077H83.6378V270.744H175.522V171.077Z" fill="#EBEBEB"/>
<path d="M171.705 176.472H87.3407V203.688H171.705V176.472Z" fill="#F5F5F5"/>
<path d="M171.705 207.971H87.3407V235.187H171.705V207.971Z" fill="#F5F5F5"/>
<path d="M171.705 238.14H87.3407V265.356H171.705V238.14Z" fill="#F5F5F5"/>
<path d="M130.418 188.572C130.418 189.16 130.243 189.735 129.915 190.224C129.587 190.713 129.121 191.094 128.576 191.319C128.03 191.544 127.43 191.603 126.851 191.488C126.272 191.374 125.74 191.09 125.323 190.674C124.905 190.259 124.621 189.729 124.506 189.152C124.39 188.575 124.45 187.977 124.675 187.434C124.901 186.89 125.284 186.426 125.775 186.099C126.266 185.773 126.843 185.598 127.433 185.598C128.225 185.598 128.984 185.911 129.544 186.469C130.104 187.027 130.418 187.783 130.418 188.572Z" fill="#FAFAFA"/>
<path d="M129.58 248.993C129.58 249.414 129.455 249.824 129.22 250.173C128.986 250.523 128.653 250.795 128.264 250.956C127.874 251.117 127.445 251.159 127.032 251.077C126.618 250.995 126.238 250.792 125.94 250.495C125.642 250.198 125.439 249.82 125.356 249.408C125.274 248.996 125.316 248.569 125.478 248.181C125.639 247.792 125.912 247.461 126.263 247.227C126.614 246.994 127.026 246.869 127.448 246.869C128.013 246.869 128.555 247.093 128.955 247.492C129.355 247.89 129.58 248.43 129.58 248.993Z" fill="#FAFAFA"/>
<path d="M129.58 221.169C129.58 221.589 129.455 221.999 129.22 222.349C128.986 222.698 128.653 222.97 128.264 223.131C127.874 223.292 127.445 223.334 127.032 223.252C126.618 223.17 126.238 222.968 125.94 222.67C125.642 222.373 125.439 221.995 125.356 221.583C125.274 221.171 125.316 220.744 125.478 220.356C125.639 219.968 125.912 219.636 126.263 219.403C126.614 219.169 127.026 219.045 127.448 219.045C128.013 219.045 128.555 219.268 128.955 219.667C129.355 220.065 129.58 220.605 129.58 221.169Z" fill="#FAFAFA"/>
<path d="M205.785 48.6333H89.4658V125.006H205.785V48.6333Z" fill="#E0E0E0"/>
<path d="M203.539 48.6333H87.2199V125.006H203.539V48.6333Z" fill="#F0F0F0"/>
<path d="M199.26 52.2726H90.5604V121.969H199.26V52.2726Z" fill="#FAFAFA"/>
<path d="M195.593 53.2638L164.669 121.969H151.961L181.705 53.2638H195.593Z" fill="white"/>
<path d="M170.255 53.2638L138.848 121.969H123.951L156.787 53.2638H170.255Z" fill="white"/>
<path d="M205.628 48.6333H87.2199V53.2637H205.628V48.6333Z" fill="#E0E0E0"/>
<path d="M205.628 54.4603H87.2199V59.0907H205.628V54.4603Z" fill="#E0E0E0"/>
<path d="M205.628 60.2872H87.2199V64.9176H205.628V60.2872Z" fill="#E0E0E0"/>
<path d="M205.628 66.1071H87.2199V70.7374H205.628V66.1071Z" fill="#E0E0E0"/>
<path d="M205.628 71.934H87.2199V76.5644H205.628V71.934Z" fill="#E0E0E0"/>
<path d="M209.161 125.006H84.6826V130.77H209.161V125.006Z" fill="#E0E0E0"/>
<path d="M353.199 211.398V270.744H332.147L331.024 264.803H249.225V211.398H353.199Z" fill="#E0E0E0"/>
<path d="M338.778 211.398V270.744H332.147L331.024 264.803H247.597L246.275 270.744H234.804V211.398H338.778Z" fill="#EBEBEB"/>
<path d="M332.914 215.561H240.085V236.009H332.914V215.561Z" stroke="#FAFAFA" stroke-miterlimit="10"/>
<path d="M332.914 240.08H240.085V260.732H332.914V240.08Z" stroke="#FAFAFA" stroke-miterlimit="10"/>
<path d="M351.329 45.6172H309.588V101.855H351.329V45.6172Z" fill="#E0E0E0"/>
<path d="M349.24 45.5818H307.498V101.819H349.24V45.5818Z" fill="#E6E6E6"/>
<path d="M347.072 47.6917H309.588V99.7942H347.072V47.6917Z" fill="#FAFAFA"/>
<path d="M343.248 88.4873H314.598V89.7051H343.248V88.4873Z" fill="#E0E0E0"/>
<path d="M343.248 91.5955H314.598V92.8132H343.248V91.5955Z" fill="#E0E0E0"/>
<path d="M343.248 94.7036H314.598V95.9214H343.248V94.7036Z" fill="#E0E0E0"/>
<path d="M339.154 66.9638C339.154 68.9783 338.555 70.9475 337.432 72.6226C336.309 74.2978 334.712 75.6036 332.844 76.3752C330.976 77.1467 328.92 77.3493 326.937 76.9573C324.953 76.5654 323.131 75.5964 321.7 74.173C320.269 72.7496 319.294 70.9355 318.898 68.9601C318.501 66.9847 318.702 64.9366 319.474 63.0747C320.246 61.2128 321.554 59.6206 323.235 58.4994C324.915 57.3782 326.891 56.7783 328.913 56.7755C330.257 56.7737 331.588 57.0358 332.831 57.547C334.073 58.0582 335.203 58.8083 336.154 59.7546C337.105 60.7008 337.86 61.8246 338.375 63.0616C338.889 64.2987 339.154 65.6247 339.154 66.9638Z" stroke="#E0E0E0" stroke-miterlimit="10"/>
<path d="M334.989 116.376H299.346V151.883H334.989V116.376Z" fill="#E0E0E0"/>
<path d="M331.94 116.376H296.297V151.883H331.94V116.376Z" fill="#EBEBEB"/>
<path d="M329.481 118.833H298.763V149.433H329.481V118.833Z" fill="#FAFAFA"/>
<path d="M322.267 126.012H305.977V142.239H322.267V126.012Z" fill="#E0E0E0"/>
<path d="M217.384 320.524C282.999 320.524 336.191 316.517 336.191 311.575C336.191 306.632 282.999 302.625 217.384 302.625C151.769 302.625 98.5775 306.632 98.5775 311.575C98.5775 316.517 151.769 320.524 217.384 320.524Z" fill="#F5F5F5"/>
<path d="M155.138 264.237H111.413V313.394H155.138V264.237Z" fill="#033649"/>
<path d="M177 264.237H133.276V313.394H177V264.237Z" fill="#033649"/>
<path opacity="0.7" d="M155.138 264.237H111.413V313.394H155.138V264.237Z" fill="white"/>
<path opacity="0.2" d="M176.993 264.237H155.088V313.394H176.993V264.237Z" fill="white"/>
<path d="M165.583 298.629C168.656 298.557 171.046 294.215 170.922 288.93C170.798 283.644 168.206 279.418 165.133 279.489C162.061 279.561 159.671 283.904 159.795 289.189C159.919 294.474 162.51 298.7 165.583 298.629Z" fill="white"/>
<path d="M168.713 287.445L166.339 287.502L166.247 283.495L164.413 283.537L164.505 287.545L161.897 287.608L161.968 290.731L164.576 290.667L164.676 294.639L166.51 294.596L166.417 290.624L168.791 290.568L168.713 287.445Z" fill="#033649"/>
<path d="M138.599 264.237H129.743V273.059H138.599V264.237Z" fill="#F5F5F5"/>
<path d="M138.599 281.859H129.743V313.394H138.599V281.859Z" fill="#F5F5F5"/>
<path d="M169.146 223.916H133.276V264.251H169.146V223.916Z" fill="#033649"/>
<path d="M187.085 223.916H151.215V264.251H187.085V223.916Z" fill="#033649"/>
<path opacity="0.7" d="M163.553 223.916H133.276V264.251H163.553V223.916Z" fill="white"/>
<path opacity="0.2" d="M187.085 223.916H163.553V264.251H187.085V223.916Z" fill="white"/>
<path d="M179.879 244.186C179.985 248.519 178.024 252.087 175.5 252.144C172.977 252.201 170.852 248.731 170.753 244.398C170.653 240.065 172.615 236.476 175.131 236.476C177.647 236.476 179.779 239.846 179.879 244.186Z" fill="white"/>
<path d="M178.087 242.961L176.14 243.004L176.062 239.711L174.555 239.747L174.633 243.039L172.487 243.089L172.551 245.652L174.69 245.602L174.768 248.866L176.275 248.824L176.197 245.567L178.144 245.524L178.087 242.961Z" fill="#033649"/>
<path d="M148.315 223.916H141.044V264.251H148.315V223.916Z" fill="#F5F5F5"/>
<path d="M210.497 169.285C210.497 169.285 200.028 218.676 199.125 235.06C198.223 251.443 202.515 292.614 202.515 292.614L215.892 294.738L218.443 242.196L224.307 202.144C224.307 202.144 230.447 234.713 233.091 242.338C235.735 249.963 248.351 272.074 258.77 289.739L267.725 283.204C267.725 283.204 250.988 235.527 248.13 226.217C245.273 216.906 247.207 177.435 238.393 166.227L210.497 169.285Z" fill="#033649"/>
<path opacity="0.4" d="M210.497 169.285C210.497 169.285 200.028 218.676 199.125 235.06C198.223 251.443 202.515 292.614 202.515 292.614L215.892 294.738L218.443 242.196L224.307 202.144C224.307 202.144 230.447 234.713 233.091 242.338C235.735 249.963 248.351 272.074 258.77 289.739L267.725 283.204C267.725 283.204 250.988 235.527 248.13 226.217C245.273 216.906 247.207 177.435 238.393 166.227L210.497 169.285Z" fill="white"/>
<path d="M212.985 306.286C212.921 306.682 205.984 305.181 205.984 305.181L205.515 298.356L205.33 295.68L212.437 295.057C212.437 295.057 212.558 297.096 212.686 299.432C212.828 302.491 213.063 306.052 212.985 306.286Z" fill="#B55B52"/>
<path opacity="0.2" d="M212.658 299.432L205.515 298.356L205.33 295.68L212.437 295.057C212.437 295.057 212.53 297.096 212.658 299.432Z" fill="#224422" fill-opacity="0.258824"/>
<path d="M200.902 307.581L200.618 307.192C200.533 307.071 198.486 304.218 198.784 302.816C198.812 302.68 198.87 302.552 198.953 302.44C199.037 302.329 199.144 302.237 199.267 302.172C199.368 302.111 199.484 302.079 199.601 302.079C199.719 302.079 199.835 302.111 199.935 302.172C200.952 302.788 200.916 306.668 200.909 307.128L200.902 307.581ZM199.623 302.399C199.551 302.401 199.48 302.42 199.417 302.455C199.336 302.5 199.265 302.562 199.21 302.637C199.155 302.711 199.116 302.797 199.097 302.887C198.877 303.85 200.028 305.719 200.589 306.583C200.589 305.216 200.405 302.823 199.772 302.441C199.727 302.413 199.676 302.399 199.623 302.399Z" fill="#033649"/>
<path d="M200.184 307.624L199.772 307.454C199.331 307.277 195.465 305.67 195.223 304.289C195.201 304.148 195.216 304.004 195.268 303.872C195.319 303.739 195.404 303.621 195.515 303.532C195.631 303.423 195.772 303.345 195.925 303.301C196.079 303.258 196.24 303.252 196.396 303.284C197.96 303.553 199.893 307.079 199.95 307.227L200.184 307.624ZM196.197 303.581C196.024 303.581 195.858 303.65 195.735 303.772C195.663 303.825 195.607 303.896 195.573 303.979C195.539 304.061 195.529 304.152 195.543 304.24C195.7 305.146 198.116 306.364 199.452 306.972C198.898 306.031 197.462 303.793 196.339 303.595L196.197 303.581Z" fill="#033649"/>
<path d="M212.757 305.903L205.579 304.778C205.133 304.708 204.676 304.806 204.299 305.054C202.635 306.173 200.762 306.948 198.791 307.333C195.721 307.765 192.992 307.164 192.736 308.041C192.591 308.612 192.642 309.215 192.882 309.753C193.121 310.29 193.536 310.733 194.058 311.008C195.067 311.532 207.434 313.444 212.651 314.237C212.924 314.278 213.203 314.256 213.466 314.174C213.73 314.091 213.971 313.95 214.171 313.761C214.372 313.572 214.527 313.34 214.624 313.083C214.722 312.825 214.759 312.549 214.733 312.275L214.285 307.532C214.247 307.13 214.076 306.753 213.799 306.458C213.523 306.164 213.157 305.969 212.757 305.903Z" fill="#222221"/>
<path d="M200.746 290.979L201.869 296.869L216.51 298.257L216.943 292.295L200.746 290.979Z" fill="#033649"/>
<path d="M272.224 290.596C272.423 290.95 266.055 294.072 266.055 294.072L261.833 289.449L259.623 287.021L261.869 284.897L264.783 282.157C264.783 282.157 265.082 282.496 265.572 283.035L268.159 285.937C270.078 288.104 272.125 290.419 272.224 290.596Z" fill="#B55B52"/>
<path opacity="0.2" d="M268.159 285.944L261.833 289.449L259.623 287.021L261.869 284.897L265.572 283.035L268.159 285.944Z" fill="#224422" fill-opacity="0.258824"/>
<path d="M263.987 296.897L263.617 296.727C263.482 296.671 260.362 295.248 260.064 293.995C260.036 293.869 260.04 293.739 260.075 293.616C260.11 293.492 260.174 293.379 260.263 293.287C260.358 293.165 260.484 293.071 260.627 293.014C260.771 292.956 260.927 292.938 261.08 292.961C262.345 293.166 263.66 296.189 263.809 296.536L263.987 296.897ZM260.966 293.258C260.881 293.26 260.796 293.282 260.72 293.321C260.644 293.36 260.577 293.416 260.526 293.485C260.469 293.543 260.428 293.614 260.407 293.692C260.386 293.77 260.385 293.852 260.405 293.931C260.575 294.724 262.338 295.743 263.354 296.253C262.864 295.205 261.855 293.421 261.052 293.265L260.966 293.258Z" fill="#033649"/>
<path d="M259.31 298.384C258.67 298.451 258.028 298.288 257.498 297.924C257.363 297.789 257.27 297.619 257.229 297.434C257.187 297.248 257.199 297.055 257.263 296.876C257.313 296.657 257.415 296.453 257.559 296.281C257.704 296.108 257.887 295.973 258.095 295.885C259.95 295.05 264.094 297.152 264.271 297.244L264.627 297.428L264.243 297.542C262.636 298.009 260.981 298.291 259.31 298.384ZM259.175 296.005C258.849 295.995 258.525 296.053 258.223 296.175C258.061 296.244 257.917 296.351 257.805 296.487C257.692 296.622 257.614 296.782 257.576 296.954C257.534 297.074 257.525 297.203 257.55 297.328C257.575 297.452 257.633 297.568 257.718 297.662C258.571 298.483 262.047 297.768 263.745 297.315C262.878 296.94 260.682 296.005 259.175 296.005Z" fill="#033649"/>
<path d="M271.812 290.341L265.487 293.881C265.091 294.099 264.794 294.458 264.655 294.887C264.049 296.793 263.062 298.558 261.755 300.076C259.623 302.321 257.107 303.539 257.455 304.381C257.695 304.918 258.109 305.36 258.632 305.633C259.154 305.907 259.754 305.997 260.334 305.889C261.45 305.677 272.338 299.517 276.922 296.926C277.163 296.789 277.369 296.599 277.524 296.37C277.68 296.142 277.781 295.882 277.82 295.608C277.859 295.335 277.835 295.057 277.75 294.794C277.664 294.532 277.52 294.292 277.328 294.094L274.023 290.646C273.739 290.36 273.369 290.175 272.969 290.12C272.57 290.065 272.163 290.143 271.812 290.341Z" fill="#222221"/>
<path d="M253.504 286.695L258.059 290.632L270.405 282.659L267.029 277.717L253.504 286.695Z" fill="#033649"/>
<path d="M225.344 107.618C225.735 107.398 233.873 107.03 241.691 108.666C249.509 110.301 235.579 119.88 235.579 119.88L231.215 137.283L223.219 137.354L222.253 112.645L225.344 107.618Z" fill="#EBEBEB"/>
<path d="M241.684 108.687L224.726 135.343L226.602 107.391C226.602 107.391 220.44 107.547 218.528 108.099C216.616 108.651 214.975 113.098 213.603 119.187C212.231 125.275 210.149 139.875 210.149 139.875L200.405 221.296C200.405 221.296 233.717 228.376 249.41 222.875C249.41 222.875 243.511 149.744 244.484 145.227C245.458 140.71 248.607 124.185 248.607 124.185C248.607 124.185 252.971 115.937 251.073 113.508C249.175 111.08 241.684 108.687 241.684 108.687Z" fill="#033649"/>
<path d="M221.691 159.975L224.108 224.588" stroke="white" stroke-width="0.75" stroke-linecap="round" stroke-linejoin="round"/>
<path d="M219.632 109.486L160.842 129.446L175.649 172.725L234.439 152.765L219.632 109.486Z" fill="#033649"/>
<path d="M219.63 109.487L175.643 172.726L167.384 168.995L152.579 125.722L211.371 105.763L219.63 109.487Z" fill="#033649"/>
<path opacity="0.7" d="M219.63 109.487L160.838 129.446L175.643 172.726L167.384 168.995L152.579 125.722L211.371 105.763L219.63 109.487Z" fill="white"/>
<path opacity="0.46" d="M219.632 109.486L160.842 129.446L175.649 172.725L234.439 152.765L219.632 109.486Z" fill="white"/>
<path d="M207.054 153.911C214.142 148.134 215.186 137.727 209.387 130.667C203.588 123.606 193.142 122.566 186.054 128.342C178.966 134.119 177.922 144.526 183.721 151.586C189.52 158.647 199.966 159.688 207.054 153.911Z" fill="#FAFAFA"/>
<path d="M206.51 135.4L199.751 137.602L197.576 130.989L192.352 132.695L194.527 139.308L187.092 141.73L188.777 146.877L196.218 144.448L198.372 151.005L203.596 149.298L201.442 142.742L208.201 140.54L206.51 135.4Z" fill="#033649"/>
<path d="M226.567 73.0243V62.7227C226.567 62.7227 237.889 57.6463 248.713 68.0116L243.738 78.0087L226.567 73.0243Z" fill="#033649"/>
<path d="M237.441 64.2311L236.158 63.9788L235.383 67.8894L236.666 68.1417L237.441 64.2311Z" fill="white"/>
<path d="M234.591 65.0309L234.338 66.309L238.264 67.0812L238.517 65.8031L234.591 65.0309Z" fill="white"/>
<path d="M242.914 92.0415C240.845 95.008 238.948 94.5974 238.948 94.5974C238.326 95.7239 237.516 96.7366 236.553 97.5923C236.211 106.846 238.948 109.345 238.948 109.345C236.105 113.714 232.594 113.593 229.04 112.319C225.486 111.044 225.302 108.269 225.302 108.269C228.514 106.697 228.557 104.233 228.095 102.548C227.911 101.896 227.638 101.272 227.285 100.693C221.25 99.0437 219.509 93.2805 219.921 87.843C220.176 84.5449 220.989 81.3135 222.324 78.2848L225.877 72.9252L239.772 75.7572L240.519 83.0922L237.676 88.5297C242.686 84.841 245.003 89.0395 242.914 92.0415Z" fill="#B55B52"/>
<path d="M226.567 91.9707C226.229 91.9725 225.892 91.9488 225.558 91.8999C225.525 91.8943 225.495 91.8824 225.467 91.865C225.439 91.8476 225.415 91.8249 225.397 91.7983C225.378 91.7716 225.364 91.7416 225.357 91.7098C225.35 91.678 225.349 91.6452 225.355 91.6131C225.361 91.581 225.372 91.5504 225.39 91.5229C225.407 91.4954 225.43 91.4716 225.457 91.4528C225.484 91.4341 225.514 91.4208 225.546 91.4137C225.578 91.4065 225.611 91.4057 225.643 91.4113C225.643 91.4113 229.196 92.0273 230.725 89.4077C230.741 89.3793 230.763 89.3544 230.789 89.3345C230.815 89.3145 230.844 89.2998 230.876 89.2912C230.908 89.2827 230.941 89.2805 230.973 89.2846C231.006 89.2888 231.037 89.2993 231.066 89.3156C231.094 89.3319 231.119 89.3536 231.139 89.3795C231.159 89.4054 231.174 89.4349 231.183 89.4665C231.191 89.498 231.193 89.531 231.189 89.5634C231.185 89.5958 231.174 89.6271 231.158 89.6555C229.985 91.652 227.818 91.9707 226.567 91.9707Z" fill="#263238"/>
<path d="M225.593 88.735C225.742 88.735 226.346 84.2179 226.346 84.2179L223.12 88.0836C223.452 88.3772 223.849 88.589 224.279 88.7021C224.708 88.8153 225.158 88.8265 225.593 88.735Z" fill="#A02724"/>
<path d="M230.59 84.31C230.511 84.8693 230.163 85.287 229.815 85.2375C229.467 85.1879 229.246 84.6923 229.324 84.133C229.403 83.5736 229.751 83.1488 230.099 83.1984C230.447 83.248 230.668 83.7436 230.59 84.31Z" fill="#263238"/>
<path d="M223.724 83.6869C223.646 84.2462 223.297 84.664 222.949 84.6144C222.601 84.5649 222.381 84.0763 222.459 83.5099C222.537 82.9435 222.885 82.5329 223.233 82.5824C223.582 82.632 223.838 83.1205 223.724 83.6869Z" fill="#263238"/>
<path d="M233.376 81.7753C233.313 81.7746 233.252 81.7563 233.199 81.7225C233.146 81.6887 233.104 81.6407 233.077 81.5842C232.231 79.7929 231.037 80.0265 230.988 80.0336C230.905 80.0458 230.821 80.0268 230.752 79.9804C230.683 79.934 230.633 79.8634 230.614 79.7827C230.594 79.7019 230.606 79.6167 230.646 79.544C230.686 79.4712 230.752 79.416 230.831 79.3893C230.902 79.3893 232.594 78.9928 233.674 81.301C233.693 81.3409 233.704 81.3842 233.706 81.4283C233.708 81.4725 233.702 81.5166 233.686 81.5581C233.671 81.5997 233.648 81.6378 233.618 81.6702C233.587 81.7026 233.551 81.7287 233.511 81.747C233.468 81.7661 233.422 81.7758 233.376 81.7753Z" fill="#263238"/>
<path d="M221.542 80.5859C221.5 80.5862 221.458 80.5782 221.419 80.5624C221.38 80.5466 221.344 80.5233 221.314 80.4938C221.283 80.4635 221.258 80.4271 221.241 80.387C221.224 80.3469 221.215 80.3037 221.215 80.2602C221.215 80.2166 221.224 80.1735 221.241 80.1333C221.258 80.0932 221.283 80.0569 221.314 80.0265C221.4 79.9416 223.305 78.0016 225.707 78.9574C225.748 78.9731 225.786 78.9967 225.818 79.027C225.85 79.0572 225.875 79.0934 225.893 79.1336C225.911 79.1737 225.92 79.217 225.921 79.2609C225.922 79.3048 225.915 79.3484 225.899 79.3893C225.864 79.4714 225.799 79.5366 225.716 79.571C225.634 79.6055 225.541 79.6063 225.458 79.5734C223.461 78.7804 221.819 80.4655 221.798 80.4867C221.765 80.5216 221.726 80.5486 221.681 80.5658C221.637 80.5829 221.589 80.5898 221.542 80.5859Z" fill="#263238"/>
<path opacity="0.2" d="M230.383 100.318C229.828 101.23 229.047 101.986 228.116 102.513C227.932 101.861 227.66 101.237 227.306 100.658C228.344 100.758 229.392 100.642 230.383 100.318Z" fill="#224422" fill-opacity="0.258824"/>
<path d="M239.111 76.3802C239.111 76.3802 227.121 79.5733 222.345 77.8812C217.569 76.189 219.239 70.3408 219.886 69.7886C220.767 69.0381 222.686 72.1392 222.686 72.1392C222.686 72.1392 221.115 68.8186 222.345 68.0894C223.575 67.3601 223.766 72.3374 228.244 71.8135C232.722 71.2896 245.131 67.9265 245.863 75.7005C246.303 80.3579 245.547 85.0501 243.667 89.3368C243.667 89.3368 243.006 85.0887 237.725 88.4659C237.725 88.4659 235.97 87.2198 237.725 85.5064C240.781 82.5399 239.715 78.6387 239.111 76.3802Z" fill="#263238"/>
<path d="M237.839 75.7572C237.839 75.7572 235.757 82.54 239.587 82.2143C243.418 81.8886 241.066 74.8085 241.066 74.8085L237.839 75.7572Z" fill="#263238"/>
<path d="M227.768 72.2172C227.768 72.2172 225.266 70.3834 225.906 69.0524C226.545 67.7213 227.54 70.9357 232.523 70.348C237.505 69.7604 243.418 69.3143 244.513 72.6066C245.607 75.8988 234.563 73.3925 234.563 73.3925L227.754 74.851L227.768 72.2172Z" fill="#263238"/>
<path d="M226.901 153.256L222.089 151.904C222.089 151.904 216.403 151.557 215.927 153.716C215.451 155.876 215.216 159.6 217.476 159.897C219.737 160.195 226.773 159.756 226.773 159.756L226.901 153.256Z" fill="#B55B52"/>
<path d="M243.319 120.362L251.073 113.466C251.073 113.466 260.675 134.706 261.215 142.87C261.755 151.033 255.423 154.7 250.057 156.074C244.691 157.447 226.908 161.108 226.908 161.108L225.948 151.252C225.948 151.252 244.89 148.031 252.182 144.696C252.153 144.717 245.593 125.707 243.319 120.362Z" fill="#033649"/>
<path opacity="0.1" d="M226.908 161.129L244.833 157.313L244.882 160.003L226.908 161.129Z" fill="#224422" fill-opacity="0.258824"/>
<path d="M229.054 112.283L231.094 117.65C234.335 115.273 237.317 112.566 239.993 109.572L237.036 104.665C237.036 104.665 234.328 110.032 229.054 112.283Z" fill="#FAFAFA"/>
<path d="M227.562 106.414C227.621 108.456 228.13 110.46 229.054 112.283L226.83 117.24C225.704 116.103 224.845 114.732 224.317 113.225C223.788 111.717 223.602 110.112 223.774 108.524L227.562 106.414Z" fill="#FAFAFA"/>
</g>
<defs>
<clipPath id="clip0_22_972">
<rect width="355.368" height="354.006" fill="white" transform="translate(41.0647)"/>
</clipPath>
</defs>
</svg>
