<svg width="432" height="383" viewBox="0 0 432 383" fill="none" xmlns="http://www.w3.org/2000/svg">
<path d="M13.878 110.443C31.5178 121.578 46.1294 124.396 40.6492 97.5453C35.1689 70.6947 15.2153 72.6311 8.34547 79.6991C1.4757 86.7671 -3.76176 99.3076 13.878 110.443Z" fill="#033649"/>
<path d="M51.895 47.2446C54.1787 67.9794 61.0799 81.1634 78.6646 60.1452C96.2492 39.1269 82.3006 24.7279 72.4917 23.7596C62.6829 22.7913 49.6113 26.5097 51.895 47.2446Z" fill="#7B2D26"/>
<path d="M280.156 160.379C155.821 166.913 68.8955 198.701 166.191 292.996C263.487 387.291 367.683 320.058 387.501 270.549C407.319 221.041 404.491 153.845 280.156 160.379Z" fill="#7B2D26"/>
<path d="M159.34 348.784C107.208 342.878 -9.75783 144.56 62.2454 156.242C134.249 167.923 330.531 51.3165 370.311 156.66C408.484 257.745 211.472 354.691 159.34 348.784Z" fill="#031634"/>
<path d="M283.293 232.192C283.293 232.192 306.929 247.089 308.225 281.864C308.657 293.53 302.482 330.673 302.482 330.673L164.251 331.189L190.106 231.637L233.595 222.384L283.293 232.192Z" fill="#033649"/>
<path d="M230.487 258.007L249.319 330.896L202.248 331.189L230.487 258.007Z" fill="#263238"/>
<path d="M231.202 242.224C231.053 243.011 230.97 243.807 230.953 244.606C230.845 246.21 230.712 248.184 230.562 250.374C230.412 252.564 230.329 254.669 230.296 256.141C230.24 256.941 230.259 257.743 230.354 258.539C230.503 257.752 230.586 256.956 230.604 256.157C230.712 254.561 230.845 252.579 230.994 250.397C231.144 248.215 231.227 246.102 231.252 244.622C231.313 243.823 231.296 243.02 231.202 242.224Z" fill="#263238"/>
<path d="M222.675 250.258C222.675 250.297 222.983 250.358 223.506 250.628C224.192 251.01 224.739 251.574 225.077 252.247C225.338 252.731 225.46 253.269 225.431 253.81C225.402 254.35 225.223 254.875 224.911 255.332C224.554 255.905 224.018 256.363 223.374 256.648C222.73 256.932 222.008 257.028 221.304 256.924C220.6 256.819 219.946 256.519 219.43 256.063C218.914 255.606 218.559 255.015 218.412 254.368C218.265 253.85 218.264 253.305 218.41 252.787C218.555 252.268 218.842 251.793 219.243 251.407C219.789 250.863 220.498 250.484 221.279 250.32C221.828 250.204 222.11 250.235 222.16 250.196C222.21 250.158 222.077 250.196 221.927 250.15C221.701 250.12 221.472 250.12 221.246 250.15C220.404 250.264 219.625 250.63 219.027 251.191C218.605 251.577 218.281 252.046 218.079 252.564C217.856 253.17 217.825 253.823 217.988 254.445C218.15 255.167 218.544 255.826 219.119 256.334C219.694 256.843 220.422 257.177 221.207 257.293C221.992 257.408 222.796 257.3 223.512 256.981C224.229 256.662 224.824 256.149 225.218 255.509C225.58 254.965 225.768 254.336 225.758 253.697C225.734 253.159 225.584 252.633 225.318 252.155C224.937 251.447 224.319 250.873 223.556 250.52C223.355 250.423 223.139 250.353 222.916 250.312C222.758 250.25 222.683 250.243 222.675 250.258Z" fill="#263238"/>
<path d="M207.608 290.053C207.608 290.053 207.915 290.161 208.439 290.423C209.122 290.806 209.667 291.37 210.001 292.042C210.263 292.526 210.385 293.064 210.356 293.605C210.326 294.145 210.147 294.669 209.835 295.126C209.478 295.699 208.942 296.158 208.298 296.442C207.654 296.727 206.933 296.823 206.228 296.718C205.524 296.614 204.871 296.314 204.354 295.857C203.838 295.401 203.483 294.81 203.336 294.163C203.19 293.644 203.19 293.1 203.335 292.582C203.481 292.063 203.767 291.588 204.167 291.202C204.71 290.658 205.417 290.28 206.195 290.115C206.752 289.999 207.076 290.03 207.076 289.991C207.003 289.961 206.924 289.945 206.843 289.945C206.62 289.919 206.394 289.919 206.17 289.945C205.325 290.06 204.543 290.429 203.943 290.994C203.522 291.376 203.201 291.843 203.004 292.358C202.773 292.963 202.741 293.618 202.912 294.24C203.068 294.965 203.459 295.628 204.033 296.141C204.607 296.653 205.337 296.99 206.124 297.106C206.911 297.222 207.717 297.111 208.434 296.789C209.151 296.467 209.745 295.948 210.134 295.304C210.504 294.763 210.692 294.132 210.675 293.492C210.654 292.954 210.504 292.427 210.234 291.95C209.853 291.242 209.235 290.668 208.472 290.315C208.27 290.22 208.055 290.15 207.832 290.107C207.761 290.079 207.685 290.061 207.608 290.053Z" fill="#263238"/>
<path d="M256.483 261.153C256.57 261.276 256.67 261.39 256.782 261.493C256.982 261.708 257.281 262.025 257.688 262.418C258.854 263.522 260.097 264.552 261.411 265.502C265.786 268.613 270.831 270.815 276.204 271.956C279.154 272.613 282.196 272.841 285.221 272.634C287.716 272.467 290.114 271.667 292.152 270.321C293.514 269.399 294.607 268.177 295.335 266.767C295.518 266.382 295.668 265.985 295.784 265.579C295.831 265.439 295.856 265.294 295.859 265.147C295.817 265.147 295.693 265.733 295.177 266.69C294.414 268.039 293.314 269.2 291.969 270.075C289.961 271.356 287.619 272.115 285.188 272.272C282.202 272.448 279.205 272.209 276.295 271.563C270.978 270.432 265.972 268.289 261.594 265.271C260.275 264.353 259.013 263.367 257.813 262.318L256.84 261.446C256.616 261.238 256.5 261.153 256.483 261.153Z" fill="#263238"/>
<path d="M256.483 268.37C256.57 268.493 256.67 268.607 256.782 268.71C256.982 268.926 257.281 269.249 257.688 269.643C262.743 274.405 269.172 277.712 276.204 279.165C279.154 279.824 282.195 280.056 285.221 279.852C287.715 279.681 290.112 278.881 292.152 277.538C293.515 276.62 294.609 275.401 295.335 273.992C295.52 273.605 295.67 273.205 295.784 272.796C295.832 272.657 295.857 272.511 295.859 272.365C295.817 272.365 295.693 272.951 295.177 273.907C294.415 275.259 293.315 276.422 291.969 277.299C289.96 278.578 287.619 279.334 285.188 279.489C282.202 279.669 279.204 279.43 276.295 278.78C270.98 277.648 265.975 275.509 261.594 272.496C260.275 271.575 259.012 270.587 257.813 269.535L256.84 268.663C256.734 268.553 256.614 268.455 256.483 268.37Z" fill="#263238"/>
<path d="M255.261 266.188C255.231 266.289 255.212 266.392 255.203 266.497C255.203 266.72 255.145 267.029 255.095 267.414C254.995 268.247 254.854 269.435 254.68 270.954C254.33 274.038 253.666 278.456 253.366 283.985C253.196 287 253.265 290.023 253.574 293.029C253.915 296.492 254.753 299.897 256.067 303.153C257.516 306.775 259.813 310.053 262.791 312.753C264.372 314.173 266.149 315.392 268.076 316.377C270.07 317.385 272.225 318.09 274.459 318.467C278.914 319.138 283.482 318.353 287.382 316.246C291.019 314.334 294.084 311.609 296.299 308.319C298.252 305.346 299.657 302.091 300.455 298.689C301.165 295.731 301.549 292.713 301.601 289.683C301.619 285.314 301.286 280.951 300.604 276.629C300.363 275.086 300.18 273.93 300.056 273.105C299.989 272.719 299.931 272.419 299.898 272.187C299.882 272.083 299.857 271.979 299.823 271.879C299.812 271.984 299.812 272.09 299.823 272.195C299.823 272.426 299.889 272.727 299.939 273.113C300.047 273.945 300.205 275.133 300.413 276.644C301.021 280.964 301.298 285.319 301.244 289.675C301.174 292.678 300.779 295.667 300.064 298.596C299.253 301.954 297.849 305.164 295.909 308.096C293.738 311.333 290.73 314.015 287.158 315.899C283.342 317.96 278.874 318.726 274.517 318.066C272.328 317.704 270.217 317.013 268.267 316.022C266.371 315.057 264.622 313.861 263.065 312.468C260.125 309.813 257.854 306.587 256.416 303.022C255.11 299.798 254.271 296.427 253.923 292.998C253.599 290.009 253.513 287.001 253.666 284C253.923 278.487 254.497 274.046 254.837 270.969C255.004 269.427 255.112 268.232 255.178 267.422C255.178 267.037 255.228 266.728 255.245 266.497C255.261 266.265 255.261 266.188 255.261 266.188Z" fill="#263238"/>
<g opacity="0.2">
<path d="M298.51 304.379C297.014 309.083 296.374 310.301 293.573 314.056C290.987 317.615 287.202 320.278 282.811 321.628C279.672 322.633 276.308 322.878 273.038 322.338C269.768 321.798 266.702 320.492 264.129 318.544C259.051 314.604 257.256 308.52 256.375 304.395C258.586 307.155 260.937 311.08 263.722 313.354C266.506 315.629 270.187 317.618 273.861 318.212C278.847 318.983 284.789 317.595 289.052 315.082C293.316 312.568 295.892 308.065 298.535 304.387" fill="#242424"/>
</g>
<g opacity="0.2">
<path d="M294.953 274.47C294.005 276.43 292.557 278.148 290.734 279.474C288.911 280.8 286.768 281.694 284.49 282.08C279.994 282.851 274.168 281.533 271.359 277.616C281.249 280.839 291.08 280.916 294.953 274.47Z" fill="#242424"/>
</g>
<path d="M213.683 263.096C213.895 263.13 214.111 263.13 214.323 263.096C214.886 263.024 215.442 262.911 215.985 262.757C219.689 261.738 222.865 259.501 224.919 256.465C225.232 256.011 225.51 255.537 225.75 255.046C225.908 254.692 225.983 254.499 225.95 254.484C225.916 254.468 225.501 255.208 224.686 256.311C223.614 257.733 222.314 258.994 220.83 260.051C219.336 261.094 217.676 261.916 215.91 262.487C214.556 262.88 213.675 263.027 213.683 263.096Z" fill="#263238"/>
<g opacity="0.2">
<path d="M225.185 254.985C224.163 258.208 220.307 261.215 216.874 262.271C216.203 262.503 215.486 262.601 214.772 262.557C214.415 262.534 214.067 262.438 213.754 262.277C213.441 262.116 213.17 261.893 212.96 261.624C212.237 260.598 212.86 259.141 213.924 258.416C215.056 257.776 216.318 257.358 217.631 257.19C220.282 256.619 222.675 257.861 224.869 255.794" fill="#242424"/>
</g>
<g opacity="0.2">
<path d="M298.684 249.017C292.485 254.044 283.725 254.26 275.838 252.101C267.952 249.942 261.079 245.878 254.38 241.437C261.685 242.786 267.918 245.878 275.29 246.889C282.329 247.852 289.651 247.953 296.573 245.77" fill="#242424"/>
</g>
<path d="M179.792 326.247C179.839 326.284 179.892 326.313 179.95 326.332C180.109 326.41 180.272 326.48 180.44 326.54C181.087 326.782 181.767 326.938 182.46 327.002C185.031 327.2 187.596 326.562 189.715 325.198C192.474 323.571 194.984 320.834 197.668 317.796C200.548 314.462 203.136 310.919 205.406 307.201C209.525 300.438 212.679 293.207 214.788 285.689C215.619 282.805 216.101 280.445 216.409 278.803C216.542 278.032 216.65 277.377 216.733 276.914C216.774 276.694 216.802 276.473 216.816 276.251C216.736 276.461 216.678 276.678 216.642 276.898L216.243 278.772C215.885 280.399 215.329 282.751 214.498 285.612C212.308 293.077 209.128 300.262 205.032 307.001C202.769 310.7 200.202 314.232 197.353 317.565C194.702 320.603 192.225 323.34 189.549 324.959C187.481 326.321 184.975 326.987 182.443 326.848C181.534 326.76 180.642 326.558 179.792 326.247Z" fill="#263238"/>
<g opacity="0.2">
<path d="M209.677 297.794C209.677 297.794 197.411 312.105 188.46 315.614C185.427 316.809 182.086 317.78 180.017 320.155C179.5 320.699 179.116 321.341 178.894 322.036C178.672 322.731 178.615 323.463 178.729 324.18C178.763 324.35 178.819 324.516 178.895 324.674C180.183 327.719 186.374 327.295 189.208 325.368C190.447 324.527 189.715 325.067 190.712 324.373C193.58 322.368 208.929 305.875 209.677 297.794Z" fill="#242424"/>
</g>
<path d="M263.83 104.642L256.001 103.2L217.282 103.624L197.61 107.634L190.106 209.553L277.077 213.324L263.83 104.642Z" fill="#E0E0E0"/>
<path d="M207.508 204.865L205.655 158.509L208.738 104.758C196.505 107.68 179.776 110.926 170.509 120.727C164.501 127.088 158.608 135.223 156.381 148.323C153.821 163.744 150.447 193.238 148.336 209.739" fill="#033649"/>
<path d="M195.208 197.263L255.336 206.323L257.464 171.871L260.788 103.763C278.24 104.426 298.103 117.804 304.061 128.229C308.217 135.462 311.699 143.866 312.788 152.001C314.874 167.422 318.406 193.847 320.516 210.355C321.155 215.373 320.581 220.459 318.836 225.244C317.09 230.03 314.218 234.395 310.427 238.021C301.701 246.372 288.038 249.263 275.755 246.904L184.205 223.001L195.208 197.263Z" fill="#033649"/>
<path d="M201.558 196.646C201.553 196.58 201.539 196.515 201.516 196.453C201.466 196.314 201.408 196.129 201.342 195.898C201.167 195.381 200.934 194.664 200.627 193.747C199.979 191.85 199.056 189.12 197.909 185.743L188.477 158.416L188.352 158.655L198.101 154.916L198.483 154.769L198.142 154.561L195.89 153.189L188.535 148.732L188.618 148.948C192.358 136.904 195.649 126.278 198.017 118.637C199.173 114.843 200.103 111.79 200.76 109.662C201.059 108.621 201.3 107.811 201.475 107.233C201.547 106.981 201.605 106.773 201.649 106.608C201.676 106.539 201.693 106.466 201.699 106.393C201.699 106.393 201.699 106.454 201.616 106.593L201.4 107.218C201.209 107.788 200.943 108.59 200.61 109.623L197.743 118.56L188.211 148.84L188.169 148.979L188.302 149.063L195.649 153.528L197.901 154.893V154.538L188.161 158.293L187.978 158.362L188.036 158.532C191.876 169.473 195.225 178.996 197.619 185.82C198.824 189.197 199.779 191.904 200.452 193.785C200.785 194.695 201.051 195.412 201.234 195.921C201.317 196.145 201.392 196.322 201.441 196.469C201.473 196.532 201.512 196.591 201.558 196.646Z" fill="#263238"/>
<g opacity="0.2">
<path d="M188.261 149.009C188.751 150.682 189.813 152.161 191.286 153.227C192.433 153.836 191.776 154.646 190.829 155.494C189.69 156.512 187.862 156.789 187.023 158.023C186.183 159.257 186.657 160.668 187.089 161.963C191.252 174.253 196.306 186.268 202.214 197.926L188.261 158.47L197.993 154.746L188.261 149.009Z" fill="#242424"/>
</g>
<path d="M260.339 197.602C260.38 197.552 260.414 197.498 260.439 197.44C260.497 197.317 260.58 197.162 260.671 196.962L261.569 195.081C262.35 193.415 263.464 191.017 264.893 188.025L276.104 163.644L276.171 163.505L276.03 163.413L268.342 158.308V158.601L273.437 154.854L275.697 153.204L276.819 152.433L277.093 152.225C277.151 152.187 277.204 152.143 277.251 152.094C277.305 152.029 277.344 151.956 277.368 151.878C277.429 151.648 277.459 151.413 277.459 151.176C277.408 149.451 277.236 147.73 276.944 146.025C276.437 142.687 275.838 139.479 275.282 136.426C274.101 130.326 272.93 124.86 271.957 120.233C270.985 115.607 270.112 111.929 269.522 109.369C269.223 108.104 268.982 107.117 268.816 106.416L268.625 105.645C268.61 105.556 268.582 105.471 268.542 105.39C268.546 105.481 268.56 105.571 268.583 105.66C268.583 105.853 268.675 106.107 268.733 106.431C268.882 107.135 269.09 108.122 269.356 109.392C269.905 111.983 270.686 115.699 271.65 120.279C272.614 124.86 273.744 130.357 274.908 136.472C275.481 139.518 276.071 142.725 276.57 146.056C276.856 147.741 277.025 149.441 277.077 151.145C277.079 151.343 277.054 151.54 277.002 151.731C277.002 151.824 276.761 151.963 276.586 152.101L275.473 152.919L273.221 154.576L268.134 158.316L267.91 158.486L268.143 158.64L275.838 163.729L275.772 163.49L264.627 187.902C263.273 190.917 262.192 193.299 261.444 195.003C261.087 195.813 260.804 196.445 260.613 196.908L260.414 197.401C260.383 197.466 260.358 197.533 260.339 197.602Z" fill="#263238"/>
<path d="M187.639 164.148L248.222 155.477C249.315 155.32 250.338 156.015 250.507 157.03L263.573 235.613C263.742 236.627 262.992 237.576 261.899 237.732L201.316 246.404C200.223 246.56 199.2 245.865 199.031 244.851L185.965 166.268C185.796 165.254 186.546 164.305 187.639 164.148Z" fill="#033649"/>
<g opacity="0.2">
<path d="M187.639 164.148L248.222 155.477C249.315 155.32 250.338 156.016 250.507 157.03L263.573 235.613C263.742 236.627 262.992 237.576 261.899 237.732L201.316 246.404C200.223 246.56 199.2 245.865 199.031 244.851L185.965 166.268C185.796 165.254 186.546 164.305 187.639 164.148Z" fill="#242424"/>
</g>
<path d="M189.552 165.664L246.89 157.457L259.622 234.028L202.284 242.235L189.552 165.664Z" fill="#EBEBEB"/>
<path d="M206.777 164.408C207.184 163.242 207.931 162.205 208.937 161.411C209.942 160.617 211.165 160.098 212.47 159.912L211.988 156.635C211.792 155.448 212.112 154.238 212.877 153.269C213.642 152.301 214.789 151.653 216.068 151.469C217.349 151.285 218.656 151.581 219.701 152.291C220.747 153.001 221.446 154.067 221.645 155.255L222.21 158.648L223.44 158.493C224.73 158.327 226.045 158.494 227.24 158.975C228.435 159.457 229.463 160.235 230.213 161.223L231.169 162.457L206.237 166.035L206.777 164.408ZM217.082 158.424C217.596 158.351 218.075 158.139 218.458 157.813C218.841 157.488 219.112 157.064 219.236 156.596C219.36 156.128 219.331 155.636 219.154 155.183C218.976 154.73 218.658 154.336 218.239 154.051C217.82 153.765 217.319 153.602 216.8 153.581C216.28 153.56 215.766 153.683 215.322 153.933C214.878 154.183 214.524 154.55 214.305 154.987C214.085 155.424 214.011 155.912 214.09 156.388C214.199 157.025 214.574 157.596 215.135 157.978C215.695 158.359 216.395 158.519 217.082 158.424Z" fill="#263238"/>
<path d="M227.462 171.363C230.082 171.194 232.69 170.891 235.274 170.453C237.877 170.145 240.459 169.707 243.011 169.142C240.394 169.31 237.789 169.614 235.208 170.052C232.602 170.359 230.017 170.797 227.462 171.363Z" fill="#263238"/>
<path d="M235.922 172.643C237.193 172.668 238.462 172.554 239.704 172.303C240.968 172.19 242.214 171.944 243.419 171.571C242.149 171.554 240.88 171.668 239.637 171.91C238.373 172.023 237.127 172.269 235.922 172.643Z" fill="#263238"/>
<path d="M200.527 184.656C200.527 184.764 210.251 183.461 222.193 181.757C234.136 180.053 243.801 178.564 243.801 178.456C243.801 178.348 234.086 179.644 222.135 181.356C210.184 183.067 200.511 184.54 200.527 184.656Z" fill="#263238"/>
<path d="M201.167 188.48C201.167 188.588 210.882 187.293 222.833 185.581C234.784 183.869 244.441 182.397 244.441 182.289C244.441 182.181 234.726 183.476 222.775 185.188C210.824 186.9 201.151 188.372 201.167 188.48Z" fill="#263238"/>
<path d="M201.799 192.312C201.799 192.42 211.522 191.117 223.465 189.413C235.407 187.709 245.072 186.221 245.072 186.113C245.072 186.005 235.349 187.301 223.398 189.012C211.447 190.724 201.782 192.197 201.799 192.312Z" fill="#263238"/>
<path d="M202.439 196.137C202.439 196.245 212.154 194.95 224.105 193.238C236.055 191.526 245.712 190.053 245.712 189.938C245.712 189.822 235.997 191.133 224.046 192.844C212.096 194.556 202.389 196.029 202.439 196.137Z" fill="#263238"/>
<path d="M203.079 199.961C203.079 200.077 212.794 198.774 224.744 197.062C236.695 195.35 246.352 193.878 246.352 193.77C246.352 193.662 236.637 194.957 224.686 196.669C212.736 198.381 203.054 199.854 203.079 199.961Z" fill="#263238"/>
<path d="M203.71 203.794C203.71 203.902 213.434 202.606 225.376 200.894C237.319 199.183 246.984 197.71 246.984 197.594C246.984 197.479 237.269 198.782 225.318 200.493C213.367 202.205 203.694 203.686 203.71 203.794Z" fill="#263238"/>
<path d="M225.916 204.148C226.194 204.161 226.473 204.146 226.747 204.102C227.304 204.048 228.094 203.956 229.074 203.832C231.044 203.585 233.753 203.223 236.737 202.799C239.72 202.375 242.421 201.959 244.374 201.642C245.355 201.488 246.136 201.349 246.685 201.249C246.97 201.218 247.25 201.15 247.516 201.049C247.238 201.031 246.958 201.046 246.685 201.095C246.128 201.149 245.338 201.241 244.358 201.365C242.388 201.604 239.679 201.974 236.695 202.398C233.712 202.822 231.011 203.238 229.058 203.555C228.077 203.709 227.296 203.848 226.747 203.948C226.462 203.979 226.182 204.047 225.916 204.148Z" fill="#263238"/>
<path d="M197.062 175.364C198.237 175.398 199.412 175.297 200.561 175.064C201.731 174.965 202.884 174.732 203.993 174.37C201.647 174.438 199.32 174.772 197.062 175.364Z" fill="#263238"/>
<path d="M237.144 211.08C239.042 211.01 240.931 210.806 242.795 210.471C244.682 210.27 246.549 209.935 248.38 209.469C246.482 209.539 244.593 209.743 242.729 210.078C240.843 210.282 238.976 210.617 237.144 211.08Z" fill="#263238"/>
<path d="M237.343 214.612C239.274 214.536 241.197 214.327 243.094 213.987C245.012 213.786 246.91 213.445 248.771 212.969C246.842 213.045 244.923 213.254 243.028 213.594C241.107 213.795 239.207 214.135 237.343 214.612Z" fill="#263238"/>
<path d="M204.467 215.229C206.308 215.234 208.139 214.974 209.893 214.457C208.972 214.39 208.044 214.452 207.143 214.643C206.222 214.702 205.318 214.9 204.467 215.229Z" fill="#263238"/>
<path d="M204.799 218.382C206.64 218.388 208.471 218.128 210.226 217.611C208.385 217.605 206.554 217.865 204.799 218.382Z" fill="#263238"/>
<path d="M243.194 217.511C244.085 217.579 244.982 217.519 245.854 217.334C246.743 217.272 247.616 217.077 248.438 216.755C247.55 216.682 246.655 216.742 245.787 216.933C244.894 216.992 244.018 217.187 243.194 217.511Z" fill="#263238"/>
<path d="M205.214 222.06C205.881 222.161 206.563 222.132 207.217 221.975C207.892 221.944 208.552 221.781 209.154 221.497C208.488 221.387 207.804 221.413 207.151 221.574C206.475 221.606 205.815 221.772 205.214 222.06Z" fill="#263238"/>
<path d="M250.159 224.952C249.832 224.925 249.504 224.925 249.178 224.952L246.419 225.029L236.562 225.391H236.338L236.388 225.592C236.635 226.583 237.246 227.464 238.116 228.082C238.578 228.424 239.116 228.665 239.692 228.786C240.268 228.908 240.865 228.907 241.441 228.784C242.055 228.652 242.625 228.383 243.101 228C243.578 227.617 243.946 227.131 244.175 226.586C244.384 226.001 244.4 225.37 244.219 224.776C244.038 224.183 243.67 223.653 243.161 223.255C242.788 222.942 242.336 222.72 241.848 222.608C241.725 222.578 241.6 222.56 241.474 222.554C241.339 222.538 241.202 222.538 241.067 222.554C240.976 222.567 240.89 222.601 240.816 222.652C240.742 222.703 240.683 222.77 240.643 222.847C240.588 222.979 240.571 223.123 240.593 223.263C240.702 224.126 241.011 224.957 241.499 225.7C241.973 226.41 242.598 227.024 243.335 227.504C244.055 228.004 244.93 228.275 245.829 228.275C246.262 228.247 246.678 228.107 247.03 227.871C247.383 227.636 247.657 227.314 247.823 226.941C248.141 226.263 248.2 225.504 247.989 224.79C247.497 223.601 246.698 222.542 245.662 221.706L245.438 221.497V221.79C245.305 222.854 245.526 223.93 246.07 224.875C246.474 225.588 247.041 226.212 247.732 226.702C248.162 227.011 248.641 227.256 249.153 227.427C249.329 227.492 249.513 227.533 249.701 227.55C249.026 227.322 248.395 226.994 247.832 226.579C247.19 226.082 246.667 225.468 246.294 224.774C245.794 223.861 245.606 222.828 245.754 221.813L245.488 221.891C246.471 222.709 247.226 223.735 247.69 224.882C247.872 225.521 247.813 226.198 247.524 226.802C247.386 227.113 247.157 227.381 246.863 227.577C246.57 227.773 246.223 227.889 245.862 227.913C245.068 227.905 244.298 227.659 243.668 227.211C242.965 226.755 242.375 226.166 241.935 225.483C241.495 224.8 241.216 224.038 241.117 223.248C241.098 223.179 241.098 223.108 241.117 223.039C241.117 223.001 241.117 222.986 241.233 222.97C241.434 222.96 241.636 222.978 241.831 223.024C242.25 223.123 242.638 223.313 242.961 223.579C243.401 223.927 243.72 224.388 243.878 224.904C244.036 225.42 244.027 225.968 243.851 226.478C243.651 226.948 243.334 227.368 242.927 227.704C242.52 228.04 242.034 228.282 241.507 228.411C240.98 228.54 240.429 228.552 239.896 228.447C239.363 228.342 238.865 228.122 238.44 227.805C237.637 227.246 237.069 226.444 236.837 225.538L236.662 225.746L246.435 225.214L249.194 225.044C249.518 225.032 249.84 225.001 250.159 224.952Z" fill="#263238"/>
<path d="M209.087 230.696C209.22 230.871 209.379 231.027 209.561 231.159C209.774 231.328 210.012 231.468 210.267 231.575C210.627 231.723 211.032 231.742 211.406 231.629C211.642 231.562 211.846 231.424 211.988 231.236C212.128 231.033 212.208 230.799 212.22 230.557C212.213 230.065 212.175 229.573 212.104 229.085C211.996 228.036 211.871 226.887 211.738 225.646L211.381 225.777L214.556 229.763L215.345 230.75L215.86 231.398L215.736 230.627C215.395 228.568 215.088 226.648 214.813 224.959L214.506 225.114C215.802 226.127 216.951 227.294 217.921 228.583C218.62 229.516 218.952 230.126 218.994 230.079C218.953 229.925 218.888 229.777 218.802 229.64C218.589 229.24 218.353 228.852 218.096 228.475C217.184 227.124 216.064 225.903 214.772 224.851L214.398 224.551L214.473 225.013C214.722 226.694 215.021 228.622 215.304 230.688L215.694 230.534L214.863 229.547C213.733 228.144 212.661 226.802 211.664 225.576L211.223 225.021L211.306 225.707C211.464 226.949 211.605 228.098 211.738 229.139C211.816 229.611 211.866 230.087 211.888 230.565C211.901 230.751 211.851 230.935 211.743 231.092C211.635 231.249 211.476 231.369 211.29 231.436C211.002 231.508 210.701 231.514 210.411 231.452C210.121 231.39 209.852 231.263 209.627 231.082C209.459 230.94 209.278 230.811 209.087 230.696Z" fill="#263238"/>
<path d="M207.625 228.599C210.337 228.786 213.059 228.84 215.777 228.761C218.495 228.816 221.213 228.739 223.922 228.529C221.212 228.337 218.493 228.281 215.777 228.36C213.057 228.304 210.336 228.384 207.625 228.599Z" fill="#263238"/>
<path d="M204.973 230.997C207.123 231.412 209.3 231.698 211.489 231.853C213.662 232.137 215.852 232.291 218.046 232.315C215.898 231.889 213.721 231.601 211.531 231.452C209.358 231.163 207.168 231.011 204.973 230.997Z" fill="#263238"/>
<g opacity="0.2">
<path d="M277.243 151.608C277.343 153.921 276.669 156.281 274.592 157.584C277.193 158.756 278.581 161.562 278.664 164.246C278.747 166.929 277.742 169.535 276.653 172.026C273.287 179.682 266.107 190.462 260.63 196.985C260.63 196.985 263.406 190.046 264.203 188.419C267.81 181.101 270.993 173.768 274.608 166.428C275.007 165.657 275.722 163.405 275.722 163.405C275.329 163.225 274.965 162.994 274.642 162.719C272.614 161.177 268.218 158.47 268.218 158.47C268.218 158.47 277.243 151.839 277.243 151.608Z" fill="#242424"/>
</g>
<path d="M277.368 167.338C277.251 167.338 277.459 176.243 277.841 187.216C278.224 198.188 278.622 207.086 278.739 207.078C278.855 207.071 278.656 198.18 278.273 187.2C277.891 176.22 277.492 167.33 277.368 167.338Z" fill="#263238"/>
<path d="M263.057 143.951H263.888C263.888 143.658 262.683 114.489 261.744 102.876C261.713 102.061 261.503 101.261 261.127 100.524C260.752 99.7865 260.217 99.1283 259.558 98.5893C256.965 96.5306 253.084 96.8005 252.909 96.8082L252.976 97.5792C253.017 97.5792 256.682 97.3325 259.009 99.1753C259.584 99.6508 260.049 100.229 260.376 100.876C260.703 101.523 260.886 102.224 260.912 102.938C261.827 114.466 263.015 143.627 263.057 143.951Z" fill="#263238"/>
<path d="M255.27 192.744H256.741V191.202H255.27C253.727 191.202 252.247 190.633 251.156 189.621C250.065 188.609 249.452 187.236 249.452 185.805V169.473H247.79V185.805C247.79 187.645 248.578 189.41 249.981 190.712C251.383 192.013 253.286 192.744 255.27 192.744Z" fill="#455A64"/>
<path d="M254.671 192.158C254.706 192.485 254.844 192.794 255.068 193.047C255.292 193.301 255.592 193.487 255.93 193.582C256.268 193.678 256.629 193.678 256.968 193.583C257.306 193.488 257.606 193.302 257.83 193.048C258.055 192.795 258.193 192.486 258.228 192.159C258.262 191.833 258.192 191.504 258.026 191.215C257.859 190.926 257.604 190.689 257.292 190.534C256.981 190.38 256.627 190.314 256.275 190.346C255.804 190.391 255.372 190.607 255.071 190.946C254.771 191.285 254.627 191.721 254.671 192.158Z" fill="#263238"/>
<path d="M269.647 192.706H271.118C273.102 192.706 275.004 191.975 276.407 190.673C277.81 189.372 278.598 187.607 278.598 185.766L278.531 169.435H276.869L276.935 185.766C276.935 187.198 276.322 188.57 275.232 189.583C274.141 190.595 272.661 191.164 271.118 191.164H269.647V192.706Z" fill="#455A64"/>
<path d="M271.708 192.112C271.674 192.436 271.536 192.744 271.314 192.996C271.091 193.249 270.793 193.434 270.457 193.529C270.12 193.624 269.762 193.625 269.425 193.53C269.089 193.436 268.79 193.252 268.566 193C268.342 192.749 268.204 192.442 268.169 192.117C268.133 191.793 268.202 191.466 268.367 191.178C268.531 190.89 268.784 190.653 269.093 190.499C269.402 190.344 269.754 190.277 270.104 190.308C270.337 190.328 270.564 190.391 270.771 190.493C270.978 190.594 271.161 190.733 271.31 190.901C271.459 191.068 271.571 191.262 271.639 191.469C271.708 191.677 271.731 191.896 271.708 192.112Z" fill="#263238"/>
<path d="M279.021 171.316L279.229 159.673C279.387 150.798 272.398 143.481 263.647 143.334C261.515 143.317 259.404 143.715 257.449 144.504C255.495 145.294 253.741 146.455 252.303 147.914C249.245 150.984 247.529 155 247.491 159.18L247.283 170.83L249.776 170.869L249.984 159.218C250.014 155.61 251.496 152.142 254.139 149.495C255.337 148.268 256.801 147.289 258.435 146.625C260.07 145.96 261.837 145.625 263.622 145.64C271.002 145.755 276.919 152.024 276.753 159.627L276.545 171.27L279.021 171.316Z" fill="#263238"/>
<path d="M208.032 144.383C208.032 144.075 211.846 113.764 212.943 104.048L213.018 103.339C213.359 100.039 213.758 96.307 217.689 95.32L217.473 94.549C212.985 95.6747 212.544 99.8693 212.187 103.239L212.112 103.941C211.024 113.656 207.242 143.967 207.209 144.275L208.032 144.383Z" fill="#263238"/>
<path d="M201.308 145.039C197.825 141.808 197.825 136.569 201.308 133.338C204.79 130.107 210.436 130.107 213.919 133.338C217.401 136.569 217.401 141.808 213.919 145.039C210.436 148.27 204.79 148.27 201.308 145.039Z" fill="#263238"/>
<path d="M203.311 139.186C203.311 139.978 203.565 140.752 204.039 141.41C204.513 142.068 205.187 142.581 205.976 142.884C206.764 143.187 207.632 143.265 208.469 143.11C209.306 142.955 210.075 142.573 210.677 142.013C211.28 141.452 211.69 140.739 211.856 139.962C212.021 139.185 211.935 138.38 211.607 137.649C211.279 136.918 210.725 136.294 210.015 135.855C209.304 135.416 208.47 135.183 207.616 135.184C207.05 135.184 206.49 135.288 205.967 135.489C205.444 135.69 204.969 135.985 204.569 136.357C204.169 136.728 203.852 137.17 203.637 137.655C203.421 138.141 203.31 138.661 203.311 139.186Z" fill="#455A64"/>
<path d="M260.339 197.602L271.534 223.147L182.236 246.117C178.153 247.173 173.87 247.374 169.693 246.708C165.517 246.041 161.552 244.523 158.085 242.262C148.744 236.148 146.45 225.453 147.588 214.866L149.201 203.609L260.339 197.602Z" fill="#033649"/>
<path d="M165.731 225.33C165.822 225.33 166.013 223.587 166.936 220.896C167.172 220.161 167.45 219.438 167.767 218.729C168.083 217.958 168.523 217.187 168.963 216.323C169.988 214.538 171.193 212.847 172.562 211.273C173.955 209.719 175.502 208.288 177.183 207.001C178.014 206.438 178.729 205.876 179.485 205.459C180.168 205.022 180.876 204.618 181.604 204.249C184.263 202.884 186.083 202.359 186.05 202.275C185.615 202.357 185.189 202.479 184.779 202.637C184.282 202.786 183.797 202.964 183.324 203.169C182.767 203.408 182.119 203.647 181.454 204.002C180.708 204.357 179.984 204.75 179.285 205.182C178.512 205.613 177.748 206.176 176.933 206.724C175.215 208.012 173.637 209.453 172.221 211.026C170.838 212.622 169.63 214.343 168.614 216.162C168.174 217.017 167.742 217.819 167.434 218.614C167.112 219.333 166.834 220.07 166.603 220.819C166.394 221.431 166.225 222.054 166.096 222.685C165.964 223.163 165.873 223.65 165.822 224.142C165.753 224.535 165.722 224.932 165.731 225.33Z" fill="#263238"/>
<g opacity="0.2">
<path d="M273.528 208.474C280.343 208.998 285.603 209.577 292.643 210.379C297.039 210.88 301.601 210.594 303.039 206.716C304.477 202.838 303.563 198.396 301.203 194.919C298.842 191.441 295.136 183.353 275.29 189.521L273.528 208.474Z" fill="#242424"/>
</g>
<path d="M264.336 207.356L264.287 207.186L264.095 206.677L263.347 204.734L260.48 197.556L260.439 197.456H260.331L229.955 200.008L200.569 202.599L191.668 203.424L189.25 203.67L188.626 203.747C188.553 203.749 188.48 203.762 188.41 203.786H188.626H189.258L191.685 203.616L200.602 202.907L229.997 200.44L260.356 197.764L260.206 197.671L263.198 204.811L264.029 206.724L264.253 207.217C264.295 207.31 264.328 207.364 264.336 207.356Z" fill="#263238"/>
<g opacity="0.2">
<path d="M227.595 233.703C214.913 236.857 207.201 235.03 195.682 229.185C193.323 227.901 191.057 226.474 188.901 224.913C187.258 223.667 185.797 222.229 184.554 220.634C199.389 225.9 211.713 229.887 227.005 233.85" fill="#242424"/>
</g>
<path d="M264.295 207.078L261.395 199.56L268.134 189.783C268.718 188.936 269.482 188.208 270.379 187.645C271.277 187.081 272.289 186.694 273.354 186.506L298.153 182.165C298.461 183.027 298.418 183.963 298.032 184.797C297.646 185.632 296.944 186.305 296.058 186.691C292.809 188.411 278.19 191.564 278.19 191.564L300.704 191.21C300.704 191.21 301.402 194.225 298.851 195.304C296.299 196.384 280.26 196.931 280.26 196.931L300.795 199.614C300.795 199.614 300.912 202.637 296.216 202.699C291.592 202.648 286.973 202.377 282.379 201.889C282.189 201.864 281.996 201.909 281.841 202.014C281.685 202.12 281.581 202.276 281.548 202.452C281.52 202.622 281.561 202.795 281.664 202.938C281.768 203.081 281.925 203.183 282.105 203.223L295.759 206.215C296.152 206.297 296.506 206.498 296.763 206.785C297.021 207.073 297.169 207.432 297.184 207.806C297.199 208.18 297.081 208.548 296.847 208.853C296.613 209.158 296.278 209.382 295.892 209.492C295.645 209.547 295.389 209.563 295.136 209.538C292.809 209.322 278.913 207.688 278.913 207.688L278.19 209.191L264.295 207.094" fill="#B78876"/>
<path d="M274.492 204.757C274.681 204.342 274.939 203.957 275.257 203.616C275.624 203.268 276.074 203.004 276.57 202.845C277.183 202.671 277.826 202.606 278.465 202.652C279.844 202.745 281.091 203.115 282.022 203.223C282.524 203.336 283.048 203.336 283.551 203.223C283.067 203.096 282.576 202.996 282.08 202.922C280.905 202.6 279.705 202.368 278.49 202.228C277.792 202.178 277.09 202.262 276.428 202.475C275.89 202.669 275.411 202.981 275.032 203.385C274.833 203.559 274.681 203.773 274.587 204.012C274.493 204.25 274.461 204.505 274.492 204.757Z" fill="#AA6550"/>
<path d="M272.248 199.028C272.29 199.028 272.315 198.82 272.498 198.489C272.767 198.029 273.178 197.653 273.678 197.409C274.933 196.731 277.052 196.954 279.279 197.093C281.506 197.232 283.551 197.54 285.022 197.718C285.811 197.856 286.612 197.931 287.415 197.941C286.654 197.702 285.869 197.535 285.072 197.44C283.17 197.094 281.25 196.836 279.321 196.669C278.254 196.579 277.183 196.54 276.113 196.553C275.21 196.533 274.319 196.735 273.528 197.139C272.993 197.426 272.578 197.872 272.348 198.404C272.244 198.597 272.209 198.816 272.248 199.028Z" fill="#AA6550"/>
<path d="M270.536 195.697C270.555 195.086 270.735 194.488 271.06 193.955C271.43 193.397 271.944 192.933 272.556 192.605C273.331 192.229 274.178 191.999 275.049 191.927C276.91 191.765 278.656 191.927 279.927 191.834C280.618 191.834 281.299 191.68 281.913 191.387C281.913 191.326 281.149 191.534 279.911 191.557C278.672 191.58 276.952 191.364 274.999 191.557C274.07 191.628 273.17 191.892 272.365 192.328C271.703 192.702 271.163 193.235 270.802 193.87C270.551 194.29 270.422 194.763 270.428 195.243C270.445 195.528 270.536 195.697 270.536 195.697Z" fill="#AA6550"/>
<path d="M190.031 195.674C190.029 195.255 189.987 194.837 189.906 194.425C189.798 193.654 189.59 192.467 189.3 191.048C188.726 188.21 187.712 184.332 186.64 180.052C185.692 176.408 184.968 172.716 184.471 168.995C184.371 168.278 184.33 167.631 184.272 167.06C184.213 166.489 184.18 166.004 184.164 165.595C184.168 165.176 184.129 164.758 184.047 164.346C183.994 164.763 183.977 165.183 183.997 165.603C183.997 166.004 183.997 166.505 183.997 167.075C183.997 167.646 184.047 168.301 184.139 169.019C184.543 172.767 185.226 176.484 186.183 180.145C187.263 184.432 188.319 188.287 188.967 191.11C189.291 192.513 189.549 193.662 189.707 194.448C189.779 194.864 189.887 195.274 190.031 195.674Z" fill="#263238"/>
<path d="M181.413 246.256C181.579 246.254 181.745 246.228 181.903 246.179L183.283 245.894L188.336 244.737C192.599 243.743 198.475 242.301 204.957 240.635C211.439 238.97 217.248 237.374 221.445 236.178L226.432 234.744L227.778 234.328C227.909 234.287 228.034 234.232 228.152 234.166C227.987 234.176 227.825 234.207 227.67 234.258L226.299 234.598L221.312 235.916L204.791 240.257L188.261 244.467L183.274 245.74L181.911 246.102C181.74 246.137 181.573 246.189 181.413 246.256Z" fill="#263238"/>
<path d="M266.963 22.6084C265.134 17.3728 255.768 12.6462 250.632 9.9012C242.945 5.80684 235.823 6.62417 231.435 10.2713C223.506 4.10278 213.06 -1.83443 203.045 0.594426C193.031 3.02329 184.895 12.5382 186.723 21.9992C187.795 27.574 191.959 32.5706 191.71 38.1916C191.543 42.047 189.341 45.5322 187.554 49.0328C185.768 52.5335 184.454 56.6047 186.017 60.1825C187.471 63.5057 191.103 65.5799 193.056 68.6642C194.652 71.1933 195.017 74.2004 196.04 76.9686C199.813 87.2238 212.86 92.9759 224.379 91.1716C235.897 89.3673 245.496 81.3251 250.973 71.733C256.45 62.141 258.211 51.1301 258.843 40.3121" fill="#263238"/>
<path d="M258.477 29.8333L256.175 115.345C255.344 125.145 245.613 132.308 234.31 131.398C222.9 130.488 214.182 121.721 214.838 111.805C215.528 101.404 216.043 90.4314 216.043 90.4314C216.043 90.4314 201.757 87.3471 199.979 69.6743C199.073 60.622 200.652 45.7712 202.306 34.0048C202.63 31.6589 203.462 29.3981 204.753 27.3585C206.043 25.3189 207.765 23.5426 209.815 22.1365C211.865 20.7304 214.2 19.7235 216.68 19.1765C219.16 18.6295 221.733 18.5537 224.246 18.9535" fill="#B78876"/>
<path d="M206.544 46.6426C206.496 47.2261 206.695 47.8042 207.101 48.2525C207.507 48.7009 208.085 48.9838 208.713 49.0406C209.019 49.0828 209.331 49.0678 209.63 48.9962C209.929 48.9247 210.21 48.7982 210.456 48.6242C210.701 48.4503 210.907 48.2323 211.06 47.9833C211.213 47.7343 211.311 47.4593 211.348 47.1746C211.394 46.5906 211.194 46.0128 210.789 45.5637C210.384 45.1145 209.806 44.8294 209.179 44.7689C208.873 44.7278 208.561 44.7439 208.261 44.8163C207.962 44.8887 207.681 45.016 207.436 45.1906C207.19 45.3652 206.985 45.5836 206.832 45.833C206.679 46.0823 206.581 46.3576 206.544 46.6426Z" fill="#263238"/>
<path d="M204.142 44.3602C204.425 44.6686 206.345 43.5198 208.946 43.6817C211.547 43.8436 213.367 45.1621 213.666 44.8845C213.816 44.7612 213.55 44.2214 212.761 43.6046C211.684 42.812 210.368 42.3487 208.996 42.2783C207.645 42.1958 206.302 42.5116 205.156 43.1805C204.317 43.7125 204.009 44.2137 204.142 44.3602Z" fill="#263238"/>
<path d="M231.476 49.0637C231.425 49.6486 231.624 50.2286 232.03 50.6786C232.436 51.1287 233.016 51.4127 233.645 51.4695C233.951 51.5106 234.263 51.4945 234.563 51.422C234.862 51.3496 235.143 51.2223 235.388 51.0477C235.634 50.8731 235.839 50.6547 235.992 50.4054C236.145 50.156 236.243 49.8807 236.28 49.5958C236.326 49.0118 236.126 48.434 235.721 47.9848C235.316 47.5357 234.738 47.2506 234.111 47.1901C233.805 47.1489 233.493 47.1651 233.193 47.2375C232.894 47.3099 232.613 47.4372 232.368 47.6118C232.122 47.7864 231.917 48.0048 231.764 48.2542C231.611 48.5035 231.513 48.7788 231.476 49.0637Z" fill="#263238"/>
<path d="M229.681 46.3419C229.964 46.6503 231.883 45.5014 234.485 45.6633C237.086 45.8253 238.906 47.1438 239.205 46.8662C239.355 46.7428 239.089 46.2031 238.291 45.5862C237.216 44.7952 235.904 44.3319 234.535 44.26C233.184 44.1775 231.84 44.4932 230.695 45.1621C229.814 45.6865 229.548 46.1954 229.681 46.3419Z" fill="#263238"/>
<path d="M219.01 63.6677C219.01 63.5366 217.44 63.1819 214.855 62.7116C214.198 62.6114 213.575 62.4494 213.492 62.0176C213.48 61.3784 213.681 60.7513 214.065 60.2211C214.788 58.7637 215.553 57.2447 216.351 55.6486C219.542 49.1254 221.902 43.7511 221.62 43.6354C221.337 43.5198 218.52 48.709 215.32 55.2014C214.556 56.8052 213.816 58.3396 213.118 59.8278C212.643 60.5445 212.46 61.395 212.603 62.2258C212.684 62.4488 212.819 62.6516 212.998 62.8186C213.176 62.9857 213.394 63.1126 213.633 63.1897C213.992 63.306 214.367 63.3761 214.747 63.3978C217.348 63.6986 219.01 63.8065 219.01 63.6677Z" fill="#263238"/>
<path d="M216.035 90.4006C224.902 91.0583 233.792 89.4193 241.715 85.6662C241.715 85.6662 234.576 97.4404 215.827 94.6723L216.035 90.4006Z" fill="#AA6550"/>
<path d="M229.664 36.8423C229.881 37.5131 232.498 37.3589 235.523 37.8833C238.549 38.4076 240.967 39.3251 241.416 38.7623C241.615 38.4924 241.225 37.8447 240.277 37.1507C239.011 36.2816 237.542 35.703 235.989 35.4621C234.437 35.1968 232.84 35.2734 231.327 35.6857C230.18 36.0404 229.581 36.5262 229.664 36.8423Z" fill="#263238"/>
<path d="M205.588 37.4283C206.004 38.0066 207.841 37.544 209.993 37.6442C212.146 37.7444 213.949 38.2533 214.406 37.7059C214.614 37.436 214.406 36.8731 213.575 36.3025C212.547 35.6168 211.323 35.2302 210.058 35.1917C208.792 35.1533 207.543 35.4648 206.469 36.0867C205.713 36.6033 205.406 37.1507 205.588 37.4283Z" fill="#263238"/>
<path d="M223.033 68.2093C220.996 68.2093 219.983 68.7645 218.254 69.7515C217.733 70.006 217.305 70.3976 217.024 70.8772C216.891 71.2218 216.845 71.5901 216.89 71.9537C216.934 72.3173 217.068 72.6666 217.282 72.9745C217.707 73.6748 218.338 74.2478 219.102 74.6262C219.867 75.0046 220.731 75.1726 221.595 75.1104C222.456 75.0265 223.267 74.6953 223.915 74.1631C224.563 73.6309 225.016 72.9243 225.21 72.1418C225.371 71.3528 225.244 70.5366 224.85 69.8218C224.456 69.107 223.816 68.5343 223.033 68.1939" fill="#AA6550"/>
<path d="M216.126 72.242C216.126 72.427 216.775 72.7046 217.913 72.6429C219.353 72.519 220.744 72.0974 221.985 71.4092C223.237 70.7628 224.346 69.902 225.252 68.8724C225.925 68.1013 226.132 67.4228 225.958 67.3303C225.617 67.1221 223.905 68.7876 221.213 70.1601C220.099 70.7564 218.928 71.2546 217.714 71.6482C216.783 71.9412 216.151 72.0415 216.126 72.242Z" fill="#263238"/>
<path d="M228.966 57.1908C228.585 57.1908 228.277 56.9042 228.277 56.5508C228.277 56.1973 228.585 55.9108 228.966 55.9108C229.347 55.9108 229.656 56.1973 229.656 56.5508C229.656 56.9042 229.347 57.1908 228.966 57.1908Z" fill="#AA6550"/>
<path d="M208.747 53.4125C208.747 53.5391 208.787 53.6628 208.863 53.7681C208.939 53.8733 209.046 53.9554 209.172 54.0038C209.298 54.0522 209.437 54.0649 209.571 54.0402C209.705 54.0155 209.828 53.9546 209.924 53.8651C210.021 53.7756 210.086 53.6615 210.113 53.5374C210.139 53.4133 210.126 53.2846 210.074 53.1676C210.021 53.0507 209.933 52.9507 209.82 52.8804C209.706 52.8101 209.573 52.7726 209.436 52.7726C209.253 52.7726 209.078 52.84 208.949 52.96C208.819 53.08 208.747 53.2428 208.747 53.4125Z" fill="#AA6550"/>
<path d="M204.932 55.078C204.921 55.1685 204.931 55.26 204.961 55.3467C204.991 55.4333 205.041 55.5131 205.106 55.5809C205.172 55.6487 205.252 55.7029 205.341 55.74C205.431 55.7771 205.528 55.7963 205.626 55.7963C205.724 55.7963 205.821 55.7771 205.911 55.74C206 55.7029 206.08 55.6487 206.146 55.5809C206.211 55.5131 206.261 55.4333 206.291 55.3467C206.321 55.26 206.331 55.1685 206.32 55.078C206.301 54.9194 206.22 54.7728 206.092 54.6663C205.964 54.5598 205.798 54.5009 205.626 54.5009C205.454 54.5009 205.288 54.5598 205.16 54.6663C205.032 54.7728 204.951 54.9194 204.932 55.078Z" fill="#AA6550"/>
<path d="M203.777 52.4024C203.777 52.529 203.817 52.6527 203.893 52.758C203.969 52.8632 204.077 52.9452 204.203 52.9937C204.329 53.0421 204.467 53.0548 204.601 53.0301C204.735 53.0054 204.858 52.9445 204.954 52.855C205.051 52.7655 205.116 52.6514 205.143 52.5273C205.17 52.4031 205.156 52.2744 205.104 52.1575C205.052 52.0406 204.963 51.9406 204.85 51.8703C204.736 51.8 204.603 51.7624 204.467 51.7624C204.284 51.7624 204.108 51.8299 203.979 51.9499C203.849 52.0699 203.777 52.2327 203.777 52.4024Z" fill="#AA6550"/>
<path d="M231.435 59.3806C231.433 59.509 231.473 59.635 231.548 59.7425C231.624 59.85 231.732 59.9342 231.86 59.9844C231.987 60.0346 232.128 60.0486 232.264 60.0244C232.4 60.0003 232.525 59.9393 232.623 59.849C232.722 59.7587 232.789 59.6433 232.817 59.5175C232.844 59.3916 232.831 59.261 232.778 59.1422C232.726 59.0234 232.636 58.9218 232.521 58.8503C232.406 58.7788 232.271 58.7406 232.133 58.7406C231.949 58.7406 231.773 58.8077 231.642 58.9275C231.511 59.0473 231.437 59.2101 231.435 59.3806Z" fill="#AA6550"/>
<path d="M234.028 56.8207C234.028 56.9472 234.068 57.071 234.144 57.1762C234.22 57.2815 234.327 57.3635 234.453 57.4119C234.579 57.4604 234.718 57.473 234.852 57.4484C234.986 57.4237 235.109 57.3627 235.205 57.2732C235.302 57.1837 235.367 57.0697 235.394 56.9455C235.42 56.8214 235.407 56.6927 235.355 56.5758C235.302 56.4588 235.214 56.3589 235.101 56.2885C234.987 56.2182 234.854 56.1807 234.717 56.1807C234.534 56.1807 234.359 56.2481 234.23 56.3681C234.1 56.4881 234.028 56.6509 234.028 56.8207Z" fill="#AA6550"/>
<path d="M222.725 49.0637C222.802 48.1546 222.955 47.2523 223.182 46.365C223.866 43.9535 225.406 41.8263 227.554 40.3275C229.02 39.2942 230.728 38.5968 232.54 38.2919C234.616 37.9394 236.756 38.1071 238.74 38.7777C239.808 39.1316 240.812 39.6361 241.715 40.2736C242.671 40.9189 243.513 41.6994 244.208 42.5868C245.693 44.4611 246.493 46.7262 246.493 49.0522C246.493 51.3781 245.693 53.6433 244.208 55.5176C242.831 57.2714 240.93 58.6119 238.74 59.3729C236.756 60.0435 234.616 60.2112 232.54 59.8587C230.728 59.5538 229.02 58.8564 227.554 57.823C225.408 56.3254 223.868 54.2015 223.182 51.7933C222.956 50.9058 222.803 50.0036 222.725 49.0946C222.713 49.1531 222.713 49.2134 222.725 49.2719V49.804C222.725 50.0932 222.75 50.382 222.8 50.6675C222.842 51.0579 222.917 51.4446 223.024 51.8241C223.286 52.8827 223.724 53.8971 224.321 54.8313C225.748 57.0978 227.986 58.8283 230.647 59.7215C233.307 60.6147 236.221 60.6141 238.881 59.7199C239.99 59.3538 241.032 58.8339 241.973 58.1777C242.968 57.5128 243.84 56.703 244.557 55.7797C246.106 53.8426 246.941 51.4947 246.941 49.083C246.941 46.6713 246.106 44.3235 244.557 42.3863C243.84 41.463 242.968 40.6532 241.973 39.9883C241.032 39.3321 239.99 38.8122 238.881 38.4461C236.831 37.7636 234.621 37.6039 232.482 37.9835C230.79 38.2876 229.188 38.922 227.781 39.8446C226.374 40.7672 225.194 41.9569 224.321 43.3347C223.725 44.2695 223.288 45.2838 223.024 46.3419C222.916 46.7239 222.841 47.1132 222.8 47.5062C222.75 47.7891 222.725 48.0754 222.725 48.3621V48.8941C222.714 48.9502 222.714 49.0076 222.725 49.0637Z" fill="white"/>
<path d="M217.514 45.6941C218.439 45.458 219.398 45.354 220.356 45.3857C221.302 45.5444 222.217 45.8302 223.074 46.2339C223.074 46.2339 222.9 45.9409 222.434 45.6479C221.824 45.2822 221.129 45.0551 220.406 44.9847C219.679 44.9083 218.943 44.9984 218.262 45.2469C217.747 45.4397 217.489 45.6479 217.514 45.6941Z" fill="white"/>
<path d="M225.11 16.4553C226.772 30.3885 237.942 42.9337 252.352 47.1592C247.707 53.374 250.632 65.2021 250.516 75.0718C250.399 84.2475 250.408 86.8691 256.815 91.5495C262.109 92.7292 265.126 79.2741 269.098 75.5113C273.071 71.7485 276.802 67.1144 276.512 61.8866C276.37 59.4346 275.34 57.0905 275.198 54.6462C275.032 51.9321 275.971 49.2488 276.487 46.604C278.78 34.7681 272.198 22.0378 261.054 15.8462C249.909 9.65451 235.108 10.0709 224.08 16.4013" fill="#263238"/>
<path d="M256.915 73.7379C258.296 69.237 260.671 65.0515 263.888 61.4471L263.647 61.9251C264.641 59.8224 266.137 57.957 268.023 56.4701C269.908 54.9832 272.134 53.9139 274.531 53.343C276.928 52.7721 279.433 52.7147 281.858 53.175C284.282 53.6354 286.562 54.6014 288.525 56.0001C290.487 57.3987 292.081 59.1933 293.186 61.2479C294.29 63.3025 294.877 65.5634 294.9 67.8593C294.924 70.1553 294.384 72.4261 293.322 74.4999C292.26 76.5737 290.703 78.3962 288.77 79.8293C290.64 79.4438 292.535 80.9396 292.925 82.6745C293.07 83.5571 293.02 84.4578 292.779 85.3219C292.538 86.1861 292.109 86.9958 291.521 87.7019C287.623 92.9914 278.789 94.387 273.237 90.5934C268.833 93.3615 262.325 91.75 259.059 87.8561C255.793 83.9622 255.411 78.4722 256.915 73.7379Z" fill="#263238"/>
<path d="M274.758 53.3277C274.931 53.1764 275.09 53.0113 275.232 52.8342C275.619 52.318 275.9 51.7405 276.063 51.1302C276.57 49.534 276.329 47.0127 274.966 44.3448C274.225 42.8841 273.206 41.5597 271.957 40.4355C270.59 39.1012 269.075 37.9045 267.436 36.8654C265.624 35.707 263.646 34.7883 261.561 34.1359C259.408 33.4496 257.123 32.9176 254.796 32.3778C252.469 31.8381 250.192 31.306 248.064 30.6121C246.013 29.9563 244.021 29.1519 242.106 28.2063C238.866 26.6059 235.854 24.6374 233.138 22.3462C231.308 20.7938 229.618 19.1046 228.085 17.2958C227.537 16.6558 227.138 16.1392 226.864 15.7536C226.734 15.5718 226.587 15.4014 226.423 15.2447C226.531 15.4374 226.653 15.6229 226.789 15.7999C227.047 16.1623 227.421 16.6943 227.953 17.342C229.443 19.2004 231.112 20.9295 232.939 22.5082C235.657 24.8484 238.684 26.8589 241.948 28.4916C243.878 29.4515 245.887 30.2687 247.956 30.9359C250.109 31.6376 252.394 32.1773 254.721 32.7248C257.048 33.2723 259.325 33.7889 261.461 34.4597C263.522 35.0958 265.479 35.9909 267.279 37.1199C268.897 38.1439 270.401 39.3167 271.766 40.6205C272.983 41.7355 273.973 43.0439 274.692 44.4836C276.063 47.0821 276.354 49.5418 275.897 51.107C275.685 51.9117 275.297 52.6676 274.758 53.3277Z" fill="#455A64"/>
<path d="M226.44 15.2833C226.559 15.4379 226.69 15.5848 226.831 15.7228C227.096 16.0081 227.504 16.409 228.027 16.9257C229.535 18.3649 231.136 19.7168 232.823 20.9738C235.316 22.8759 238.093 24.4341 241.067 25.6002C242.852 26.2123 244.694 26.6742 246.568 26.9804C248.505 27.3428 250.524 27.6204 252.585 27.9134C256.468 28.344 260.303 29.0896 264.046 30.1417C267.082 31.0613 269.903 32.5084 272.356 34.4057C274.006 35.689 275.367 37.261 276.362 39.0321C276.621 39.5187 276.851 40.0181 277.052 40.528C277.111 40.7107 277.191 40.8866 277.293 41.0523C277.254 40.8667 277.201 40.6837 277.135 40.5049C276.969 39.9771 276.761 39.4616 276.512 38.9627C275.561 37.1385 274.214 35.5162 272.556 34.1976C270.1 32.2425 267.258 30.7497 264.187 29.8025C260.43 28.7134 256.575 27.9392 252.668 27.4893C250.599 27.204 248.588 26.9187 246.668 26.5717C244.815 26.2739 242.993 25.825 241.225 25.2301C238.28 24.0947 235.522 22.5815 233.03 20.7347C231.33 19.5081 229.701 18.198 228.152 16.81L226.897 15.6688C226.759 15.5264 226.606 15.3972 226.44 15.2833Z" fill="#455A64"/>
<path d="M205.339 0.0315931C205.339 0.11641 206.96 0.170385 209.494 0.80266C210.182 0.968649 210.859 1.16943 211.522 1.40409C212.245 1.6277 212.977 1.95926 213.766 2.28311C217.127 3.78905 220.085 5.96987 222.426 8.66754C222.941 9.30753 223.456 9.89354 223.855 10.5027C224.253 11.0457 224.616 11.6095 224.944 12.1913C226.166 14.3195 226.606 15.7845 226.673 15.7536C226.617 15.4061 226.523 15.0649 226.39 14.7358C226.27 14.3358 226.12 13.9442 225.941 13.5638C225.73 13.0368 225.486 12.5219 225.21 12.0217C224.9 11.4199 224.547 10.8378 224.154 10.2791C223.764 9.66222 223.257 9.05307 222.742 8.39767C221.553 7.0304 220.213 5.78219 218.744 4.67341C217.251 3.59715 215.638 2.67178 213.932 1.913C213.186 1.58746 212.42 1.3017 211.639 1.05711C210.402 0.654664 209.128 0.360378 207.832 0.178098C207.394 0.0991704 206.949 0.050203 206.503 0.0315931C206.116 -0.010531 205.726 -0.010531 205.339 0.0315931Z" fill="#455A64"/>
<path d="M191.951 66.6054C191.951 66.6054 191.951 66.5515 191.826 66.4512L191.435 66.0271C191.086 65.6493 190.563 65.1019 189.973 64.3385C189.23 63.4389 188.667 62.423 188.311 61.3391C188.108 60.6647 188.049 59.9602 188.136 59.2649C188.254 58.4886 188.536 57.7417 188.967 57.0673C189.865 55.6255 191.336 54.3686 192.682 52.8111C195.709 49.2964 197.654 45.0862 198.308 40.6282C198.576 38.1303 198.643 35.6174 198.508 33.1103C198.374 30.6254 198.623 28.1354 199.247 25.7158C199.912 23.6056 201.061 21.654 202.616 19.9954C204.171 18.3368 206.096 17.0107 208.256 16.1083C210.048 15.3632 211.979 14.9494 213.941 14.89C217.592 14.7532 221.191 15.737 224.179 17.689L224.678 18.0128C224.786 18.0822 224.844 18.1208 224.853 18.1131C224.076 17.4485 223.206 16.8832 222.268 16.4321C219.717 15.1618 216.852 14.5318 213.957 14.6047C211.953 14.6505 209.978 15.0563 208.14 15.7999C205.917 16.7107 203.935 18.0611 202.333 19.7565C200.731 21.452 199.548 23.4516 198.865 25.6155C198.229 28.0702 197.975 30.5965 198.109 33.118C198.243 35.607 198.179 38.1017 197.918 40.5819C197.286 44.9759 195.385 49.1294 192.416 52.6029C191.103 54.145 189.624 55.425 188.71 56.9286C188.267 57.6395 187.984 58.4265 187.879 59.2418C187.796 59.9701 187.869 60.7065 188.095 61.4084C188.477 62.5116 189.077 63.5392 189.865 64.4387C190.34 65.0154 190.851 65.5663 191.394 66.0888L191.826 66.4898C191.862 66.5329 191.904 66.5718 191.951 66.6054Z" fill="#455A64"/>
<path d="M193.879 46.3418C193.957 45.4327 194.109 44.5305 194.336 43.6431C195.019 41.2316 196.559 39.1044 198.707 37.6056C200.286 36.5041 202.136 35.7861 204.089 35.5167C206.043 35.2474 208.038 35.4354 209.893 36.0635C212.083 36.8245 213.985 38.165 215.362 39.9188C216.847 41.7915 217.648 44.0555 217.648 46.3804C217.648 48.7053 216.847 50.9693 215.362 52.8419C214.67 53.7324 213.828 54.5135 212.869 55.1551C211.963 55.7874 210.96 56.2891 209.893 56.6433C208.339 57.1673 206.683 57.3845 205.033 57.281C203.383 57.1774 201.774 56.7555 200.31 56.042C198.846 55.3286 197.558 54.3394 196.529 53.1378C195.5 51.9362 194.753 50.5485 194.336 49.0637C194.109 48.1763 193.957 47.274 193.879 46.3649C193.866 46.4261 193.866 46.4889 193.879 46.55C193.879 46.6888 193.879 46.8661 193.879 47.0743C193.879 47.3636 193.904 47.6524 193.954 47.9379C193.996 48.3307 194.071 48.72 194.178 49.1022C194.441 50.1603 194.879 51.1746 195.474 52.1094C196.26 53.3521 197.296 54.4435 198.524 55.3247C200.137 56.4785 202.037 57.2361 204.049 57.5272C206.061 57.8184 208.12 57.6337 210.035 56.9902C211.145 56.6282 212.188 56.108 213.126 55.4481C214.119 54.7778 214.992 53.9658 215.711 53.0424C217.26 51.1069 218.096 48.7602 218.096 46.3495C218.096 43.9388 217.26 41.5921 215.711 39.6567C214.994 38.7334 214.121 37.9236 213.126 37.2586C212.186 36.6025 211.143 36.0825 210.035 35.7165C207.985 35.0318 205.775 34.8694 203.635 35.2462C201.939 35.5537 200.333 36.1944 198.925 37.1254C197.518 38.0563 196.341 39.2559 195.474 40.6436C194.878 41.5752 194.44 42.587 194.178 43.6431C194.071 44.0254 193.996 44.4146 193.954 44.8074C193.904 45.0929 193.879 45.3817 193.879 45.671C193.879 45.8792 193.879 46.0565 193.879 46.203C193.871 46.249 193.871 46.2958 193.879 46.3418Z" fill="white"/>
<path d="M256.932 91.8348C257.079 91.7671 257.216 91.6815 257.339 91.5803C257.597 91.403 257.962 91.1331 258.444 90.8092C259.788 89.8108 261.049 88.7206 262.217 87.5476C264.02 85.8168 265.254 83.6449 265.774 81.2866C265.947 79.8944 266.013 78.4928 265.974 77.092C265.945 75.6244 266.397 74.1833 267.27 72.959C268.248 71.7832 269.335 70.6892 270.52 69.6897C271.618 68.7031 272.523 67.5474 273.196 66.2739C273.791 65.1215 274.227 63.9038 274.492 62.6499C274.742 61.5631 274.857 60.4531 274.833 59.342C274.833 58.3165 274.575 57.4221 274.475 56.6356C274.378 55.9634 274.361 55.2833 274.426 54.6077C274.567 53.4973 274.8 52.9036 274.758 52.8882C274.682 53.0233 274.62 53.1654 274.575 53.3123C274.437 53.7286 274.331 54.1538 274.259 54.5845C274.17 55.2734 274.17 55.9698 274.259 56.6587C274.334 57.4298 274.534 58.355 274.559 59.3497C274.546 61.6896 273.979 63.9983 272.896 66.112C272.235 67.3437 271.349 68.4601 270.279 69.4121C269.064 70.4214 267.952 71.5312 266.954 72.7277C266.472 73.3718 266.114 74.0895 265.899 74.8482C265.708 75.5782 265.605 76.3255 265.591 77.0765C265.633 78.4614 265.574 79.8472 265.417 81.2249C264.935 83.5345 263.763 85.6719 262.034 87.3934C260.893 88.5751 259.669 89.6853 258.369 90.7167L257.239 91.5186C257.126 91.6144 257.023 91.7203 256.932 91.8348Z" fill="#455A64"/>
<path d="M266.381 73.8766C266.366 73.9816 266.366 74.0878 266.381 74.1928C266.381 74.401 266.381 74.7017 266.447 75.0949C266.588 76.2032 266.867 77.2926 267.278 78.3411C268.592 81.8604 271.199 84.8382 274.643 86.7516C278.086 88.665 282.147 89.3918 286.11 88.8045C287.298 88.6381 288.46 88.3457 289.576 87.9332C289.975 87.7944 290.266 87.6402 290.465 87.5554C290.665 87.4706 290.764 87.4089 290.756 87.3934C289.238 87.9136 287.668 88.2932 286.069 88.5269C284.331 88.735 282.57 88.7065 280.841 88.4421C276.56 87.8335 272.706 85.694 270.104 82.4818C269.038 81.1933 268.182 79.7671 267.561 78.2486C267.019 76.8293 266.624 75.3654 266.381 73.8766Z" fill="#455A64"/>
<path d="M269.58 70.2526C269.615 70.6124 269.696 70.967 269.821 71.309C270.116 72.2543 270.509 73.171 270.993 74.0462C272.611 76.9524 275.061 79.3884 278.074 81.0861C281.094 82.7648 284.527 83.6991 288.047 83.8002C289.105 83.8303 290.164 83.7787 291.213 83.646C291.6 83.6135 291.982 83.5411 292.352 83.4301C290.922 83.5255 289.488 83.5538 288.055 83.5149C284.606 83.3381 281.254 82.3854 278.29 80.7391C275.342 79.0724 272.918 76.7166 271.259 73.9075C270.614 72.7246 270.053 71.5037 269.58 70.2526Z" fill="#455A64"/>
<path d="M293.889 62.5728C293.661 62.4077 293.409 62.2728 293.141 62.1718C292.844 62.0232 292.536 61.8943 292.219 61.7863C291.804 61.625 291.379 61.486 290.947 61.3699C289.828 61.0582 288.678 60.8516 287.515 60.7531C286.089 60.6377 284.655 60.6635 283.235 60.8302C281.817 61.0158 280.425 61.3388 279.08 61.794C277.987 62.1831 276.94 62.674 275.955 63.259C275.576 63.4799 275.213 63.7219 274.866 63.9838C274.591 64.1668 274.332 64.3706 274.093 64.593C273.872 64.7655 273.674 64.9622 273.503 65.179C273.561 65.2407 274.434 64.4079 276.121 63.4981C277.107 62.9588 278.145 62.5046 279.221 62.141C280.545 61.7208 281.908 61.4162 283.293 61.2311C284.671 61.0705 286.062 61.0318 287.448 61.1155C288.591 61.1979 289.723 61.3759 290.831 61.6475C292.759 62.1102 293.806 62.6422 293.889 62.5728Z" fill="#455A64"/>
<path d="M274.758 61.1463C274.833 61.2311 280.077 57.0982 286.459 51.8935C292.842 46.6888 297.961 42.4557 297.887 42.3708C297.812 42.286 292.568 46.4267 286.177 51.6236C279.786 56.8206 274.692 61.0692 274.758 61.1463Z" fill="#033649"/>
<path d="M250.815 52.7032C250.418 51.9811 249.829 51.3653 249.103 50.9143C248.47 50.3543 247.691 49.9558 246.843 49.7577C247.462 50.2968 248.129 50.7869 248.837 51.2227C249.454 51.7628 250.116 52.2577 250.815 52.7032Z" fill="white"/>
<path d="M274.151 57.0442C274.193 56.9962 274.229 56.9446 274.259 56.89C274.334 56.7589 274.426 56.6047 274.542 56.4197C274.864 55.7959 275.083 55.1303 275.19 54.4458C275.497 51.8813 274.71 49.3072 272.996 47.2748C272.455 46.5933 271.833 45.97 271.143 45.4166C270.386 44.8282 269.567 44.3116 268.7 43.8744C266.773 42.9382 264.705 42.2779 262.566 41.9159C258.07 41.0446 253.009 41.2528 247.856 40.5434C245.335 40.234 242.888 39.5328 240.618 38.4692C238.544 37.4231 236.668 36.0686 235.066 34.4597C232.347 31.7192 230.17 28.5558 228.634 25.1144C227.271 22.192 226.415 19.7169 225.792 18.0514L225.085 16.1006L224.894 15.5994C224.875 15.5409 224.85 15.4842 224.819 15.4298C224.819 15.4298 224.819 15.4915 224.819 15.6071L224.969 16.1237L225.659 18.1285C226.428 20.5463 227.335 22.9245 228.376 25.2532C229.889 28.7479 232.065 31.9627 234.8 34.745C236.435 36.3831 238.35 37.7587 240.468 38.8162C242.769 39.9069 245.254 40.6266 247.815 40.9444C253.034 41.6692 258.07 41.4379 262.516 42.286C266.963 43.1342 270.777 44.8537 272.78 47.4445C274.461 49.4049 275.27 51.8879 275.041 54.3841C274.897 55.3087 274.597 56.2066 274.151 57.0442Z" fill="#FAFAFA"/>
<path d="M268.874 87.6633C269.048 88.7299 269.384 89.7683 269.871 90.7476C270.433 91.9251 271.162 93.0273 272.04 94.0246C273.205 95.3571 274.632 96.4718 276.246 97.3093C278.222 98.3031 280.43 98.8325 282.678 98.8515C285.273 98.9069 287.822 98.2146 289.975 96.8698C292.343 95.3496 294.056 93.1021 294.812 90.524C295.215 89.166 295.3 87.7435 295.061 86.3525C294.798 84.9209 294.205 83.5586 293.324 82.3584C291.887 80.3355 289.683 78.8877 287.149 78.3026V78.6881C289.72 78.3192 292.162 77.3976 294.28 75.9971C296.243 74.7118 297.808 72.9701 298.817 70.9466C299.705 69.128 300.085 67.1312 299.923 65.1405C299.785 63.4203 299.164 61.7638 298.119 60.3367C297.241 59.1785 296.108 58.2062 294.795 57.4838C293.82 56.9493 292.755 56.5689 291.645 56.358C290.951 56.2301 290.242 56.1809 289.534 56.2115L288.994 56.2655C288.934 56.257 288.872 56.257 288.811 56.2655C289.753 56.2203 290.697 56.2876 291.62 56.466C292.702 56.6954 293.735 57.0888 294.679 57.6303C295.938 58.3547 297.019 59.3161 297.853 60.4524C298.852 61.8476 299.44 63.4613 299.557 65.1327C299.696 67.0682 299.313 69.0053 298.443 70.7692C297.451 72.7291 295.924 74.4143 294.014 75.6578C291.939 77.0132 289.556 77.9076 287.049 78.2717L285.977 78.4259L287.033 78.6573C289.463 79.2219 291.576 80.6148 292.95 82.5589C293.797 83.7178 294.364 85.033 294.612 86.4142C294.84 87.751 294.761 89.1173 294.379 90.4237C293.659 92.926 292.007 95.1111 289.717 96.5923C287.635 97.9013 285.168 98.5825 282.653 98.5431C280.458 98.5356 278.298 98.03 276.362 97.0703C274.774 96.2661 273.364 95.1909 272.207 93.9012C271.325 92.9272 270.582 91.8517 269.996 90.7013C269.633 89.9715 269.325 89.2192 269.074 88.4498C268.999 88.2031 268.941 88.0026 268.899 87.8407L268.874 87.6633Z" fill="#263238"/>
<path d="M273.769 54.3147C273.84 54.2954 273.907 54.2669 273.969 54.2298L274.55 53.9445C275.278 53.5581 275.97 53.1171 276.62 52.626C279.034 50.7965 280.877 48.4002 281.955 45.6864C283.207 42.4696 283.318 38.9658 282.271 35.6865C281.224 32.4072 279.075 29.5242 276.138 27.4584C273.787 25.8511 271.144 24.6497 268.334 23.9115C265.525 23.1756 262.643 22.7029 259.732 22.5005C256.94 22.2537 254.247 22.1381 251.688 21.9761C249.265 21.8347 246.852 21.5773 244.457 21.2051C242.378 20.8735 240.338 20.357 238.366 19.6629C235.502 18.6828 232.892 17.1567 230.703 15.183C230.127 14.6281 229.591 14.0382 229.099 13.4173L228.717 12.9315C228.678 12.8722 228.63 12.8178 228.576 12.7696C229.123 13.689 229.799 14.5369 230.587 15.291C232.759 17.334 235.385 18.9128 238.283 19.9174C240.269 20.6338 242.326 21.1684 244.424 21.5135C246.829 21.8892 249.254 22.1466 251.688 22.2846C256.799 22.6624 262.492 22.7009 268.184 24.2662C270.942 24.9929 273.539 26.1677 275.855 27.736C278.734 29.7531 280.849 32.5663 281.895 35.7701C282.94 38.9739 282.862 42.4029 281.673 45.5631C280.63 48.233 278.854 50.6039 276.52 52.441C275.887 52.9436 275.215 53.4023 274.509 53.8135L273.96 54.1296C273.888 54.183 273.824 54.2452 273.769 54.3147Z" fill="#263238"/>
<path d="M181.155 42.9415C181.251 43.047 181.368 43.133 181.502 43.1941C181.635 43.2551 181.78 43.2899 181.928 43.2962C182.36 43.304 182.784 43.1913 183.145 42.9727C183.507 42.754 183.789 42.4396 183.956 42.0702C184.084 41.802 184.14 41.5091 184.12 41.2165C184.1 40.9238 184.003 40.64 183.84 40.3892C183.456 39.7965 182.871 39.3383 182.177 39.0861C181.33 38.802 180.419 38.7236 179.53 38.8586C178.642 38.9936 177.805 39.3373 177.1 39.8572C176.25 40.4264 175.595 41.2108 175.213 42.1164C174.81 43.1008 174.729 44.1738 174.98 45.2007C175.235 46.3138 175.885 47.3156 176.825 48.0459C177.821 48.8117 179.038 49.289 180.324 49.4184C181.696 49.5108 183.073 49.3162 184.353 48.8491C185.633 48.3821 186.784 47.6544 187.721 46.7197C188.753 45.7724 189.56 44.6351 190.089 43.381C190.63 42.0774 190.774 40.6609 190.505 39.2866C190.217 37.9428 189.766 36.6338 189.158 35.385C188.602 34.1513 188.086 32.933 187.654 31.7147C186.79 29.3743 186.232 26.946 185.992 24.4821C185.769 22.2591 185.915 20.0176 186.424 17.8355C186.878 15.9247 187.679 14.0994 188.793 12.4381C190.398 10.0216 192.701 8.07139 195.441 6.80929C196.19 6.49412 196.966 6.23624 197.76 6.03822L198.391 5.89172C198.464 5.87826 198.534 5.85487 198.599 5.82233H198.383L197.743 5.93028C196.927 6.10242 196.131 6.34775 195.366 6.66279C192.565 7.89747 190.203 9.85074 188.56 12.2916C187.404 13.9459 186.561 15.7713 186.067 17.689C185.532 19.904 185.369 22.1825 185.585 24.4436C185.819 26.9385 186.377 29.3981 187.247 31.7687C187.679 33.0024 188.203 34.2361 188.759 35.4621C189.349 36.6984 189.789 37.9914 190.073 39.3175C190.321 40.6123 190.183 41.9454 189.674 43.1728C189.171 44.3794 188.398 45.4728 187.405 46.3804C186.516 47.2753 185.422 47.9745 184.204 48.4267C182.986 48.879 181.675 49.0729 180.366 48.9943C179.146 48.8789 177.99 48.4339 177.041 47.7144C176.157 47.0388 175.543 46.1075 175.296 45.0696C175.053 44.1015 175.119 43.0885 175.487 42.155C175.846 41.2988 176.456 40.5533 177.249 40.0037C177.912 39.5045 178.701 39.1714 179.542 39.0364C180.384 38.9014 181.248 38.969 182.053 39.2326C182.704 39.4556 183.257 39.8734 183.623 40.4201C183.782 40.6464 183.878 40.9052 183.904 41.174C183.93 41.4427 183.885 41.7133 183.773 41.9622C183.622 42.3103 183.365 42.6097 183.032 42.8235C182.7 43.0373 182.307 43.156 181.903 43.1651C181.637 43.1537 181.379 43.0765 181.155 42.9415Z" fill="#263238"/>
<g opacity="0.2">
<path d="M186.457 217.449C182.418 216.393 178.23 219.762 174.133 218.891C171.639 218.351 169.761 216.285 168.631 214.118C167.501 211.952 166.894 209.561 165.697 207.418C164.501 205.274 162.506 203.308 159.93 202.976C157.57 202.683 154.769 203.709 153.015 202.205C151.661 201.049 151.843 198.905 152.924 197.525C154.004 196.145 155.716 195.335 157.37 194.579C159.184 193.66 161.113 192.951 163.113 192.467C165.133 191.99 167.272 192.22 169.121 193.114C172.579 194.98 173.277 199.213 174.282 202.807C174.896 205.335 176.049 207.723 177.673 209.831C179.322 211.945 181.766 213.409 184.521 213.933C185.582 213.969 186.622 214.216 187.571 214.658C188.444 215.213 188.784 216.601 187.878 217.118" fill="#242424"/>
</g>
<path d="M207.508 203.593L192.366 198.697L178.795 179.012C178.133 178.051 177.267 177.226 176.249 176.587C175.232 175.948 174.085 175.509 172.878 175.295L148.536 171.031C148.227 171.892 148.268 172.827 148.653 173.661C149.037 174.495 149.738 175.17 150.622 175.557C153.871 177.277 168.49 180.438 168.49 180.438L145.976 180.083C145.976 180.083 145.286 183.098 147.838 184.178C150.389 185.257 166.429 185.797 166.429 185.797L145.876 188.511C145.876 188.511 145.76 191.541 150.456 191.595C155.079 191.556 159.698 191.299 164.293 190.824C164.483 190.798 164.678 190.842 164.833 190.947C164.989 191.053 165.093 191.211 165.124 191.387C165.154 191.557 165.113 191.732 165.01 191.875C164.906 192.018 164.748 192.119 164.567 192.158L150.913 195.15C150.519 195.231 150.165 195.431 149.907 195.718C149.648 196.006 149.499 196.364 149.483 196.738C149.467 197.112 149.584 197.48 149.817 197.786C150.05 198.091 150.386 198.317 150.771 198.427C151.021 198.486 151.28 198.501 151.536 198.473C153.855 198.257 167.758 196.623 167.758 196.623C167.758 196.623 172.662 212.568 175.836 213.856C179.011 215.144 185.668 215.498 185.668 215.498L199.796 220.688L207.508 203.593Z" fill="#B78876"/>
<path d="M147.539 180.022C147.927 180.098 148.322 180.134 148.719 180.13L151.943 180.276C154.661 180.384 158.426 180.507 162.573 180.608L168.432 180.746C170.008 180.685 171.583 180.894 173.077 181.363C174.061 181.722 174.896 182.362 175.462 183.191C175.644 183.509 175.803 183.839 175.936 184.178C175.953 184.083 175.953 183.987 175.936 183.892C175.872 183.625 175.772 183.365 175.637 183.121C175.096 182.219 174.244 181.51 173.219 181.109C171.699 180.586 170.085 180.34 168.465 180.384L162.647 180.214C158.492 180.114 154.727 180.037 152.01 179.999H148.785C148.37 179.974 147.953 179.982 147.539 180.022Z" fill="#AA6550"/>
<path d="M147.198 188.565C147.562 188.578 147.927 188.555 148.287 188.496L151.229 188.149C153.722 187.848 157.146 187.378 160.927 186.869C162.814 186.622 164.617 186.306 166.246 186.175C167.675 186.015 169.122 186.257 170.401 186.869C171.254 187.308 171.989 187.92 172.554 188.658C172.953 189.182 173.11 189.513 173.144 189.498C173.131 189.41 173.103 189.324 173.061 189.244C172.959 189.008 172.837 188.781 172.695 188.565C172.16 187.766 171.424 187.099 170.551 186.622C169.231 185.939 167.715 185.653 166.213 185.805C164.551 185.92 162.747 186.229 160.852 186.468C157.071 186.992 153.647 187.493 151.179 187.871L148.253 188.341C147.894 188.384 147.541 188.459 147.198 188.565Z" fill="#AA6550"/>
<path d="M158.625 193.415C159.429 193.31 160.223 193.15 161.002 192.937C162.465 192.605 164.476 192.112 166.703 191.688C167.233 191.573 167.772 191.498 168.315 191.464C168.802 191.482 169.276 191.612 169.695 191.842C170.439 192.224 171.065 192.776 171.515 193.446C171.887 194.1 172.132 194.81 172.238 195.543C172.307 195.344 172.324 195.133 172.288 194.926C172.244 194.36 172.074 193.809 171.789 193.307C171.343 192.563 170.688 191.945 169.894 191.518C169.417 191.254 168.878 191.101 168.324 191.071C167.75 191.1 167.18 191.172 166.62 191.287C164.359 191.726 162.365 192.259 160.927 192.659C160.135 192.84 159.363 193.093 158.625 193.415Z" fill="#AA6550"/>
<path d="M319.91 214.18L274.492 208.998L194.835 196.985L184.554 220.958C214.473 230.581 245.172 239.263 275.29 246.896C277.751 247.352 280.261 247.548 282.77 247.482C292.825 247.521 317.624 243.773 319.91 214.18Z" fill="#033649"/>
<path d="M184.554 220.958C184.632 220.82 184.701 220.678 184.762 220.534C184.903 220.233 185.086 219.816 185.335 219.277C185.826 218.151 186.54 216.532 187.446 214.465L195.001 197.039L194.81 197.139L233.512 203.138C242.654 204.596 251.422 205.544 259.367 206.523C263.348 207.009 267.121 207.495 270.636 208.065C272.398 208.328 274.093 208.585 275.722 208.836C277.283 209.069 278.829 209.383 280.351 209.777C284.937 211.118 288.801 214.03 291.155 217.92C291.8 218.966 292.332 220.069 292.742 221.212C292.884 221.605 292.975 221.914 293.033 222.114C293.062 222.22 293.101 222.323 293.15 222.423C293.072 222.005 292.964 221.593 292.825 221.189C292.447 220.027 291.937 218.905 291.305 217.842C290.305 216.154 289.02 214.626 287.498 213.316C285.461 211.588 283.046 210.289 280.418 209.507C278.884 209.102 277.328 208.775 275.755 208.528C274.093 208.25 272.431 207.965 270.669 207.695C267.146 207.156 263.372 206.647 259.4 206.153C251.447 205.158 242.687 204.202 233.562 202.737L194.843 196.823H194.702L194.652 196.947C191.56 204.225 189.017 210.224 187.239 214.419L185.211 219.261C184.986 219.809 184.82 220.233 184.687 220.534C184.554 220.834 184.554 220.958 184.554 220.958Z" fill="#263238"/>
<path d="M295.468 246.21C295.344 246.222 295.222 246.245 295.102 246.279L294.047 246.518C293.116 246.703 291.745 246.996 289.95 247.197C284.879 247.777 279.738 247.547 274.75 246.518C273.171 246.21 271.542 245.794 269.838 245.346L264.536 243.958L252.901 240.874C244.682 238.654 235.665 236.163 226.232 233.441C210.442 228.892 195.931 224.435 184.679 220.834L184.779 221.042C187.887 213.717 190.438 207.726 192.208 203.539C193.081 201.465 193.754 199.838 194.228 198.712C194.452 198.173 194.618 197.756 194.743 197.448C194.868 197.139 194.901 197.016 194.901 197.016C194.901 197.016 194.826 197.155 194.693 197.432C194.56 197.71 194.377 198.149 194.136 198.681L192.034 203.47L184.463 220.927L184.396 221.081L184.563 221.135C195.832 224.79 210.326 229.27 226.116 233.827C235.548 236.549 244.574 239.031 252.801 241.237L264.503 244.321L269.813 245.678C271.475 246.117 273.137 246.534 274.741 246.835C279.765 247.844 284.939 248.034 290.033 247.397C291.882 247.165 293.702 246.767 295.468 246.21Z" fill="#263238"/>
<path d="M277.866 208.998C278.239 209.09 278.62 209.144 279.005 209.16L282.121 209.446L292.393 210.379L302.665 211.396L305.782 211.697C306.16 211.757 306.545 211.778 306.929 211.759C306.559 211.658 306.181 211.585 305.798 211.543C305.067 211.435 304.012 211.288 302.698 211.119C300.081 210.779 296.457 210.348 292.443 209.985C288.429 209.623 284.781 209.33 282.146 209.168C280.825 209.083 279.753 209.029 279.013 208.998C278.632 208.968 278.248 208.968 277.866 208.998Z" fill="#263238"/>
</svg>
