<svg width="231" height="186" viewBox="0 0 231 186" fill="none" xmlns="http://www.w3.org/2000/svg">
<path fill-rule="evenodd" clip-rule="evenodd" d="M8.80714 103.07C20.7757 77.1464 70.4567 105.785 107.589 105.978C144.721 106.17 195.828 77.1614 218.572 103.1C241.315 129.039 200.709 168.277 135.165 163.291C69.6211 158.305 -3.16142 128.994 8.80714 103.07Z" fill="#F2F2F2"/>
<path d="M174.205 11.4257L176.634 8.99629C179.758 5.87054 184.825 5.87054 187.95 8.99629L197.56 18.6106C200.559 21.611 202.244 25.6797 202.244 29.922V134.851" stroke="#CBCBCB" stroke-width="3"/>
<rect x="192.233" y="134.516" width="19.6939" height="2.33656" rx="1.16828" fill="#AFB9C5"/>
<path d="M162.358 7.78893C166.66 3.48722 173.634 3.48722 177.936 7.78893C182.237 12.0906 182.237 19.0651 177.936 23.3668L171.327 29.9756L155.749 14.3977L162.358 7.78893Z" fill="#C5CFD6"/>
<path fill-rule="evenodd" clip-rule="evenodd" d="M162.27 23.5448C166.571 27.8465 170.745 30.6468 171.593 29.7995C172.44 28.9522 169.64 24.7781 165.338 20.4764C161.036 16.1747 156.862 13.3744 156.015 14.2217C155.168 15.069 157.968 19.2431 162.27 23.5448Z" fill="#F2F2F2"/>
<path fill-rule="evenodd" clip-rule="evenodd" d="M20.8415 43.2765C21.7977 43.1597 22.8183 43.2009 23.7075 43.5784C25.5983 44.381 26.1358 46.6148 26.1099 48.4305C26.0819 50.3847 25.6669 52.5191 27.1527 54.0937C27.8356 54.8176 28.6852 55.3716 29.3558 56.1087C30.0724 56.8965 30.6346 57.7979 31.0509 58.7658C31.8153 60.5437 32.1905 62.6345 31.4915 64.4996C30.8761 66.1416 29.3276 67.6237 29.6622 69.4909C30.0112 71.4387 31.975 72.9278 33.2028 74.3786C34.5923 76.0205 35.8716 78.1189 36.0818 80.2721C36.2833 82.3355 35.3851 84.4224 34.0067 85.9823C31.2525 89.099 27.1126 90.627 22.9383 90.6175C21.166 90.6134 19.1594 90.5333 17.63 89.5809C17.1573 89.2866 16.9079 88.9563 16.6269 88.4972C16.375 88.0855 16.0421 87.8177 15.6569 87.5264C14.8105 86.8865 14.1993 86.0241 13.8092 85.0588C12.2945 81.3094 13.5052 76.6708 15.6254 73.3413C16.1278 72.5525 16.5392 71.7934 16.2951 70.8531C16.0404 69.8716 15.4144 68.9864 14.8607 68.1427C14.3136 67.3088 13.689 66.5134 13.2614 65.6118C12.8135 64.6674 12.6874 63.6784 12.7665 62.6448C12.9152 60.7033 13.7534 58.9116 14.94 57.3501C16.0829 55.8461 17.4249 54.407 17.4279 52.4363C17.4312 50.3476 16.0348 48.4896 16.6297 46.3661C16.876 45.4868 17.3708 44.5846 18.1681 44.0574C18.9327 43.5518 19.9423 43.3864 20.8415 43.2765Z" fill="#DDE3E9"/>
<path fill-rule="evenodd" clip-rule="evenodd" d="M20.2149 46.6192C20.2328 46.3387 20.5656 46.1705 20.8275 46.2437C21.1723 46.3401 21.1657 46.6623 21.1566 46.9493C21.1287 47.8315 21.2564 48.6889 21.4685 49.545C21.9092 51.3248 22.7239 52.9646 23.3693 54.6742C24.0141 56.3824 24.3168 58.1461 23.9385 59.9536C23.5819 61.6579 23.0216 63.3179 22.6567 65.0243C22.335 66.5283 21.9927 68.1143 22.4826 69.6145C22.954 71.0585 23.9961 72.2344 24.7466 73.5394C26.3001 76.2407 26.9893 79.2375 27.0815 82.3215C27.1242 83.7535 27.0857 85.1988 26.7535 86.6033C26.5623 87.4121 26.3053 88.5051 25.6123 89.0634C25.2927 89.3209 24.7461 89.41 24.4771 89.0286C24.2246 88.671 24.4461 88.1173 24.5263 87.7362C24.8735 86.086 24.9433 84.3997 24.8602 82.7242C24.7798 81.1012 24.588 79.481 24.0772 77.931C23.6032 76.4926 22.8829 75.2006 22.0353 73.9423C21.1715 72.66 20.2736 71.375 19.9167 69.8556C19.5541 68.3124 19.8487 66.7422 20.2426 65.2285C20.6591 63.6275 21.2048 62.0723 21.7689 60.5147C22.3186 58.9968 22.5135 57.5607 22.21 55.9721C21.6105 52.8335 20.0058 49.8877 20.2149 46.6192Z" fill="#C5CFD6"/>
<path fill-rule="evenodd" clip-rule="evenodd" d="M46.0915 47.0828C47.2748 47.4421 48.45 48.0218 49.2934 48.9307C51.087 50.8636 50.5367 53.785 49.5466 55.9187C48.4809 58.2153 46.8659 60.5237 47.7763 63.1587C48.1947 64.3701 48.8984 65.4672 49.2953 66.6879C49.7194 67.9923 49.9024 69.3508 49.8791 70.712C49.8359 73.2123 49.1709 75.8801 47.3652 77.7221C45.7754 79.3439 43.1759 80.2911 42.5814 82.6733C41.9612 85.1584 43.4775 87.9411 44.1507 90.2956C44.9126 92.9601 45.304 96.1074 44.4124 98.763C43.5581 101.308 41.4016 103.309 38.9603 104.437C34.0826 106.69 28.4192 106.343 23.5282 104.16C21.4517 103.233 19.1404 102.095 17.8499 100.173C17.4511 99.5789 17.3332 99.0586 17.2463 98.3694C17.1684 97.7514 16.9195 97.2616 16.6217 96.7167C15.9672 95.5197 15.7061 94.1818 15.7588 92.8373C15.964 87.6151 19.8357 82.7593 24.0824 79.9247C25.0887 79.2531 25.9724 78.5694 26.1831 77.3305C26.4031 76.0372 26.1368 74.6646 25.9333 73.3788C25.7323 72.1081 25.4202 70.8424 25.3951 69.5538C25.369 68.2039 25.7438 66.9687 26.3829 65.7875C27.5836 63.5687 29.5137 61.8858 31.7308 60.6565C33.8663 59.4724 36.201 58.4686 37.2461 56.1396C38.354 53.6712 37.6983 50.7474 39.5184 48.5455C40.2721 47.6338 41.3292 46.8242 42.543 46.6155C43.7071 46.4154 44.9787 46.7449 46.0915 47.0828Z" fill="#DDE3E9"/>
<path fill-rule="evenodd" clip-rule="evenodd" d="M43.6728 51.1613C43.8407 50.8385 44.3179 50.8137 44.5858 51.0376C44.9385 51.3325 44.762 51.7106 44.6011 52.0457C44.1064 53.0759 43.8066 54.1582 43.6063 55.2831C43.1896 57.6218 43.2833 59.9907 43.1426 62.3536C43.002 64.7145 42.4322 66.9617 41.0433 68.904C39.7337 70.7353 38.2092 72.4076 36.8888 74.2371C35.725 75.8495 34.4941 77.5483 34.2813 79.5816C34.0762 81.5387 34.6789 83.4776 34.873 85.4162C35.2747 89.4295 34.5111 93.3396 33.0037 97.0401C32.3037 98.7584 31.5018 100.45 30.3777 101.939C29.7306 102.796 28.8577 103.956 27.7549 104.254C27.2463 104.392 26.5606 104.21 26.4457 103.618C26.3378 103.062 26.8868 102.523 27.1802 102.113C28.4503 100.341 29.4152 98.3806 30.1955 96.3528C30.9514 94.3887 31.5758 92.3694 31.7903 90.2662C31.9893 88.3143 31.8237 86.4068 31.4916 84.4724C31.1532 82.5011 30.7762 80.5087 31.1546 78.5223C31.5388 76.5048 32.7056 74.7997 33.959 73.2136C35.2846 71.5359 36.7371 69.9802 38.2125 68.4312C39.6502 66.9219 40.6302 65.3233 41.1073 63.2829C42.0501 59.2519 41.7166 54.9223 43.6728 51.1613Z" fill="#C5CFD6"/>
<path fill-rule="evenodd" clip-rule="evenodd" d="M9.51006 61.9141C11.4775 61.9141 13.2073 62.957 14.3992 64.4369C15.7944 66.1693 16.0762 68.2849 16.6428 70.3497C16.9247 71.3772 17.4096 72.3973 18.2593 73.0954C19.0321 73.7303 20.0133 73.8574 20.9383 74.1676C22.7871 74.7875 24.28 76.2808 24.8696 78.1029C25.5889 80.3255 24.827 82.567 24.9582 84.8195C25.0786 86.8881 27.1183 88.1787 28.7593 89.1704C30.3774 90.1482 31.8351 91.0636 32.3225 92.9685C32.8393 94.9889 33.0126 97.2441 32.2968 99.2399C31.1051 102.563 27.6172 104.026 24.2471 104.253C21.1886 104.459 17.3429 104.136 15.0459 101.916C13.6715 100.587 13.1737 98.7293 13.2355 96.8807C13.2739 95.7312 13.5016 94.5923 13.796 93.4815C14.0046 92.6941 14.2866 91.9102 14.3669 91.0966C14.5804 88.9321 12.5798 88.5164 10.877 87.9221C8.71307 87.1668 7.19817 85.7402 6.14475 83.7527C5.16374 81.9022 4.75212 79.8248 5.34021 77.7874C5.64057 76.747 6.18535 75.8032 6.92417 75.0003C7.2494 74.647 7.7078 74.3523 8.00135 73.981C8.27534 73.6343 8.21569 73.1851 8.12127 72.779C7.68465 70.9034 6.32432 69.3502 5.83784 67.4779C5.39863 65.7879 5.65827 63.6846 7.20337 62.5943C7.87091 62.1232 8.69414 61.9193 9.51006 61.9141Z" fill="#C5CFD6"/>
<path fill-rule="evenodd" clip-rule="evenodd" d="M12.1905 66.8C14.2758 69.0213 14.8427 72.0351 15.009 74.9562C15.1022 76.5942 15.0052 78.3219 15.4864 79.9107C15.8982 81.2706 16.8635 82.3101 17.8585 83.2925C19.8615 85.2702 22.0952 87.2808 22.6811 90.143C23.0248 91.8227 22.7928 93.5577 23.2678 95.2189C23.6997 96.7289 24.4601 98.2124 25.385 99.4875C26.1297 100.514 27.0999 101.3 27.914 102.258C28.1624 102.55 28.5181 102.98 28.4156 103.392C28.2957 103.875 27.6804 104.028 27.2438 103.952C26.226 103.776 25.3692 102.804 24.7037 102.097C23.7305 101.064 22.9035 99.9526 22.2314 98.706C21.4852 97.3216 20.8844 95.8526 20.6277 94.2994C20.3613 92.6882 20.4939 91.0089 19.8855 89.4625C18.8619 86.8606 16.3791 85.3251 14.584 83.2971C12.3474 80.7701 12.681 77.625 12.9101 74.5165C13.0359 72.8083 13.161 70.8792 12.2978 69.3195C11.9683 68.7242 11.2337 68.1691 11.092 67.4923C10.9622 66.8723 11.6705 66.2458 12.1905 66.8Z" fill="#AFB9C5"/>
<path fill-rule="evenodd" clip-rule="evenodd" d="M14.4164 103.305C14.4164 116.008 16.4895 122.665 27.4343 122.665C38.379 122.665 40.4521 116.008 40.4521 103.305H14.4164Z" fill="#89C5CC"/>
<path fill-rule="evenodd" clip-rule="evenodd" d="M154.252 48.1267C152.191 49.5822 150.119 50.3637 149.107 50.1797C146.567 49.7183 145.674 40.6139 147.342 36.8778C149.01 33.1418 158.814 30.8536 159.831 37.9417C160.185 40.4023 159.306 42.6849 157.903 44.5973L161.585 57.2168L153.595 57.7976L154.252 48.1267Z" fill="#8E6947"/>
<path fill-rule="evenodd" clip-rule="evenodd" d="M163.146 35.3172C163.385 35.0427 163.5 34.6674 163.596 34.312C163.697 33.9427 163.793 33.57 163.85 33.1892C163.963 32.4282 163.902 31.5669 163.326 31.0243C162.863 30.5892 162.205 30.4268 161.609 30.4245C161.211 30.4229 160.809 30.5078 160.439 30.6599C160.073 30.8107 159.766 31.0806 159.413 31.2599C159.341 30.454 159.141 29.6197 158.681 28.9605C158.239 28.3262 157.584 27.9998 156.862 27.9534C156.12 27.9057 155.408 28.1302 154.776 28.5334C154.618 28.6344 154.462 28.7395 154.314 28.8564C154.19 28.9543 154.062 29.0706 153.911 29.1177C153.743 29.1702 153.651 29.0777 153.531 28.9611C153.39 28.8244 153.234 28.7063 153.071 28.6035C152.348 28.1489 151.432 28.0069 150.659 28.3671C150.302 28.5331 149.963 28.7956 149.738 29.1397C149.538 29.4465 149.414 29.919 149.122 30.1437C148.999 30.2391 148.899 30.1319 148.775 30.0563C148.588 29.9428 148.409 29.8155 148.22 29.7055C147.955 29.551 147.673 29.4416 147.375 29.3952C146.94 29.3272 146.35 29.3934 146.268 29.9632C146.237 30.1773 146.289 30.4 146.319 30.6112C146.361 30.9012 146.403 31.1911 146.45 31.4803C146.485 31.6999 146.525 31.9115 146.582 32.1255C146.613 32.2396 146.698 32.4502 146.657 32.5696C146.606 32.7189 146.313 32.6574 146.192 32.6713C145.951 32.6988 145.711 32.7588 145.496 32.8782C145.329 32.9707 145.155 33.1015 145.097 33.3052C145.061 33.4302 145.082 33.5545 145.112 33.6783C145.148 33.8268 145.125 33.9087 145.117 34.0618C144.781 33.9257 143.632 33.6526 143.533 34.244C143.5 34.4409 143.623 34.6518 143.716 34.809C143.88 35.0848 144.088 35.3327 144.298 35.5682C144.737 36.0595 145.248 36.4736 145.791 36.8201C145.207 37.1323 145.107 37.9351 145.664 38.3686C145.91 38.56 146.223 38.5838 146.513 38.5493C146.62 38.5367 146.77 38.4846 146.855 38.497C146.901 38.5037 146.952 38.5385 147.015 38.5382C147.428 38.5365 147.884 38.4038 148.279 38.2835C148.982 38.0691 149.635 37.681 150.151 37.1246C150.283 36.9819 150.395 36.8971 150.586 36.8852C150.753 36.8747 150.921 36.9087 151.088 36.9007C151.531 36.8799 151.914 36.6346 152.315 36.4609C152.38 37.0139 152.583 37.6136 152.846 38.0963C153.061 38.4899 153.451 38.521 153.834 38.5291C155.057 38.5551 156.267 38.339 157.483 38.2522C156.325 38.6039 155.116 38.802 153.972 39.2C153.455 39.3799 153.884 39.7061 154.127 39.9361C154.528 40.3149 154.841 40.7976 155.071 41.3134C155.592 40.5208 156.574 39.9522 157.493 40.1173C158.508 40.2996 159.307 41.5962 158.74 42.6113C158.411 43.2005 157.759 43.4662 157.221 43.7482C157.687 44.1676 157.84 44.8258 158.142 45.3677C158.291 45.635 158.495 45.9346 158.789 46.0101C158.899 46.038 159.024 46.032 159.114 46.1127C159.226 46.2126 159.259 46.331 159.399 46.4137C159.956 46.744 160.783 46.6553 161.218 46.1399C161.611 45.6738 161.451 44.9931 161.064 44.5777C161.612 44.301 162.619 43.9231 162.331 43.0589C163.55 42.8885 166.379 40.6861 164.63 39.3541C165.495 38.7786 166.233 37.4724 165.574 36.4161C165.066 35.6028 164.001 35.3001 163.146 35.3172Z" fill="#191847"/>
<path fill-rule="evenodd" clip-rule="evenodd" d="M167.216 142.451C153.021 142.451 141.514 131.466 141.514 117.917C141.514 104.367 153.021 93.3828 167.216 93.3828C181.411 93.3828 192.918 104.367 192.918 117.917C192.918 131.466 181.411 142.451 167.216 142.451Z" fill="#C5CFD6"/>
<path fill-rule="evenodd" clip-rule="evenodd" d="M127.264 116.61C126.022 120.959 122.929 129.201 118.652 138.667L114.588 137.482C118.144 115.7 121.103 101.279 122.798 96.8903C123.918 93.9905 132.39 94.3303 131.415 100.165C131.007 102.612 129.389 109.164 127.264 116.61ZM143.967 101.182C150.595 102.555 164.336 107.409 168.26 108.96C170.726 109.935 169.136 113.241 167.033 112.952C166.676 112.903 165.416 112.762 163.535 112.551C157.494 111.876 145.054 110.484 135.618 109.126C130.65 108.411 133.323 99.1049 138.481 100.09C140.217 100.421 142.062 100.788 143.967 101.182Z" fill="#8E6947"/>
<path fill-rule="evenodd" clip-rule="evenodd" d="M122.53 94.4348C123.208 92.2237 154.009 84.375 154.009 84.375H156.533V86.7272L135.31 97.5311C135.338 97.8801 135.321 98.2491 135.253 98.6381C135.406 106.648 131.978 112.632 128.584 118.557C126.364 122.431 124.159 126.28 122.98 130.653L115.182 129.49C115.409 128.909 115.768 126.289 116.259 122.708C117.497 113.678 119.574 98.5312 122.488 94.5238C122.497 94.511 122.507 94.4982 122.517 94.4855C122.521 94.4686 122.525 94.4517 122.53 94.4348Z" fill="#1F28CF"/>
<path fill-rule="evenodd" clip-rule="evenodd" d="M154.772 103.949C156.714 103.56 158.503 103.213 160.033 102.945C169.918 101.211 172.801 95.9197 171.096 84.375H152.884C149.909 85.2296 134.448 91.7134 126.426 95.162C121.117 97.4441 122.79 105.67 125.795 107.813C125.812 107.945 125.866 108.034 125.962 108.074C137.362 112.799 147.083 112.447 153.325 112.22C155.939 112.125 157.944 112.053 159.205 112.384L161.182 106.148L154.772 103.949Z" fill="#2B44FF"/>
<path fill-rule="evenodd" clip-rule="evenodd" d="M166.02 110.08C166.25 108.932 167.192 107.95 168.337 108.194C168.664 108.263 168.961 108.348 169.168 108.449C169.98 108.845 171.405 109.874 171.405 109.874C170.946 110.816 163.152 126.796 163.152 126.796C163.152 126.796 160.65 126.392 161.169 124.886C161.688 123.38 162.006 122.372 162.006 122.372L162.313 113.482C162.332 112.919 162.812 112.483 163.375 112.518L164.164 112.568C164.164 112.568 165.419 111.552 165.82 110.729C165.905 110.555 165.97 110.329 166.02 110.08Z" fill="#833A10"/>
<path fill-rule="evenodd" clip-rule="evenodd" d="M118.304 137.041C119.437 136.745 120.733 137.161 121.016 138.297C121.096 138.621 121.151 138.925 121.151 139.156C121.151 140.059 120.85 141.791 120.85 141.791C119.802 141.791 102.023 141.791 102.023 141.791C102.023 141.791 101.289 139.365 102.87 139.171C104.452 138.978 105.497 138.822 105.497 138.822L113.622 135.2C114.136 134.971 114.739 135.211 114.953 135.732L115.255 136.463C115.255 136.463 116.718 137.146 117.634 137.146C117.827 137.146 118.059 137.105 118.304 137.041Z" fill="#833A10"/>
<path fill-rule="evenodd" clip-rule="evenodd" d="M120.735 70.2597L132.83 75.5714L128.968 80.5189L119.91 73.5739C115.385 72.7428 113.287 72.0289 113.615 71.432C113.891 70.9288 114.406 70.9004 114.88 70.8743C115.249 70.854 115.593 70.835 115.781 70.5939C116.211 70.0434 115.15 68.3427 114.075 66.7719C113 65.2011 114.008 65.2578 114.598 65.4457C116.571 66.5437 118.617 68.1484 120.735 70.2597ZM174.891 78.3913L181.731 77.0342C186.369 89.2609 189.135 95.961 190.027 97.1346C190.682 97.9952 194.717 100.212 197.448 101.396C198.545 101.871 198.309 102.797 197.988 103.094C195.96 104.963 194.074 104.308 192.021 103.595C191.427 103.388 190.819 103.177 190.189 103.02C188.559 102.616 188.063 103.454 187.595 104.246C187.18 104.947 186.786 105.612 185.646 105.347C185.697 105.123 185.761 104.872 185.83 104.602C186.274 102.853 186.93 100.273 185.957 98.7743C185.458 98.0051 181.769 91.2108 174.891 78.3913Z" fill="#8E6947"/>
<path fill-rule="evenodd" clip-rule="evenodd" d="M156.301 51.445L153.415 50.95C147.128 57.0484 144.563 71.6998 140.373 73.6392C136.412 75.4728 130.797 73.6984 124.122 71.3026L122.078 75.8696C128.143 82.4307 141.062 87.9738 146.299 84.8093C154.672 79.75 156.605 61.6797 156.301 51.445Z" fill="#48100B"/>
<path fill-rule="evenodd" clip-rule="evenodd" d="M168.885 87.7166C168.885 87.7166 152.605 87.7166 144.934 87.7166C143.84 87.7166 144.046 86.0315 144.204 85.1812C146.03 75.3675 153.158 64.7888 153.158 50.8192L160.066 49.6641C165.78 59.4637 167.757 71.5291 168.885 87.7166Z" fill="#DDE3E9"/>
<path fill-rule="evenodd" clip-rule="evenodd" d="M159.866 49.6641H159.951C176.474 59.8463 186.46 75.6301 189.908 97.0157L184.555 98.0642C181.009 93.9325 176.632 87.1701 171.425 77.7772C173.023 83.4354 174.189 89.2387 174.553 94.7263H151.564C147.113 83.4792 157.033 49.6641 157.033 49.6641H158.621H159.866Z" fill="#6A1711"/>
<path fill-rule="evenodd" clip-rule="evenodd" d="M88.3266 63.698L99.157 61.276C101.246 59.8714 103.192 58.8754 104.997 58.288C105.513 58.229 106.353 58.3476 105.212 59.475C104.071 60.6024 102.921 61.8401 103.186 62.3678C103.451 62.8955 104.576 62.5956 104.836 63.4197C105.01 63.9692 103.164 64.217 99.3002 64.1633L90.7079 68.4405L88.3266 63.698Z" fill="#997659"/>
<path fill-rule="evenodd" clip-rule="evenodd" d="M62.8416 54.36L67.3589 52.7804C72.6123 62.1064 81.1398 65.7768 93.4407 58.0606L100.566 69.9172C88.914 76.7667 75.9957 76.4393 68.0822 64.0177C66.0336 60.8021 64.0457 57.3943 62.8416 54.36Z" fill="#9C7E32"/>
<path fill-rule="evenodd" clip-rule="evenodd" d="M66.3492 45.5048C68.0648 46.7245 69.7912 47.3819 70.6366 47.2311C72.757 46.8528 73.5257 39.2588 72.1441 36.1372C70.7625 33.0155 62.5889 31.0803 61.7208 36.9917C61.4195 39.0439 62.1464 40.9509 63.3126 42.5504L60.207 53.0691L66.8719 53.575L66.3492 45.5048Z" fill="#B28B67"/>
<path fill-rule="evenodd" clip-rule="evenodd" d="M72.6689 37.5309C72.6323 37.1371 72.5038 36.6931 72.4015 36.3154C72.2696 35.8284 72.0481 35.3816 71.7991 34.9574C71.3305 34.1589 70.7511 33.4259 70.0973 32.8044C68.9029 31.6692 67.3276 30.9472 65.719 31.0208C64.9069 31.0579 64.1024 31.3056 63.3987 31.766C62.763 32.1821 62.1336 32.8177 61.3521 32.8075C60.5017 32.7964 59.7825 31.9905 59.1388 31.4776C58.4129 30.8994 57.6275 30.4586 56.7442 30.2433C55.2644 29.8829 53.8183 30.2823 52.6923 31.4334C51.494 32.6583 50.5496 34.5162 51.1397 36.3045C51.2494 36.6369 51.4014 36.9216 51.632 37.1656C51.8434 37.3893 52.1737 37.6353 52.2408 37.9722C52.312 38.3302 51.9854 38.7605 51.8481 39.0683C51.6513 39.5093 51.4819 39.975 51.4919 40.4714C51.5084 41.2865 51.9583 42.0975 52.4549 42.6702C52.9603 43.2529 53.6092 43.6143 54.3167 43.8119C54.7891 43.9438 55.2753 44.0337 55.7655 44.0348C56.0089 44.0354 56.2275 43.9844 56.466 43.9487C56.698 43.914 56.8208 43.9842 57.0048 44.124C57.8594 44.7731 58.8086 45.0712 59.8528 45.0636C60.7341 45.0571 61.7596 44.9215 62.5196 44.3757C63.3635 43.7695 63.4175 42.8493 63.3053 41.8533C63.4957 41.9663 64.0383 42.0686 63.7409 41.653C63.6231 41.4884 63.3831 41.4069 63.2238 41.3032C63.0384 41.1826 62.8522 41.0307 62.7151 40.8464C62.1612 40.1023 62.8819 38.7283 63.6624 38.5521C64.822 38.2903 64.954 39.9121 65.7315 40.388C66.1785 40.6617 66.6898 40.3728 67.0635 40.0666C67.5641 39.6564 67.927 39.0902 68.2473 38.5103C68.5111 38.0328 68.7597 37.5471 69.0276 37.0723C69.1528 36.8506 69.5749 36.229 69.4074 35.9549C70.2313 35.8546 71.1097 36.2605 71.7751 36.7559C72.0502 36.9607 72.2551 37.179 72.3848 37.5135C72.4125 37.5851 72.4688 37.7962 72.5584 37.8115C72.7252 37.8399 72.678 37.6298 72.6689 37.5309Z" fill="#191847"/>
<path fill-rule="evenodd" clip-rule="evenodd" d="M52.7353 103.318C52.7353 103.318 62.9229 105.44 70.1775 104.951C77.4321 104.461 83.3637 99.7344 83.3637 99.7344C83.3637 99.7344 73.3852 97.5241 67.0535 97.9513C60.7219 98.3786 52.7353 103.318 52.7353 103.318Z" fill="#2C1627"/>
<path fill-rule="evenodd" clip-rule="evenodd" d="M76.1298 107.25C76.059 107.158 75.9976 107.057 75.9469 106.946C74.8968 104.65 58.9095 80.1922 57.1741 75.6406L73.2422 74.5563C74.5617 78.017 80.9238 99.8636 81.9071 104.242C84.5385 111.075 90.512 133.376 91.1856 134.903C91.8941 136.51 88.6486 138.453 87.6162 136.488C85.9736 133.363 81.9761 124.676 80.0967 119.335C78.3348 114.327 76.8707 109.813 76.1298 107.25Z" fill="#997659"/>
<path fill-rule="evenodd" clip-rule="evenodd" d="M63.1927 111.243C56.7791 113.333 33.1136 117.925 31.5073 118.503C29.855 119.098 28.1433 115.725 30.1751 114.832C33.408 113.411 42.352 110.029 47.8117 108.527C52.2033 107.319 56.2165 106.304 58.9151 105.686C58.1669 98.0389 55.8696 79.7207 56.294 75.7022L70.5113 74.7428C70.1043 78.5963 66.3666 106.765 65.511 109.617C65.2469 110.633 64.2887 111.138 63.1927 111.243Z" fill="#B28B67"/>
<path fill-rule="evenodd" clip-rule="evenodd" d="M30.6372 116.133C30.5108 114.969 29.8709 113.756 28.7029 113.839C28.5666 113.848 28.4432 113.865 28.3408 113.89C27.6094 114.07 26.2664 114.66 26.2664 114.66C26.4758 115.509 30.0294 129.911 30.0294 129.911C30.0294 129.911 32.1414 130.021 31.982 128.701C31.8227 127.382 31.74 126.503 31.74 126.503L33.02 119.366C33.1194 118.811 32.7414 118.284 32.1842 118.2L31.7005 118.128C31.7005 118.128 30.8548 117.079 30.6719 116.337C30.6565 116.275 30.6451 116.207 30.6372 116.133Z" fill="#DBC29D"/>
<path fill-rule="evenodd" clip-rule="evenodd" d="M88.8495 136.317C87.6812 136.239 86.3752 136.658 86.2537 137.823C86.2396 137.959 86.2344 138.083 86.2415 138.189C86.2922 138.94 86.6399 140.365 86.6399 140.365C87.5119 140.306 102.312 139.308 102.312 139.308C102.312 139.308 102.787 137.247 101.46 137.175C100.133 137.102 99.2535 137.031 99.2535 137.031L92.4467 134.531C91.9178 134.337 91.333 134.618 91.1538 135.152L90.9983 135.616C90.9983 135.616 89.8182 136.267 89.0564 136.318C88.9924 136.322 88.923 136.322 88.8495 136.317Z" fill="#DBC29D"/>
<path fill-rule="evenodd" clip-rule="evenodd" d="M56.3416 75.6954C56.3416 75.6954 65.5579 72.3725 74.1253 74.4953C76.6693 83.2386 81.6333 86.4419 83.3825 99.9919C74.2517 105.324 62.0385 98.0691 52.6219 103.303C49.4111 97.0874 52.2607 81.404 56.3416 75.6954Z" fill="#492842"/>
<path fill-rule="evenodd" clip-rule="evenodd" d="M48.2872 53.593C48.2872 53.593 35.8267 34.8897 34.6064 33.5047C34.0097 32.8276 30.5169 31.2253 28.1718 30.4044C27.2305 30.0749 27.3706 29.2894 27.6203 29.0232C29.652 26.8581 31.7395 28.203 34.1164 28.6137C36.7204 29.0637 35.7027 26.0783 37.7582 26.4025C37.5368 27.8166 36.8559 30.5207 37.8952 31.8939C38.5881 32.8094 54.1679 51.9776 54.1679 51.9776L48.2872 53.593Z" fill="#997659"/>
<path fill-rule="evenodd" clip-rule="evenodd" d="M58.5765 52.2503C59.322 50.3911 60.1077 48.7073 60.9185 47.2527L68.2679 48.4219C68.853 57.0926 71.2192 63.441 73.494 69.5445C74.4764 72.1803 75.4418 74.7704 76.2394 77.4821L52.2872 84.8758C52.3688 76.7894 53.8162 67.7282 55.9857 59.9856C47.3482 55.013 39.4168 47.6778 32.1915 37.9799L45.3359 31.5567C49.3796 39.3064 53.6573 46.2707 58.5765 52.2503Z" fill="#AF9142"/>
<path fill-rule="evenodd" clip-rule="evenodd" d="M57.3883 55.5133C57.3883 55.5133 57.2224 56.9655 56.9632 57.9369C56.7041 58.9082 54.8847 68.1276 54.8382 68.3722C54.7918 68.6169 55.2628 59.5719 57.3883 55.5133Z" fill="black" fill-opacity="0.1"/>
</svg>
