<svg xmlns="http://www.w3.org/2000/svg" viewBox="0 0 742.4 212.43"><defs><style>.cls-1{fill:#031634;}.cls-2{fill:#7b2d26;}.cls-3{fill:#033649;}</style></defs><g id="Layer_2" data-name="Layer 2"><g id="Layer_1-2" data-name="Layer 1"><rect class="cls-1" y="136" width="68" height="68"/><rect class="cls-1" width="68" height="68"/><path class="cls-2" d="M125,136H69V68h56ZM188,0H125V204h63ZM125,0c.28,2.15,3.84,33-15.73,54A44.62,44.62,0,0,1,68.69,68H125Z"/><path class="cls-1" d="M276.72,29.63a30.65,30.65,0,0,1,11.81,12.14,36.52,36.52,0,0,1,4.22,17.72,36.52,36.52,0,0,1-4.22,17.72,30.52,30.52,0,0,1-11.81,12.14,36.48,36.48,0,0,1-34.23.21,27.32,27.32,0,0,1-11.21-11.41v46.71h-5.63V26.34H231V41.1a27.13,27.13,0,0,1,11.21-11.54,34.44,34.44,0,0,1,17.25-4.29A34,34,0,0,1,276.72,29.63Zm-3.09,55.23a25.39,25.39,0,0,0,9.93-10.2,31.42,31.42,0,0,0,3.56-15.17,31.45,31.45,0,0,0-3.56-15.17,25.39,25.39,0,0,0-9.93-10.2,30.71,30.71,0,0,0-28.93,0,25.55,25.55,0,0,0-9.86,10.2,31.45,31.45,0,0,0-3.56,15.17,31.42,31.42,0,0,0,3.56,15.17,25.55,25.55,0,0,0,9.86,10.2,30.71,30.71,0,0,0,28.93,0Z"/><path class="cls-1" d="M352.21,29.29l-2.55,4.83a21.45,21.45,0,0,0-11.14-2.95,19.34,19.34,0,0,0-11.34,3.62,24.51,24.51,0,0,0-8.12,9.94,32.14,32.14,0,0,0-2.95,13.82V92.64h-5.64V26.34h5.37V41.1a28.22,28.22,0,0,1,9.46-11.34,23.07,23.07,0,0,1,13.36-4.09A24.59,24.59,0,0,1,352.21,29.29Z"/><path class="cls-1" d="M363.15,9.23a4.83,4.83,0,0,1-1.41-3.56,5,5,0,0,1,1.41-3.62,5.25,5.25,0,0,1,7.31,0,4.9,4.9,0,0,1,1.48,3.62,4.7,4.7,0,0,1-1.48,3.56,5.44,5.44,0,0,1-7.31,0ZM364,26.34h5.64v66.3H364Z"/><path class="cls-1" d="M487.77,33q7,7.59,7,21V92.64h-5.64V54.26q0-11.28-5.37-17.38t-15.3-6.11A21.25,21.25,0,0,0,457,34a22.18,22.18,0,0,0-8,8.79A27,27,0,0,0,446,55.33V92.64h-5.64V54.26q0-11.28-5.3-17.38t-15.37-6.11A20.89,20.89,0,0,0,408.31,34a22.41,22.41,0,0,0-8,8.79,27,27,0,0,0-2.88,12.55V92.64H391.8V26.34h5.37V38.82a26.73,26.73,0,0,1,9.6-9.86,25.1,25.1,0,0,1,13.08-3.56q9,0,15.24,4.23a22.46,22.46,0,0,1,8.79,12.14,28.11,28.11,0,0,1,10-12,25.86,25.86,0,0,1,14.69-4.36Q480.8,25.4,487.77,33Z"/><path class="cls-1" d="M562.46,29.23A28.62,28.62,0,0,1,574.14,40.7a34.55,34.55,0,0,1,4.09,17c0,1.7-.05,3-.13,3.89H517.29q.94,12.48,8.46,19.73t19.46,7.25a34.66,34.66,0,0,0,14.1-3,25.25,25.25,0,0,0,10.33-7.78l4,3.35a32.55,32.55,0,0,1-12.22,9.33A38.74,38.74,0,0,1,545.21,94a33.94,33.94,0,0,1-17.31-4.43A31.32,31.32,0,0,1,516,77.27a36.45,36.45,0,0,1-4.29-17.78,36.52,36.52,0,0,1,4.23-17.72A31,31,0,0,1,527.7,29.56a33.55,33.55,0,0,1,17.24-4.43A36.33,36.33,0,0,1,562.46,29.23Zm-36.71,8.32q-7.51,7.17-8.46,18.85h55.44a25.76,25.76,0,0,0-3.56-13.55,24.62,24.62,0,0,0-9.8-9.2,30.53,30.53,0,0,0-14.43-3.28Q533.27,30.37,525.75,37.55Z"/><path class="cls-1" d="M594,9.23a4.83,4.83,0,0,1-1.41-3.56A5,5,0,0,1,594,2.05a5.25,5.25,0,0,1,7.31,0,4.9,4.9,0,0,1,1.48,3.62,4.7,4.7,0,0,1-1.48,3.56,5.44,5.44,0,0,1-7.31,0Zm.87,17.11h5.64v66.3h-5.64Z"/><path class="cls-1" d="M664.39,29.29l-2.55,4.83a21.45,21.45,0,0,0-11.14-2.95,19.39,19.39,0,0,0-11.34,3.62,24.59,24.59,0,0,0-8.12,9.94,32.14,32.14,0,0,0-3,13.82V92.64h-5.64V26.34H628V41.1a28.3,28.3,0,0,1,9.46-11.34,23.09,23.09,0,0,1,13.36-4.09A24.54,24.54,0,0,1,664.39,29.29Z"/><path class="cls-1" d="M735.26,26.34v66.3h-5.37l-.13-14.76a27.34,27.34,0,0,1-11.34,11.61,34.54,34.54,0,0,1-17.12,4.23,33.59,33.59,0,0,1-17.18-4.37,30.62,30.62,0,0,1-11.74-12.14,36.52,36.52,0,0,1-4.23-17.72,36.52,36.52,0,0,1,4.23-17.72,30.75,30.75,0,0,1,11.74-12.14,33.58,33.58,0,0,1,17.18-4.36,34.16,34.16,0,0,1,17.12,4.29,27.78,27.78,0,0,1,11.34,11.68l.13-14.9ZM716.13,84.86a25.42,25.42,0,0,0,9.94-10.2,31.41,31.41,0,0,0,3.55-15.17,31.44,31.44,0,0,0-3.55-15.17,25.42,25.42,0,0,0-9.94-10.2,30.69,30.69,0,0,0-28.92,0,25.49,25.49,0,0,0-9.86,10.2,31.33,31.33,0,0,0-3.56,15.17,31.31,31.31,0,0,0,3.56,15.17,25.49,25.49,0,0,0,9.86,10.2,30.69,30.69,0,0,0,28.92,0Z"/><path class="cls-3" d="M300.67,210.34l-7.26-17.6H245.23L238,210.34H213.53l43.85-97.76h24.44l43.57,97.76Zm-31.14-75.83-16.06,38.54h31.84Z"/><path class="cls-3" d="M412.81,112.58v56.28q0,13.27-5.37,23A37.08,37.08,0,0,1,392.14,207q-9.92,5.3-23,5.3-20.39,0-31.77-11.31t-11.52-32h22.34q.15,11,5.59,17t15.36,5.93q9.78,0,15.29-6.07t5.52-17.25V132.41H361.42V112.58Z"/><path class="cls-3" d="M442.63,200.77Q431,189.12,431,168.16V112.58h22.9v55.58q0,11.18,5.66,17.6t15.85,6.42q9.92,0,15.64-6.42t5.72-17.6V112.58h22.91v55.58q0,21-11.59,32.61t-32.68,11.66Q454.29,212.43,442.63,200.77Z"/><path class="cls-3" d="M606,118.59a42.36,42.36,0,0,1,17.6,17.1q6.21,11.12,6.21,25.77t-6.21,25.77a42.36,42.36,0,0,1-17.6,17.1q-11.38,6-26.46,6H539.48V112.58h40.08Q594.64,112.58,606,118.59Zm-6.63,64q7.54-7.83,7.54-21.09a32.36,32.36,0,0,0-3.42-15.29,24.54,24.54,0,0,0-9.64-10.06,28.29,28.29,0,0,0-14.31-3.56H562.38v57.82h17.18Q591.85,190.37,599.39,182.55Z"/><path class="cls-3" d="M717.68,210.34l-7.27-17.6H662.23L655,210.34H630.53l43.85-97.76h24.44l43.58,97.76Zm-31.15-75.83-16.06,38.54h31.84Z"/></g></g></svg>