<svg width="428" height="377" viewBox="0 0 428 377" fill="none" xmlns="http://www.w3.org/2000/svg">
<path d="M237.316 111.569C68.1468 132.563 -53.5508 178.571 66.315 276.558C186.181 374.546 335.724 285.871 368.79 226.741C401.856 167.61 406.485 90.5754 237.316 111.569Z" fill="#7B2D26"/>
<path d="M231.308 258.867L234.075 260.466L143.161 274.609V272.58L231.308 258.867Z" fill="#E0E0E0"/>
<path d="M111.947 283.122C105.758 286.736 105.758 292.591 111.947 296.206C118.136 299.82 128.17 299.82 134.366 296.206C140.561 292.591 140.554 286.736 134.366 283.122C128.177 279.508 118.136 279.482 111.947 283.122Z" fill="#E0E0E0"/>
<path d="M206.571 230.478C191.6 239.222 191.6 253.391 206.571 262.129C221.543 270.866 245.81 270.866 260.775 262.129C275.74 253.391 275.74 239.222 260.775 230.478C245.81 221.734 221.562 221.766 206.571 230.478Z" fill="#E0E0E0"/>
<path d="M270.515 232.032C274.777 231.659 279.503 231.39 282.873 234.022C284.459 235.248 285.557 236.975 286.764 238.574C288.061 240.288 289.504 241.886 291.078 243.35C291.879 244.153 292.805 244.821 293.819 245.327C294.955 245.797 296.179 246.016 297.408 245.969C302.544 245.969 307.314 243.132 311.269 239.819C312.328 238.933 313.407 237.893 313.683 236.558C314.145 234.33 312.264 232.308 310.344 231.088C304.939 227.647 298.21 225.669 292.06 224.026C285.504 222.185 278.723 221.271 271.914 221.31C267.675 221.391 263.458 221.936 259.337 222.934C256.846 223.538 253.238 224.283 251.312 226.1C250.871 226.474 250.548 226.967 250.381 227.52C250.213 228.074 250.209 228.664 250.369 229.22C250.85 230.504 252.327 231.011 253.649 231.319C259.132 232.616 264.961 232.513 270.515 232.032Z" fill="#E0E0E0"/>
<path d="M270.579 57.138C271.298 57.0753 272.022 57.1164 272.729 57.26C273.411 57.3906 274.063 57.6428 274.655 58.0047C275.216 58.3472 275.696 58.8072 276.061 59.3529C276.391 59.8852 276.606 60.4806 276.692 61.1008C276.779 61.721 276.734 62.3524 276.562 62.9545C276.413 63.412 276.197 63.8447 275.92 64.2385C275.653 64.6255 275.352 64.9885 275.021 65.3235L274.084 66.2608C273.8 66.5433 273.543 66.8505 273.314 67.1789C273.109 67.4701 272.989 67.8123 272.967 68.1676C272.949 68.3319 272.89 68.4888 272.794 68.6234C272.748 68.6878 272.689 68.741 272.62 68.7789C272.551 68.8167 272.474 68.8382 272.396 68.8417L270.63 68.9893C270.546 68.9967 270.462 68.9874 270.381 68.9621C270.301 68.9368 270.226 68.8958 270.161 68.8417C270.096 68.7925 270.042 68.7286 270.005 68.655C269.968 68.5814 269.949 68.5002 269.95 68.4179C269.921 67.8651 270.007 67.3124 270.2 66.7937C270.38 66.3364 270.62 65.9047 270.913 65.5097C271.194 65.1284 271.508 64.7718 271.85 64.444C272.19 64.1165 272.492 63.802 272.787 63.5131C273.052 63.2462 273.286 62.9512 273.487 62.6335C273.662 62.361 273.741 62.0379 273.712 61.7155C273.692 61.4319 273.603 61.1575 273.453 60.9159C273.303 60.6743 273.097 60.4728 272.851 60.3287C272.24 59.9752 271.529 59.833 270.829 59.9243C270.201 59.9669 269.602 60.2026 269.114 60.5992C268.625 60.9957 268.271 61.5336 268.101 62.1392C268.052 62.2842 267.98 62.4207 267.889 62.5436C267.772 62.6469 267.621 62.7039 267.465 62.7041L265.59 62.8582C265.524 62.8665 265.457 62.861 265.393 62.8423C265.329 62.8235 265.269 62.7918 265.218 62.7491C265.164 62.7069 265.12 62.6535 265.089 62.5925C265.058 62.5315 265.041 62.4644 265.038 62.396C265.016 61.8079 265.14 61.2235 265.398 60.6947C265.664 60.0752 266.038 59.5079 266.502 59.0191C267.024 58.4979 267.627 58.0644 268.287 57.7351C269.003 57.3853 269.783 57.1823 270.579 57.138ZM272.608 70.2284C272.774 70.2187 272.937 70.274 273.063 70.3825C273.128 70.4335 273.181 70.4977 273.218 70.5708C273.256 70.6438 273.277 70.7241 273.282 70.8062L273.455 72.8477C273.466 73.013 273.413 73.1764 273.307 73.3036C273.255 73.3679 273.189 73.4205 273.115 73.4581C273.041 73.4957 272.96 73.5174 272.877 73.5218L270.887 73.6888C270.805 73.697 270.722 73.6881 270.644 73.6627C270.565 73.6372 270.493 73.5959 270.431 73.5411C270.367 73.4896 270.314 73.4254 270.275 73.3525C270.236 73.2796 270.213 73.1996 270.206 73.1174L270.04 71.0758C270.03 70.9937 270.038 70.9104 270.063 70.8317C270.089 70.753 270.131 70.6808 270.187 70.62C270.238 70.5547 270.302 70.5009 270.375 70.4622C270.448 70.4234 270.528 70.4006 270.611 70.3953L272.608 70.2284Z" fill="#031634"/>
<path d="M284.96 79.2807C285.506 79.4325 286.028 79.6639 286.507 79.9676C286.968 80.248 287.374 80.609 287.707 81.0334C288.018 81.4446 288.237 81.9174 288.349 82.4201C288.471 82.9577 288.449 83.5181 288.285 84.0444C288.179 84.4664 287.986 84.8619 287.72 85.2064C287.485 85.5038 287.209 85.7655 286.898 85.9832C286.593 86.1921 286.271 86.3747 285.935 86.5289L284.985 86.9655C284.7 87.0936 284.427 87.2484 284.17 87.4277C283.936 87.5858 283.753 87.809 283.643 88.0697C283.585 88.1867 283.496 88.2863 283.387 88.3586C283.336 88.3936 283.277 88.4164 283.216 88.4253C283.155 88.4342 283.092 88.429 283.034 88.41L281.692 88.0312C281.627 88.0155 281.567 87.9862 281.515 87.9452C281.463 87.9042 281.42 87.8525 281.39 87.7936C281.356 87.7398 281.334 87.6787 281.328 87.6152C281.321 87.5517 281.329 87.4875 281.352 87.4277C281.487 87.0135 281.705 86.6312 281.994 86.3042C282.254 86.0138 282.549 85.7571 282.873 85.5402C283.187 85.3361 283.517 85.1599 283.862 85.0138C284.202 84.8661 284.504 84.7249 284.805 84.5836C285.074 84.4622 285.328 84.3115 285.563 84.1342C285.771 83.9739 285.918 83.7474 285.98 83.4922C286.049 83.2743 286.062 83.0426 286.019 82.8183C285.975 82.594 285.876 82.3843 285.73 82.2082C285.378 81.7805 284.895 81.4805 284.356 81.3544C283.881 81.2119 283.374 81.22 282.904 81.3775C282.433 81.535 282.024 81.8341 281.73 82.2339C281.656 82.3272 281.567 82.4075 281.467 82.4715C281.353 82.5143 281.228 82.5143 281.114 82.4715L279.689 82.067C279.638 82.0547 279.591 82.0325 279.549 82.0017C279.507 81.9708 279.471 81.9319 279.445 81.8872C279.416 81.8405 279.398 81.7883 279.392 81.7341C279.385 81.6798 279.39 81.6248 279.406 81.5726C279.552 81.1335 279.804 80.7368 280.138 80.417C280.512 80.05 280.946 79.7503 281.422 79.5311C281.951 79.2923 282.514 79.1384 283.091 79.0753C283.721 79.0219 284.356 79.0916 284.96 79.2807ZM282.847 89.4821C282.91 89.4989 282.968 89.528 283.018 89.5677C283.069 89.6074 283.111 89.6569 283.143 89.7132C283.175 89.7701 283.196 89.8329 283.204 89.898C283.211 89.9631 283.206 90.0291 283.188 90.092L282.751 91.6392C282.734 91.7014 282.705 91.7596 282.665 91.8103C282.626 91.861 282.576 91.9033 282.52 91.9345C282.463 91.9667 282.4 91.9873 282.335 91.995C282.27 92.0027 282.204 91.9974 282.141 91.9795L280.626 91.5557C280.564 91.5385 280.506 91.5084 280.456 91.4675C280.407 91.4266 280.366 91.3757 280.337 91.3182C280.304 91.2629 280.282 91.2014 280.273 91.1373C280.264 91.0733 280.269 91.0081 280.286 90.9459L280.722 89.3922C280.741 89.3298 280.771 89.2716 280.812 89.2209C280.852 89.1702 280.903 89.1281 280.96 89.0969C281.016 89.0645 281.077 89.0438 281.141 89.0361C281.205 89.0284 281.27 89.0338 281.332 89.052L282.847 89.4821Z" fill="#031634"/>
<g opacity="0.2">
<path d="M284.96 79.2807C285.506 79.4325 286.028 79.6639 286.507 79.9676C286.968 80.248 287.374 80.609 287.707 81.0334C288.018 81.4446 288.237 81.9174 288.349 82.4201C288.471 82.9577 288.449 83.5181 288.285 84.0444C288.179 84.4664 287.986 84.8619 287.72 85.2064C287.485 85.5038 287.209 85.7655 286.898 85.9832C286.593 86.1921 286.271 86.3747 285.935 86.5289L284.985 86.9655C284.7 87.0936 284.427 87.2484 284.17 87.4277C283.936 87.5858 283.753 87.809 283.643 88.0697C283.585 88.1867 283.496 88.2863 283.387 88.3586C283.336 88.3936 283.277 88.4164 283.216 88.4253C283.155 88.4342 283.092 88.429 283.034 88.41L281.692 88.0312C281.627 88.0155 281.567 87.9862 281.515 87.9452C281.463 87.9042 281.42 87.8525 281.39 87.7936C281.356 87.7398 281.334 87.6787 281.328 87.6152C281.321 87.5517 281.329 87.4875 281.352 87.4277C281.487 87.0135 281.705 86.6312 281.994 86.3042C282.254 86.0138 282.549 85.7571 282.873 85.5402C283.187 85.3361 283.517 85.1599 283.862 85.0138C284.202 84.8661 284.504 84.7249 284.805 84.5836C285.074 84.4622 285.328 84.3115 285.563 84.1342C285.771 83.9739 285.918 83.7474 285.98 83.4922C286.049 83.2743 286.062 83.0426 286.019 82.8183C285.975 82.594 285.876 82.3843 285.73 82.2082C285.378 81.7805 284.895 81.4805 284.356 81.3544C283.881 81.2119 283.374 81.22 282.904 81.3775C282.433 81.535 282.024 81.8341 281.73 82.2339C281.656 82.3272 281.567 82.4075 281.467 82.4715C281.353 82.5143 281.228 82.5143 281.114 82.4715L279.689 82.067C279.638 82.0547 279.591 82.0325 279.549 82.0017C279.507 81.9708 279.471 81.9319 279.445 81.8872C279.416 81.8405 279.398 81.7883 279.392 81.7341C279.385 81.6798 279.39 81.6248 279.406 81.5726C279.552 81.1335 279.804 80.7368 280.138 80.417C280.512 80.05 280.946 79.7503 281.422 79.5311C281.951 79.2923 282.514 79.1384 283.091 79.0753C283.721 79.0219 284.356 79.0916 284.96 79.2807ZM282.847 89.4821C282.91 89.4989 282.968 89.528 283.018 89.5677C283.069 89.6074 283.111 89.6569 283.143 89.7132C283.175 89.7701 283.196 89.8329 283.204 89.898C283.211 89.9631 283.206 90.0291 283.188 90.092L282.751 91.6392C282.734 91.7014 282.705 91.7596 282.665 91.8103C282.626 91.861 282.576 91.9033 282.52 91.9345C282.463 91.9667 282.4 91.9873 282.335 91.995C282.27 92.0027 282.204 91.9974 282.141 91.9795L280.626 91.5557C280.564 91.5385 280.506 91.5084 280.456 91.4675C280.407 91.4266 280.366 91.3757 280.337 91.3182C280.304 91.2629 280.282 91.2014 280.273 91.1373C280.264 91.0733 280.269 91.0081 280.286 90.9459L280.722 89.3922C280.741 89.3298 280.771 89.2716 280.812 89.2209C280.852 89.1702 280.903 89.1281 280.96 89.0969C281.016 89.0645 281.077 89.0438 281.141 89.0361C281.205 89.0284 281.27 89.0338 281.332 89.052L282.847 89.4821Z" fill="#242424"/>
</g>
<path d="M291.912 71.9683C291.966 72.0024 292.012 72.0475 292.048 72.1005C292.083 72.1536 292.107 72.2135 292.118 72.2764C292.131 72.338 292.131 72.4016 292.119 72.4634C292.107 72.5251 292.083 72.5838 292.047 72.6359L291.168 73.9199C291.134 73.9738 291.088 74.02 291.035 74.0554C290.982 74.0908 290.922 74.1146 290.86 74.1254C290.798 74.138 290.734 74.1383 290.673 74.1261C290.611 74.114 290.552 74.0897 290.5 74.0548L289.216 73.1945C289.163 73.16 289.118 73.1147 289.084 73.0616C289.049 73.0085 289.027 72.9488 289.017 72.8863C289.004 72.8247 289.004 72.7612 289.016 72.6995C289.028 72.6378 289.053 72.5791 289.088 72.5268L289.967 71.2428C290.039 71.1456 290.145 71.0787 290.263 71.0549C290.382 71.0312 290.505 71.0524 290.609 71.1144L291.912 71.9683ZM296.984 63.1793C297.441 63.4884 297.851 63.8601 298.204 64.2835C298.544 64.6846 298.809 65.1434 298.987 65.6381C299.16 66.1123 299.225 66.6187 299.18 67.1212C299.129 67.6572 298.938 68.1706 298.628 68.6106C298.398 68.9658 298.101 69.2732 297.755 69.5158C297.444 69.7164 297.107 69.872 296.753 69.9781C296.407 70.08 296.052 70.1509 295.694 70.1899L294.686 70.2991C294.381 70.3325 294.08 70.3949 293.787 70.4852C293.526 70.5592 293.291 70.7036 293.107 70.9025C293.021 70.9972 292.909 71.0643 292.786 71.0951C292.727 71.1118 292.665 71.1147 292.605 71.1035C292.545 71.0924 292.488 71.0676 292.439 71.0309L291.315 70.2734C291.262 70.2384 291.217 70.1931 291.181 70.1401C291.146 70.0872 291.122 70.0277 291.11 69.9652C291.093 69.9035 291.091 69.8386 291.104 69.776C291.118 69.7134 291.146 69.655 291.187 69.6057C291.439 69.2675 291.753 68.9799 292.111 68.7583C292.44 68.5709 292.792 68.4263 293.158 68.3281C293.509 68.2335 293.868 68.169 294.23 68.1355C294.59 68.1355 294.923 68.0713 295.238 68.0328C295.522 67.9999 295.802 67.9375 296.073 67.8466C296.307 67.7639 296.51 67.6088 296.65 67.4036C296.773 67.2245 296.851 67.0182 296.877 66.8023C296.903 66.5865 296.876 66.3676 296.798 66.1646C296.606 65.6597 296.251 65.2329 295.79 64.9512C295.395 64.6753 294.924 64.5274 294.442 64.5274C293.96 64.5274 293.489 64.6753 293.094 64.9512C292.998 65.0162 292.891 65.064 292.779 65.0924C292.659 65.0994 292.541 65.0629 292.445 64.9897L291.251 64.2001C291.208 64.1732 291.171 64.1377 291.142 64.0957C291.113 64.0537 291.094 64.0061 291.084 63.9561C291.071 63.9042 291.07 63.8501 291.082 63.7979C291.093 63.7456 291.116 63.6965 291.148 63.6544C291.418 63.295 291.77 63.0064 292.176 62.8133C292.636 62.5834 293.134 62.4398 293.646 62.3896C294.208 62.3279 294.776 62.3582 295.328 62.4795C295.919 62.6053 296.482 62.8429 296.984 63.1793Z" fill="#031634"/>
<g opacity="0.6">
<path d="M291.912 71.9683C291.966 72.0024 292.012 72.0475 292.048 72.1005C292.083 72.1536 292.107 72.2135 292.118 72.2764C292.131 72.338 292.131 72.4016 292.119 72.4634C292.107 72.5251 292.083 72.5838 292.047 72.6359L291.168 73.9199C291.134 73.9738 291.088 74.02 291.035 74.0554C290.982 74.0908 290.922 74.1146 290.86 74.1254C290.798 74.138 290.734 74.1383 290.673 74.1261C290.611 74.114 290.552 74.0897 290.5 74.0548L289.216 73.1945C289.163 73.16 289.118 73.1147 289.084 73.0616C289.049 73.0085 289.027 72.9488 289.017 72.8863C289.004 72.8247 289.004 72.7612 289.016 72.6995C289.028 72.6378 289.053 72.5791 289.088 72.5268L289.967 71.2428C290.039 71.1456 290.145 71.0787 290.263 71.0549C290.382 71.0312 290.505 71.0524 290.609 71.1144L291.912 71.9683ZM296.984 63.1793C297.441 63.4884 297.851 63.8601 298.204 64.2835C298.544 64.6846 298.809 65.1434 298.987 65.6381C299.16 66.1123 299.225 66.6187 299.18 67.1212C299.129 67.6572 298.938 68.1706 298.628 68.6106C298.398 68.9658 298.101 69.2732 297.755 69.5158C297.444 69.7164 297.107 69.872 296.753 69.9781C296.407 70.08 296.052 70.1509 295.694 70.1899L294.686 70.2991C294.381 70.3325 294.08 70.3949 293.787 70.4852C293.526 70.5592 293.291 70.7036 293.107 70.9025C293.021 70.9972 292.909 71.0643 292.786 71.0951C292.727 71.1118 292.665 71.1147 292.605 71.1035C292.545 71.0924 292.488 71.0676 292.439 71.0309L291.315 70.2734C291.262 70.2384 291.217 70.1931 291.181 70.1401C291.146 70.0872 291.122 70.0277 291.11 69.9652C291.093 69.9035 291.091 69.8386 291.104 69.776C291.118 69.7134 291.146 69.655 291.187 69.6057C291.439 69.2675 291.753 68.9799 292.111 68.7583C292.44 68.5709 292.792 68.4263 293.158 68.3281C293.509 68.2335 293.868 68.169 294.23 68.1355C294.59 68.1355 294.923 68.0713 295.238 68.0328C295.522 67.9999 295.802 67.9375 296.073 67.8466C296.307 67.7639 296.51 67.6088 296.65 67.4036C296.773 67.2245 296.851 67.0182 296.877 66.8023C296.903 66.5865 296.876 66.3676 296.798 66.1646C296.606 65.6597 296.251 65.2329 295.79 64.9512C295.395 64.6753 294.924 64.5274 294.442 64.5274C293.96 64.5274 293.489 64.6753 293.094 64.9512C292.998 65.0162 292.891 65.064 292.779 65.0924C292.659 65.0994 292.541 65.0629 292.445 64.9897L291.251 64.2001C291.208 64.1732 291.171 64.1377 291.142 64.0957C291.113 64.0537 291.094 64.0061 291.084 63.9561C291.071 63.9042 291.07 63.8501 291.082 63.7979C291.093 63.7456 291.116 63.6965 291.148 63.6544C291.418 63.295 291.77 63.0064 292.176 62.8133C292.636 62.5834 293.134 62.4398 293.646 62.3896C294.208 62.3279 294.776 62.3582 295.328 62.4795C295.919 62.6053 296.482 62.8429 296.984 63.1793Z" fill="white"/>
</g>
<path d="M133.377 291.352C138.84 285.716 142.05 262.758 136.722 258.283H109.591C104.262 262.777 107.466 285.703 112.929 291.346L113.083 291.506L113.269 291.693C113.423 291.84 113.59 291.988 113.764 292.136C113.809 292.166 113.852 292.201 113.892 292.238C114.027 292.341 114.162 292.45 114.309 292.553C114.535 292.719 114.771 292.871 115.016 293.009C119.51 295.635 126.803 295.635 131.297 293.009C131.545 292.871 131.783 292.717 132.009 292.546C132.144 292.457 132.266 292.354 132.395 292.258L132.555 292.129C132.722 291.988 132.882 291.847 133.03 291.699L133.248 291.487L133.377 291.352Z" fill="#455A64"/>
<path d="M111.947 256.479C105.758 260.093 105.758 265.955 111.947 269.569C118.136 273.184 128.17 273.184 134.365 269.569C140.561 265.955 140.554 260.093 134.365 256.479C128.177 252.865 118.136 252.865 111.947 256.479Z" fill="#455A64"/>
<g opacity="0.1">
<path d="M111.947 256.479C105.758 260.093 105.758 265.955 111.947 269.569C118.136 273.184 128.17 273.184 134.365 269.569C140.561 265.955 140.554 260.093 134.365 256.479C128.177 252.865 118.136 252.865 111.947 256.479Z" fill="white"/>
</g>
<path d="M114.926 258.219C110.38 260.87 110.38 265.178 114.926 267.849C119.471 270.52 126.841 270.507 131.387 267.849C135.932 265.191 135.932 260.89 131.387 258.219C126.841 255.548 119.484 255.567 114.926 258.219Z" fill="#263238"/>
<path d="M131.387 262.783C126.841 260.126 119.471 260.126 114.926 262.783C113.82 263.382 112.884 264.25 112.204 265.306C112.888 266.36 113.823 267.227 114.926 267.829C119.471 270.487 126.841 270.487 131.387 267.829C132.489 267.227 133.425 266.36 134.109 265.306C133.428 264.25 132.492 263.382 131.387 262.783Z" fill="#F5F5F5"/>
<path d="M108.114 213.748L118.964 221.169L108.692 217.285C108.781 220.03 109.474 222.722 110.721 225.169C110.721 225.169 117.494 228.456 121.179 231.923L112.165 229.085C111.883 230.658 111.979 232.276 112.448 233.804C112.506 234.009 112.57 234.227 112.64 234.446C113.115 235.89 113.796 238.619 114.952 241.854C115.931 244.685 117.18 247.415 118.682 250.008C119.424 251.284 120.252 252.509 121.16 253.674C121.211 253.751 121.269 253.821 121.327 253.892C123 252.775 124.742 251.681 126.552 250.611C127.599 247.953 128.748 241.482 128.954 236.23C129.756 216.136 113.867 205.774 101.508 202.795C101.508 202.795 106.002 207.726 108.114 213.748Z" fill="#031634"/>
<path opacity="0.3" d="M108.114 213.748L118.964 221.169L108.692 217.285C108.781 220.03 109.474 222.722 110.721 225.169C110.721 225.169 117.494 228.456 121.179 231.923L112.165 229.085C111.883 230.658 111.979 232.276 112.448 233.804C112.506 234.009 112.57 234.227 112.64 234.446C113.115 235.89 113.796 238.619 114.952 241.854C115.931 244.685 117.18 247.415 118.682 250.008C119.424 251.284 120.252 252.509 121.16 253.674C121.211 253.751 121.269 253.821 121.327 253.892C123 252.775 124.742 251.681 126.552 250.611C127.599 247.953 128.748 241.482 128.954 236.23C129.756 216.136 113.867 205.774 101.508 202.795C101.508 202.795 106.002 207.726 108.114 213.748Z" fill="#242424"/>
<path d="M116.768 213.979C117.871 214.965 118.821 216.109 119.587 217.375C120.346 218.644 121.009 219.968 121.57 221.336C122.682 224.073 123.489 226.923 123.978 229.836C125.045 235.651 124.717 241.635 123.021 247.299C122.999 247.373 123.007 247.452 123.043 247.521C123.079 247.589 123.14 247.641 123.214 247.664C123.287 247.686 123.366 247.679 123.434 247.642C123.501 247.606 123.551 247.545 123.574 247.472C125.198 241.713 125.434 235.652 124.26 229.785C123.717 226.864 122.856 224.012 121.692 221.278C121.105 219.916 120.419 218.598 119.638 217.336C118.85 216.083 117.883 214.952 116.768 213.979Z" fill="#FAFAFA"/>
<path d="M154.698 224.013C154.454 224.328 150.608 227.679 144.715 237.701L132.761 240.75L142.48 241.623L137.986 249.43L127.83 251.921L135.887 252.948C135.887 252.948 133.961 260.87 128.35 264.356C125.243 266.282 123.708 266.616 122.72 265.749C122.026 265.14 121.731 261.39 121.044 258.045C120.357 254.701 120.1 249.263 123.009 242.567C123.802 240.773 124.848 239.102 126.116 237.604C133.39 228.822 147.591 224.186 154.698 224.013Z" fill="#031634"/>
<path opacity="0.15" d="M154.698 224.013C154.454 224.328 150.608 227.679 144.715 237.701L132.761 240.75L142.48 241.623L137.986 249.43L127.83 251.921L135.887 252.948C135.887 252.948 133.961 260.87 128.35 264.356C125.243 266.282 123.708 266.616 122.72 265.749C122.026 265.14 121.731 261.39 121.044 258.045C120.357 254.701 120.1 249.263 123.009 242.567C123.802 240.773 124.848 239.102 126.116 237.604C133.39 228.822 147.591 224.186 154.698 224.013Z" fill="#242424"/>
<path opacity="0.1" d="M125.262 245.95C124.163 248.748 123.469 251.688 123.201 254.681C123.015 258.469 123.06 262.263 123.336 266.045C123.119 265.976 122.919 265.865 122.745 265.717C122.052 265.108 121.757 261.358 121.07 258.013C120.383 254.669 120.126 249.231 123.034 242.535C123.828 240.741 124.874 239.07 126.142 237.572C133.415 228.809 147.616 224.174 154.723 224C143.886 226.202 132.446 233.913 126.983 242.573C126.315 243.649 125.739 244.778 125.262 245.95Z" fill="#242424"/>
<path d="M143.88 227.852C138.571 230.42 133.608 233.881 129.756 238.445C127.801 240.708 126.219 243.267 125.069 246.027C123.953 248.79 123.302 251.719 123.143 254.694C123.154 254.698 123.165 254.698 123.175 254.694C123.618 251.787 124.43 248.948 125.589 246.246C126.743 243.551 128.254 241.025 130.083 238.734C131.951 236.458 134.08 234.408 136.426 232.629C138.781 230.834 141.293 229.255 143.931 227.91V227.859L143.88 227.852Z" fill="#FAFAFA"/>
<path d="M91.3837 231.602C92.2603 231.549 93.1393 231.549 94.0159 231.602C97.4722 231.812 100.89 232.446 104.192 233.489C105.418 233.874 106.65 234.311 107.864 234.812C108.474 235.062 109.077 235.325 109.668 235.608C112.622 236.946 115.333 238.769 117.686 241C118.785 242.068 119.744 243.27 120.543 244.576C120.646 244.743 120.755 244.91 120.851 245.084C121.095 245.533 121.327 245.969 121.538 246.406C123.542 250.167 124.558 254.375 124.492 258.636C124.549 261.641 123.715 265.12 123.169 265.698C123.093 265.777 123.009 265.848 122.919 265.91C122.091 266.501 120.717 266.257 118.104 264.979C112.859 262.411 110.464 255.349 110.464 255.349L117.462 253.757L108.288 252.473L104.281 246.926L111.003 245.244L101.707 244.345C98.5282 239.899 95.0852 235.648 91.3965 231.614L91.3837 231.602Z" fill="#031634"/>
<path opacity="0.05" d="M94.0158 231.576C97.4722 231.786 100.89 232.42 104.191 233.463C105.418 233.849 106.65 234.285 107.864 234.786C108.474 235.036 109.077 235.3 109.668 235.582C112.622 236.92 115.332 238.743 117.686 240.975C118.785 242.043 119.744 243.244 120.543 244.551C120.646 244.718 120.755 244.885 120.851 245.058C121.095 245.507 121.326 245.944 121.538 246.38C123.542 250.141 124.558 254.35 124.492 258.611C124.549 261.615 123.715 265.095 123.169 265.673C123.093 265.752 123.009 265.823 122.919 265.884C122.75 265.995 122.563 266.076 122.367 266.122C122.739 261.442 119.799 249.796 116.075 245.141C112.223 240.307 103.235 233.47 91.39 231.602C92.2641 231.543 93.1408 231.535 94.0158 231.576Z" fill="#242424"/>
<path d="M119.85 289.003C71.8861 261.294 71.8861 216.418 119.85 188.748C167.814 161.078 245.573 161.059 293.53 188.748C341.488 216.437 341.494 261.333 293.53 289.022C245.566 316.711 167.814 316.692 119.85 289.003Z" fill="#F5F5F5"/>
<path d="M129.563 108.498V110.951C129.563 111.727 130.109 112.042 130.777 111.65L133.146 110.283V105.025L130.777 106.392C130.424 106.624 130.13 106.935 129.919 107.301C129.709 107.666 129.587 108.077 129.563 108.498Z" fill="#E0E0E0"/>
<path d="M133.146 188.973L123.259 194.687C122.905 194.916 122.611 195.226 122.4 195.591C122.189 195.955 122.068 196.365 122.046 196.786V199.245C122.046 200.015 122.585 200.33 123.259 199.945L133.146 194.237V188.973Z" fill="#E0E0E0"/>
<path d="M122.052 106.386V108.845C122.052 109.615 122.591 109.93 123.265 109.545L133.152 103.831V98.5728L123.265 104.287C122.912 104.516 122.618 104.826 122.407 105.191C122.196 105.555 122.074 105.965 122.052 106.386Z" fill="#E0E0E0"/>
<path d="M127.393 134.178L116.158 140.669C115.806 140.899 115.513 141.209 115.302 141.574C115.091 141.939 114.969 142.348 114.945 142.768V145.227C114.945 145.997 115.491 146.312 116.158 145.927L127.393 139.442C127.747 139.212 128.041 138.901 128.252 138.535C128.463 138.169 128.585 137.758 128.607 137.337V134.884C128.607 134.075 128.068 133.761 127.393 134.178Z" fill="#E0E0E0"/>
<path d="M133.146 163.145L123.259 168.859C122.905 169.088 122.611 169.398 122.4 169.763C122.189 170.128 122.068 170.537 122.046 170.958V173.417C122.046 174.187 122.585 174.502 123.259 174.117L133.146 168.403V163.145Z" fill="#E0E0E0"/>
<path d="M122.052 80.5583V83.0107C122.052 83.7875 122.591 84.1021 123.265 83.7169L133.152 78.0031V72.7451L123.265 78.4589C122.911 78.6875 122.616 78.9971 122.405 79.3622C122.194 79.7272 122.073 80.1372 122.052 80.5583Z" fill="#E0E0E0"/>
<path d="M133.146 227.717L123.259 233.431C122.905 233.661 122.611 233.97 122.4 234.335C122.189 234.7 122.068 235.11 122.046 235.531V237.989C122.046 238.76 122.585 239.074 123.259 238.689L133.146 232.975V227.717Z" fill="#E0E0E0"/>
<path d="M110.791 158.202V160.654C110.791 161.431 111.331 161.746 112.005 161.354L123.233 154.87C123.588 154.641 123.883 154.331 124.095 153.966C124.307 153.602 124.43 153.192 124.453 152.77V150.312C124.453 149.541 123.907 149.227 123.233 149.612L112.005 156.096C111.651 156.327 111.357 156.638 111.146 157.004C110.935 157.37 110.814 157.78 110.791 158.202Z" fill="#E0E0E0"/>
<path d="M122.052 132.214V134.672C122.052 135.443 122.591 135.757 123.265 135.372L133.152 129.665V124.4L123.265 130.114C122.912 130.344 122.618 130.653 122.407 131.018C122.196 131.383 122.074 131.793 122.052 132.214Z" fill="#E0E0E0"/>
<path d="M121.089 173.982V171.53C121.089 170.753 120.543 170.438 119.876 170.83L108.641 177.314C108.288 177.545 107.995 177.855 107.784 178.219C107.573 178.584 107.451 178.993 107.427 179.413V181.872C107.427 182.643 107.973 182.957 108.641 182.572L119.876 176.088C120.229 175.856 120.522 175.545 120.733 175.179C120.944 174.814 121.066 174.404 121.089 173.982Z" fill="#E0E0E0"/>
<path d="M116.158 236.295L127.393 229.81C127.747 229.58 128.041 229.269 128.252 228.903C128.463 228.537 128.585 228.126 128.607 227.705V225.252C128.607 224.475 128.068 224.161 127.393 224.552L116.158 231.037C115.806 231.267 115.513 231.577 115.302 231.942C115.091 232.306 114.969 232.715 114.945 233.136V235.614C114.945 236.365 115.491 236.68 116.158 236.295Z" fill="#E0E0E0"/>
<path d="M121.147 73.2779L109.912 79.7621C109.558 79.9915 109.264 80.3013 109.053 80.6661C108.842 81.031 108.721 81.4406 108.698 81.8614V84.3203C108.698 85.0907 109.238 85.4053 109.912 85.0201L121.147 78.5359C121.5 78.3044 121.793 77.9932 122.004 77.6275C122.215 77.2617 122.337 76.8516 122.36 76.4301V73.9777C122.36 73.188 121.814 72.8863 121.147 73.2779Z" fill="#E0E0E0"/>
<path d="M127.393 82.4906L116.158 88.9748C115.805 89.2063 115.512 89.5175 115.301 89.8833C115.09 90.249 114.968 90.6591 114.945 91.0806V93.533C114.945 94.3098 115.491 94.6244 116.158 94.2328L127.393 87.7486C127.747 87.5192 128.041 87.2094 128.252 86.8446C128.463 86.4797 128.585 86.0701 128.607 85.6493V83.1904C128.607 82.42 128.068 82.1054 127.393 82.4906Z" fill="#E0E0E0"/>
<path d="M127.393 108.318L116.158 114.809C115.805 115.039 115.511 115.349 115.3 115.713C115.09 116.078 114.968 116.488 114.945 116.908V119.367C114.945 120.137 115.491 120.452 116.158 120.067L127.393 113.576C127.747 113.347 128.041 113.037 128.252 112.672C128.463 112.307 128.585 111.898 128.607 111.477V109.018C128.607 108.248 128.068 107.933 127.393 108.318Z" fill="#E0E0E0"/>
<path d="M116.158 184.639L127.393 178.149C127.748 177.92 128.043 177.611 128.253 177.245C128.464 176.88 128.586 176.47 128.607 176.049V173.591C128.607 172.82 128.068 172.506 127.393 172.891L116.158 179.381C115.805 179.611 115.511 179.921 115.3 180.286C115.09 180.651 114.968 181.06 114.945 181.481V183.94C114.945 184.71 115.491 185.025 116.158 184.639Z" fill="#E0E0E0"/>
<path d="M133.146 201.89L123.259 207.604C122.905 207.832 122.61 208.142 122.399 208.507C122.188 208.872 122.067 209.282 122.046 209.703V212.155C122.046 212.932 122.585 213.247 123.259 212.862L133.146 207.148V201.89Z" fill="#E0E0E0"/>
<path d="M238.093 53.851V56.3035C238.073 56.7273 237.952 57.1401 237.741 57.5083C237.53 57.8766 237.235 58.1897 236.88 58.4221L234.511 59.7895V54.5187L236.88 53.1512C237.548 52.766 238.093 53.0742 238.093 53.851Z" fill="#E0E0E0"/>
<path d="M234.511 138.479L244.404 132.772C245.046 132.38 245.618 132.695 245.618 133.472V135.924C245.594 136.346 245.472 136.756 245.262 137.122C245.051 137.487 244.757 137.799 244.404 138.03L234.511 143.737V138.479Z" fill="#E0E0E0"/>
<path d="M245.618 43.0718V45.5243C245.594 45.9457 245.472 46.3559 245.262 46.7216C245.051 47.0873 244.757 47.3985 244.404 47.63L234.511 53.3374V48.0794L244.404 42.372C245.072 41.9804 245.618 42.295 245.618 43.0718Z" fill="#E0E0E0"/>
<path d="M240.263 77.0401L251.498 70.5495C252.14 70.1643 252.712 70.4789 252.712 71.2493V73.7081C252.689 74.1288 252.567 74.5382 252.356 74.903C252.146 75.2678 251.852 75.5777 251.498 75.8074L240.263 82.2981C239.589 82.6833 239.05 82.3687 239.05 81.5983V79.1394C239.072 78.7186 239.194 78.309 239.405 77.9441C239.616 77.5792 239.91 77.2695 240.263 77.0401Z" fill="#E0E0E0"/>
<path d="M234.511 112.652L244.404 106.944C245.046 106.553 245.618 106.867 245.618 107.644V110.097C245.594 110.518 245.472 110.928 245.262 111.294C245.051 111.66 244.757 111.971 244.404 112.202L234.511 117.91V112.652Z" fill="#E0E0E0"/>
<path d="M245.618 17.2378V19.6966C245.6 20.1229 245.481 20.5387 245.269 20.9095C245.058 21.2802 244.762 21.5952 244.404 21.8281L234.511 27.5419V22.2518L244.404 16.538C245.072 16.1528 245.618 16.4674 245.618 17.2378Z" fill="#E0E0E0"/>
<path d="M234.511 177.224L244.404 171.517C245.046 171.125 245.618 171.44 245.618 172.217V174.669C245.594 175.09 245.472 175.501 245.262 175.866C245.051 176.232 244.757 176.543 244.404 176.775L234.511 182.482V177.224Z" fill="#E0E0E0"/>
<path d="M256.872 81.8871V84.346C256.848 84.7665 256.726 85.1755 256.515 85.5401C256.304 85.9048 256.011 86.2148 255.659 86.4453L244.424 92.9295C243.749 93.3211 243.21 93.0066 243.21 92.2297V89.7773C243.233 89.3556 243.354 88.9451 243.565 88.5792C243.776 88.2133 244.07 87.9023 244.424 87.6715L255.659 81.1873C256.326 80.8021 256.872 81.1167 256.872 81.8871Z" fill="#E0E0E0"/>
<path d="M245.618 68.8995V71.352C245.595 71.7736 245.473 72.1839 245.262 72.5497C245.052 72.9155 244.758 73.2266 244.404 73.4577L234.511 79.1651V73.9071L244.404 68.1997C245.072 67.8081 245.618 68.1227 245.618 68.8995Z" fill="#E0E0E0"/>
<path d="M246.6 109.532V107.079C246.623 106.658 246.745 106.247 246.955 105.882C247.166 105.516 247.46 105.205 247.813 104.973L259.048 98.4893C259.722 98.1041 260.262 98.4122 260.262 99.1891V101.648C260.239 102.069 260.118 102.478 259.907 102.843C259.696 103.208 259.402 103.518 259.048 103.747L247.813 110.231C247.114 110.623 246.6 110.309 246.6 109.532Z" fill="#E0E0E0"/>
<path d="M251.498 166.188L240.263 172.698C239.589 173.083 239.05 172.769 239.05 171.998V169.488C239.072 169.067 239.194 168.658 239.405 168.293C239.616 167.928 239.91 167.618 240.263 167.389L251.498 160.904C252.14 160.513 252.712 160.827 252.712 161.604V164.057C252.692 164.483 252.572 164.898 252.361 165.268C252.151 165.639 251.855 165.954 251.498 166.188Z" fill="#E0E0E0"/>
<path d="M240.263 25.3526L251.498 18.8684C252.14 18.4832 252.712 18.7978 252.712 19.5682V22.0271C252.688 22.4476 252.566 22.8566 252.355 23.2212C252.144 23.5859 251.851 23.8959 251.498 24.1264L240.263 30.6106C239.589 31.0022 239.05 30.6877 239.05 29.9108V27.4584C239.072 27.0367 239.194 26.6262 239.405 26.2603C239.616 25.8944 239.91 25.5834 240.263 25.3526Z" fill="#E0E0E0"/>
<path d="M240.263 51.1803L251.498 44.6961C252.14 44.3109 252.712 44.6255 252.712 45.3959V47.8547C252.688 48.2752 252.566 48.6842 252.355 49.0489C252.144 49.4135 251.851 49.7235 251.498 49.9541L240.263 56.4447C239.589 56.8299 239.05 56.5153 239.05 55.7385V53.286C239.072 52.8643 239.194 52.4538 239.405 52.0879C239.616 51.722 239.91 51.411 240.263 51.1803Z" fill="#E0E0E0"/>
<path d="M251.498 114.527L240.263 121.017C239.589 121.402 239.05 121.088 239.05 120.311V117.858C239.072 117.437 239.194 117.026 239.405 116.66C239.616 116.294 239.91 115.983 240.263 115.753L251.498 109.269C252.14 108.883 252.712 109.198 252.712 109.968V112.427C252.688 112.848 252.566 113.257 252.355 113.621C252.144 113.986 251.851 114.296 251.498 114.527Z" fill="#E0E0E0"/>
<path d="M234.511 151.397L244.404 145.683C245.046 145.298 245.618 145.612 245.618 146.382V148.841C245.594 149.262 245.472 149.671 245.261 150.035C245.05 150.4 244.757 150.71 244.404 150.941L234.511 156.648V151.397Z" fill="#E0E0E0"/>
<path d="M143.161 178.194L224.207 225.008V29.1212L143.161 75.9422V178.194Z" fill="#031634"/>
<path opacity="0.4" d="M143.161 178.194L224.207 225.008V29.1212L143.161 75.9422V178.194Z" fill="#242424"/>
<path d="M224.207 225.008L143.161 178.194V271.784L224.207 225.008Z" fill="#E0E0E0"/>
<path d="M224.207 225.008L227.995 227.185V26.932L224.207 29.1212V225.008Z" fill="#031634"/>
<path opacity="0.4" d="M224.207 225.008L227.995 227.185V26.932L224.207 29.1212V225.008Z" fill="white"/>
<path opacity="0.1" d="M224.207 225.008L227.995 227.185V26.932L224.207 29.1212V225.008Z" fill="#242424"/>
<path d="M227.995 227.185L234.511 223.423V13.1932L136.876 69.5608L136.882 279.79L143.161 276.163V75.9423L227.995 26.932V227.185Z" fill="#031634"/>
<path opacity="0.7" d="M227.995 227.185L234.511 223.423V13.1932L136.876 69.5608L136.882 279.79L143.161 276.163V75.9423L227.995 26.932V227.185Z" fill="white"/>
<path d="M234.511 13.1932L136.876 69.5608L133.146 67.3908L230.781 11.0297L234.511 13.1932Z" fill="#031634"/>
<path opacity="0.85" d="M234.511 13.1932L136.876 69.5608L133.146 67.3908L230.781 11.0297L234.511 13.1932Z" fill="white"/>
<path d="M136.876 279.79V69.5608L133.146 67.3909L133.088 277.601L136.876 279.79Z" fill="#031634"/>
<path opacity="0.6" d="M133.146 67.3909L133.088 277.601L136.876 279.79V69.5608" fill="white"/>
<path d="M238.96 245.886C238.819 247.414 239.814 251.394 239.814 251.394C239.814 251.394 240.661 252.678 243.075 253.269L243.242 247.491L238.96 245.886Z" fill="#263238"/>
<path d="M243.075 253.237L247.839 250.829L248.366 246.201L243.172 249.905L243.075 253.237Z" fill="#242424"/>
<path d="M246.696 239.216L246.6 238.246C247.332 238.477 249.251 243.889 251.852 247.343C254.227 250.496 258.182 251.837 259.601 253.16C261.494 254.913 258.798 257.962 253.668 257.654C251.1 257.5 247.152 256.498 245.887 254.99C244.623 253.481 243.807 250.496 242.793 249.378C241.779 248.261 239.583 247.176 238.973 245.847C238.626 245.116 238.755 243.421 238.973 241.995C239.166 240.667 239.378 239.209 239.833 239.28C239.833 239.44 239.943 240.095 239.943 240.095C240.097 240.737 240.95 241.418 243.615 241.129C244.796 240.988 246.908 240.532 246.696 239.216Z" fill="#455A64"/>
<path d="M194.155 216.29C193.34 217.413 191.902 225.278 191.902 225.278C191.902 225.278 193.783 228.026 194.868 228.86L198.354 221.464L194.155 216.29Z" fill="#263238"/>
<path d="M194.868 228.828L201.262 227.358L203.637 222.434L196.98 224.289L194.868 228.828Z" fill="#242424"/>
<path d="M198.919 211.301C198.553 211.025 198.026 211.744 196.749 212.887C195.85 213.69 193.911 214.447 193.911 216.739C193.911 218.389 195.009 220.424 196.062 222.132C197.115 223.84 197.269 225.374 197.262 227.801C197.262 230.735 196.723 232.532 200.331 235.145C203.22 237.232 209.088 237.617 210.378 236.429C212.587 234.362 207.432 231.524 206.591 227.294C205.435 221.458 205.307 220.482 205.467 216.38L198.919 211.301Z" fill="#455A64"/>
<path d="M255.376 139.571C252.564 141.092 244.026 141.497 232.046 138.929L233.465 173.597C233.465 173.597 222.968 181.044 219.739 185.108C216.509 189.172 200.979 208.913 200.979 208.913L198.835 211.398C197.506 212.938 198.193 215.019 199.734 216.347C201.217 217.567 203.149 218.428 204.594 217.169L206.366 215.628C206.366 215.628 241.072 188.876 242.318 187.169C243.563 185.461 246.484 181.224 249.637 172.281C253.707 160.808 254.387 152.501 255.376 139.571Z" fill="#FFA8A7"/>
<path d="M255.37 139.571C247.788 143.05 232.547 141.863 232.547 141.863L233.246 173.545C229.414 175.877 225.826 178.589 222.538 181.641C217.992 186.019 211.059 195.123 211.059 195.123C213.434 201.806 220.201 204.926 220.201 204.926C220.201 204.926 234.434 194.956 242.395 189.313C246.561 186.366 249.694 184.723 250.946 179.927C251.931 176.255 252.69 172.527 253.219 168.762C253.899 164.622 254.227 159.909 254.625 156.423C255.303 150.833 255.552 145.199 255.37 139.571Z" fill="#031634"/>
<path opacity="0.4" d="M255.37 139.571C247.788 143.05 232.547 141.863 232.547 141.863L233.246 173.545C229.414 175.877 225.826 178.589 222.538 181.641C217.992 186.019 211.059 195.123 211.059 195.123C213.434 201.806 220.201 204.926 220.201 204.926C220.201 204.926 234.434 194.956 242.395 189.313C246.561 186.366 249.694 184.723 250.946 179.927C251.931 176.255 252.69 172.527 253.219 168.762C253.899 164.622 254.227 159.909 254.625 156.423C255.303 150.833 255.552 145.199 255.37 139.571Z" fill="#242424"/>
<path opacity="0.1" d="M242.71 180.678L241.503 163.164L237.009 158.985L233.157 169.289L233.253 173.545C230.767 175.065 228.376 176.735 226.095 178.547L226.737 180.094L230.39 188.921C230.39 188.921 229.106 194.943 229.645 198.269C233.85 195.316 238.633 191.945 242.222 189.409L242.71 180.678Z" fill="#242424"/>
<path d="M246.94 239.98V239.261C246.388 232.783 247.281 197.165 247.242 187.554C247.197 177.147 245.316 151.936 245.316 151.936C245.316 151.936 251.466 143.904 255.428 139.571C251.685 143.853 232.81 141.683 231.674 133.44C230.126 136.688 224.612 140.039 224.156 150.716C223.514 164.32 233.144 188.376 233.144 188.376C232.778 190.193 231.128 197.807 232.097 204.837C233.625 215.93 239.108 235.543 239.686 238.221L240.039 240.5C241.239 241.989 246.074 241.764 246.94 239.98Z" fill="#FFA8A7"/>
<path d="M247.377 168.519L246.825 154.311C246.825 154.311 252.545 152.822 254.863 148.013C255.295 145.221 255.467 142.395 255.376 139.571C255.376 139.571 250.375 141.888 243.345 140.174C238.913 138.99 234.868 136.669 231.609 133.44C231.609 133.44 230.261 134.769 227.494 138.897C226.172 140.868 223.937 145.959 223.745 149.933C223.302 159.004 226.197 168.685 226.197 168.685C227.674 175.786 232.155 188.709 232.155 188.709C232.155 188.709 230.447 198.121 231.308 204.869C232.168 211.616 234.896 219.243 234.896 219.243C234.896 219.243 242.504 221.811 247.505 218.832C247.505 218.832 247.743 195.367 247.833 186.212C247.923 177.057 247.377 168.519 247.377 168.519Z" fill="#031634"/>
<path opacity="0.3" d="M247.377 168.519L246.825 154.311C246.825 154.311 252.545 152.822 254.863 148.013C255.295 145.221 255.467 142.395 255.376 139.571C255.376 139.571 250.375 141.888 243.345 140.174C238.913 138.99 234.868 136.669 231.609 133.44C231.609 133.44 230.261 134.769 227.494 138.897C226.172 140.868 223.937 145.959 223.745 149.933C223.302 159.004 226.197 168.685 226.197 168.685C227.674 175.786 232.155 188.709 232.155 188.709C232.155 188.709 230.447 198.121 231.308 204.869C232.168 211.616 234.896 219.243 234.896 219.243C234.896 219.243 242.504 221.811 247.505 218.832C247.505 218.832 247.743 195.367 247.833 186.212C247.923 177.057 247.377 168.519 247.377 168.519Z" fill="#242424"/>
<path d="M273.16 108.98C274.027 107.996 274.534 106.746 274.597 105.435C274.66 104.125 274.275 102.832 273.506 101.77C270.868 97.6418 264.64 99.2468 264.64 99.2468L262.977 96.5697C263.605 96.403 264.26 96.3637 264.903 96.4541C266.07 96.4987 267.236 96.3334 268.345 95.9662C269.534 95.6374 270.569 94.8983 271.266 93.8797C271.597 93.3637 271.746 92.752 271.69 92.1415C271.635 91.531 271.377 90.9566 270.957 90.5092C271.575 90.5135 272.186 90.3864 272.751 90.1362C273.316 89.8861 273.82 89.5187 274.232 89.0584C274.644 88.5982 274.953 88.0556 275.139 87.4667C275.325 86.8778 275.383 86.256 275.31 85.6428C275.286 85.2677 275.147 84.909 274.912 84.6156C274.579 84.3212 274.177 84.1158 273.744 84.0186C272.572 83.6076 271.502 82.951 270.604 82.0926C268.826 80.3913 268.075 78.3947 265.616 76.7961C263.535 75.4268 261.096 74.7031 258.605 74.716C255.787 74.716 253.245 75.5249 251.338 77.8554C248.192 77.8554 244.096 79.7236 241.297 87.4854C238.543 95.1252 239.544 104.049 244.751 112.029C248.186 117.293 261.88 126.037 271.67 122.59C281.461 119.142 277.345 109.223 273.16 108.98Z" fill="#263238"/>
<path d="M256.827 106.912C264.428 108.325 264.865 112.119 265.25 115.438C266.245 124.086 264.531 138.37 263.934 141.516C263.934 141.516 253.713 138.396 253.829 137.889C253.945 137.382 256.827 106.912 256.827 106.912Z" fill="#FFA8A7"/>
<path d="M256.949 136.502C256.949 136.502 260.39 135.7 262.99 136.502C262.99 136.502 260.852 134.281 255.967 135.725L256.949 136.502Z" fill="#F28F8F"/>
<path d="M256.076 138.954C257.176 136.19 258.035 133.335 258.644 130.422C263.722 127.809 264.833 123.912 263.78 120.259C261.597 112.742 259.472 109.082 257.52 106.912C256.005 105.84 250.612 104.344 250.612 104.344C249.649 104.19 240.925 103.092 238.26 102.874C236.819 103.989 235.724 105.489 235.102 107.201C234.588 108.793 233.689 110.148 233.689 115.592L234.704 125.325C234.704 125.325 234.973 128.239 233.953 129.934C232.932 131.629 228.772 134.73 226.852 138.922C226.852 138.922 227.083 145.304 238.819 147.968C248.365 150.138 255.447 146.684 255.447 146.684C255.865 144.129 256.076 141.544 256.076 138.954Z" fill="#F5F5F5"/>
<path d="M264.05 123.842C263.732 123.439 263.273 123.172 262.766 123.097C261.661 122.962 260.615 123.54 259.594 123.996C257.707 124.837 255.537 125.28 253.566 124.67C251.434 123.983 249.714 122.102 247.499 121.909C245.387 121.742 243.499 123.193 241.945 124.612C239.647 126.75 237.516 129.106 234.883 130.833C233.754 131.557 232.584 132.215 231.378 132.804L230.865 133.343L230.762 133.453C230.37 133.87 229.966 134.313 229.574 134.775L229.426 134.955L229.003 135.468L228.797 135.732L228.444 136.2L228.232 136.496L227.905 136.984L227.712 137.285C227.597 137.465 227.494 137.645 227.385 137.831L227.231 138.101C227.083 138.377 226.936 138.659 226.807 138.948C226.848 139.388 226.95 139.82 227.109 140.232C227.362 140.898 227.701 141.528 228.117 142.107C228.29 142.344 228.476 142.582 228.688 142.826C230.3 144.668 233.272 146.736 238.768 147.962C240.943 148.458 243.169 148.697 245.399 148.674C246.151 148.674 246.87 148.629 247.557 148.565C248.243 148.501 248.892 148.424 249.483 148.328C250.291 148.199 251.036 148.045 251.704 147.885C252.968 147.597 254.2 147.184 255.383 146.652C255.676 144.91 255.864 143.152 255.947 141.388C255.947 141.009 255.986 140.617 255.999 140.206C256.012 139.796 255.999 139.365 255.999 138.922C256.641 137.106 257.231 135.456 257.668 134.018C257.777 133.658 257.88 133.311 257.97 132.977C258.218 132.134 258.417 131.276 258.567 130.409C262.072 128.657 263.69 126.307 264.05 123.842Z" fill="#EBEBEB"/>
<path d="M267.388 85.1035C267.947 86.3554 268.82 88.3585 266.842 96.2166C265.167 102.874 262.624 104.036 261.424 104.261C260.223 104.486 258.214 103.728 256.776 103.176L254.426 107.349C254.638 109.146 255.254 112.767 254.066 115.053C250.613 112.421 247.082 109.236 244.661 104.254L248.449 95.9662C248.449 95.9662 246.253 97.0191 245.078 94.5024C243.994 92.1848 244.398 90.2524 246.009 89.2188C246.385 88.9783 246.816 88.8366 247.261 88.8069C247.706 88.7771 248.152 88.8601 248.556 89.0483C248.961 89.2365 249.312 89.5238 249.576 89.8836C249.84 90.2433 250.009 90.6638 250.067 91.1062C250.414 93.09 252.339 93.2377 252.872 90.2909C253.033 89.3921 253.79 84.5129 257.264 83.4279C261.366 88.596 266.592 87.8706 267.388 85.1035Z" fill="#FFA8A7"/>
<path d="M258.413 91.8958C258.375 92.0691 258.287 92.2274 258.16 92.3512C258.033 92.475 257.873 92.5588 257.699 92.5922C257.525 92.6255 257.345 92.6071 257.181 92.539C257.017 92.471 256.877 92.3563 256.778 92.2094C256.679 92.0624 256.625 91.8895 256.623 91.7122C256.621 91.5349 256.672 91.361 256.768 91.2121C256.864 91.0631 257.002 90.9457 257.164 90.8744C257.326 90.8031 257.506 90.781 257.681 90.8109C257.8 90.8339 257.914 90.8803 258.015 90.9474C258.117 91.0144 258.204 91.1008 258.272 91.2016C258.34 91.3023 258.387 91.4155 258.411 91.5347C258.436 91.6538 258.436 91.7765 258.413 91.8958Z" fill="#263238"/>
<path d="M259.44 98.9579C259.423 99.072 259.383 99.1815 259.323 99.2801C259.264 99.3788 259.185 99.4646 259.092 99.5326C258.999 99.6007 258.893 99.6496 258.781 99.6766C258.669 99.7036 258.552 99.7081 258.438 99.6898C258.26 99.6664 258.093 99.5903 257.959 99.4711C257.825 99.3519 257.729 99.1953 257.685 99.0213C257.64 98.8473 257.649 98.6639 257.709 98.4949C257.77 98.3259 257.88 98.1789 258.025 98.073C258.17 97.967 258.344 97.9069 258.523 97.9004C258.702 97.8939 258.88 97.9414 259.032 98.0366C259.184 98.1319 259.305 98.2705 259.377 98.4347C259.45 98.5989 259.472 98.7812 259.44 98.9579Z" fill="#B16668"/>
<path d="M266.04 90.6633L264.608 89.0904C264.703 88.9906 264.818 88.9111 264.945 88.8568C265.072 88.8025 265.208 88.7745 265.346 88.7745C265.484 88.7745 265.621 88.8025 265.748 88.8568C265.875 88.9111 265.989 88.9906 266.085 89.0904C266.286 89.3055 266.395 89.5915 266.386 89.8861C266.378 90.1807 266.253 90.4601 266.04 90.6633Z" fill="#263238"/>
<path d="M258.118 88.1531L256.159 88.9748C256.099 88.8494 256.065 88.7131 256.06 88.5741C256.054 88.435 256.077 88.2964 256.127 88.1665C256.177 88.0366 256.252 87.9183 256.35 87.8189C256.447 87.7194 256.564 87.6409 256.692 87.5881C256.957 87.4811 257.253 87.48 257.518 87.5852C257.783 87.6904 257.998 87.8938 258.118 88.1531Z" fill="#263238"/>
<path d="M265.147 93.1478C265.127 93.265 265.083 93.3769 265.019 93.4773C264.955 93.5777 264.872 93.6645 264.775 93.7327C264.677 93.801 264.567 93.8494 264.451 93.8751C264.335 93.9009 264.215 93.9035 264.098 93.8829C263.981 93.8622 263.869 93.8187 263.768 93.7547C263.668 93.6908 263.581 93.6077 263.513 93.5103C263.445 93.4128 263.396 93.3028 263.37 93.1867C263.345 93.0705 263.342 92.9504 263.363 92.8332C263.404 92.5965 263.538 92.3861 263.735 92.2483C263.932 92.1104 264.176 92.0564 264.412 92.0981C264.649 92.1398 264.859 92.2739 264.997 92.4707C265.135 92.6676 265.189 92.9111 265.147 93.1478Z" fill="#263238"/>
<path d="M261.013 91.3695L260.589 97.3337L263.767 96.6596L261.013 91.3695Z" fill="#F28F8F"/>
<path d="M256.776 103.176C254.689 102.405 249.996 99.8695 249.714 97.9628C249.793 98.9041 250.156 99.7994 250.754 100.531C251.82 101.962 255.999 104.537 255.999 104.537L256.776 103.176Z" fill="#F28F8F"/>
<path d="M259.299 106.206C259.074 105.493 258.156 105.423 258.156 105.423C258.227 105.144 258.234 104.852 258.177 104.57C258.121 104.288 258.002 104.022 257.829 103.792C257.516 103.564 257.137 103.446 256.75 103.458C256.981 102.951 256.679 101.795 256.05 101.654C255.452 101.591 254.848 101.619 254.259 101.738C253.646 102.149 253.114 102.672 252.693 103.279L253.662 101.436C254.518 101.214 255.358 100.937 256.179 100.608C257.142 100.12 257.097 99.067 256.724 99.0092C255.882 99.025 255.042 99.1109 254.214 99.266C253.161 99.4394 251.832 99.4329 251.473 100.088C251.113 100.743 250.715 101.526 249.977 103.028C249.239 104.53 249.033 104.986 249.13 105.847C249.226 106.707 249.213 108.415 249.476 110.552C249.739 112.69 249.316 113.191 248.372 114.404C247.73 115.22 243.762 119.155 239.577 122.981L240.148 114.668C240.148 114.668 241.509 106.116 238.267 102.919C233.901 102.213 231.783 104.203 230.813 106.546C229.112 110.694 229.613 122.513 229.94 128.734C230.268 134.955 232.714 137.311 234.588 137.722C236.463 138.133 241.599 135.969 244.963 131.546C247.608 128.509 253.27 118.507 254.099 117.114C254.703 116.037 255.443 115.043 256.301 114.154C256.943 113.512 257.456 110.944 257.456 109.41C257.597 109.891 258.098 110.276 258.503 109.975C258.586 109.185 259.363 106.726 259.299 106.206Z" fill="#FFA8A7"/>
<path d="M248.353 114.385C248.688 113.988 248.983 113.557 249.232 113.101C249.445 112.619 249.54 112.093 249.508 111.567C249.508 111.04 249.418 110.514 249.361 109.994C249.303 109.474 249.258 108.941 249.219 108.414L249.129 106.835L249.078 106.046C249.042 105.78 249.031 105.511 249.046 105.243C249.135 104.716 249.309 104.206 249.56 103.734C249.778 103.253 250.015 102.784 250.259 102.315L250.972 100.897L251.332 100.19C251.445 99.9328 251.654 99.7299 251.916 99.6255C252.419 99.4473 252.944 99.3372 253.476 99.2981C254.002 99.2403 254.516 99.1376 255.042 99.0734C255.569 99.0092 256.089 98.945 256.628 98.9322C256.714 98.9281 256.798 98.9554 256.866 99.0092C256.924 99.0638 256.968 99.1322 256.994 99.2082C257.029 99.3494 257.029 99.4972 256.994 99.6384C256.949 99.9164 256.816 100.173 256.615 100.37C256.19 100.706 255.697 100.947 255.171 101.076C254.664 101.243 254.156 101.391 253.649 101.532L253.707 101.487L252.75 103.343L252.603 103.253C252.833 102.961 253.08 102.683 253.341 102.418C253.469 102.286 253.604 102.157 253.745 102.033C253.883 101.899 254.039 101.784 254.208 101.693C254.532 101.63 254.86 101.589 255.19 101.571C255.529 101.529 255.874 101.564 256.198 101.673C256.491 101.867 256.698 102.166 256.776 102.508C256.885 102.837 256.885 103.193 256.776 103.522L256.705 103.42C256.954 103.419 257.201 103.458 257.437 103.535C257.562 103.574 257.677 103.638 257.777 103.721C257.867 103.812 257.944 103.913 258.008 104.023C258.242 104.467 258.301 104.982 258.175 105.468L258.117 105.384C258.372 105.414 258.617 105.497 258.837 105.628C259.061 105.762 259.229 105.971 259.312 106.219C259.302 106.544 259.254 106.867 259.17 107.182L258.933 108.113C258.779 108.755 258.593 109.345 258.483 109.962C258.378 110.032 258.254 110.07 258.127 110.07C258 110.07 257.876 110.032 257.771 109.962C257.568 109.82 257.422 109.611 257.36 109.371H257.456C257.441 110.096 257.362 110.818 257.219 111.528C257.083 112.241 256.867 112.937 256.577 113.602C256.417 113.926 256.2 114.217 255.935 114.462C255.691 114.732 255.453 115.001 255.235 115.284C254.795 115.854 254.391 116.453 254.028 117.075C254.384 116.448 254.779 115.843 255.209 115.265C255.427 114.982 255.659 114.706 255.903 114.436C256.168 114.192 256.386 113.901 256.545 113.576C256.819 112.912 257.017 112.218 257.135 111.509C257.271 110.804 257.346 110.089 257.36 109.371V109.031L257.456 109.358C257.517 109.571 257.648 109.756 257.829 109.885C257.913 109.95 258.017 109.986 258.124 109.986C258.231 109.986 258.335 109.95 258.419 109.885V109.923C258.535 109.281 258.715 108.678 258.869 108.055L259.093 107.13C259.175 106.829 259.22 106.518 259.228 106.206C259.134 105.993 258.982 105.81 258.789 105.68C258.596 105.549 258.37 105.476 258.137 105.468H258.06V105.391C258.17 104.939 258.113 104.462 257.899 104.049C257.85 103.949 257.78 103.859 257.695 103.786C257.61 103.714 257.512 103.659 257.405 103.625C257.183 103.556 256.951 103.521 256.718 103.522H256.615L256.654 103.42C256.75 103.123 256.75 102.804 256.654 102.508C256.587 102.206 256.405 101.941 256.147 101.77C255.846 101.676 255.528 101.648 255.216 101.686C254.895 101.708 254.575 101.748 254.259 101.808C254.111 101.901 253.971 102.006 253.842 102.123C253.707 102.245 253.572 102.373 253.45 102.502C253.193 102.765 252.956 103.041 252.725 103.33L252.198 103.972L252.577 103.227L253.534 101.365V101.327H253.572C254.079 101.186 254.586 101.044 255.081 100.877C255.584 100.765 256.057 100.546 256.468 100.235C256.64 100.059 256.759 99.8357 256.808 99.5934C256.846 99.3687 256.808 99.0477 256.577 99.0734C256.052 99.0845 255.529 99.1274 255.01 99.2018C254.49 99.266 253.97 99.3623 253.444 99.4201C252.923 99.4533 252.409 99.557 251.916 99.7282C251.681 99.8221 251.492 100.004 251.389 100.235L251.03 100.942L250.311 102.348C250.073 102.816 249.829 103.285 249.605 103.766C249.358 104.226 249.189 104.722 249.104 105.237C249.075 105.495 249.075 105.755 249.104 106.013L249.149 106.809L249.226 108.389C249.258 108.915 249.296 109.442 249.348 109.968C249.399 110.495 249.47 111.015 249.476 111.547C249.499 112.078 249.396 112.606 249.174 113.088C248.945 113.547 248.67 113.982 248.353 114.385Z" fill="#B16668"/>
<path d="M256.776 103.535C256.827 103.354 256.845 103.165 256.827 102.977C256.301 103.118 255.62 103.189 255.184 103.343C254.829 103.474 254.537 103.736 254.368 104.075C254.593 103.837 255.235 103.529 256.776 103.535Z" fill="#B16668"/>
<path d="M256.301 105.885C256.864 105.573 257.508 105.435 258.15 105.487C258.182 105.311 258.201 105.133 258.207 104.954C256.705 105.172 256.301 105.885 256.301 105.885Z" fill="#B16668"/>
<path d="M257.373 109.782C257.432 109.104 257.415 108.421 257.321 107.747C257.251 107.342 257.225 107.105 257.681 107.175C258.137 107.246 258.766 106.688 258.644 107.066C258.58 107.272 257.771 107.612 257.719 107.901C257.666 108.538 257.55 109.168 257.373 109.782Z" fill="#B16668"/>
<path d="M239.538 122.962C238.382 123.919 234.466 126.911 233.921 129.96C233.921 129.96 233.375 127.675 235.622 125.132C236.885 123.687 238.236 122.322 239.666 121.043L239.538 122.962Z" fill="#F28F8F"/>
<path d="M263.934 141.516C263.542 143.795 262.817 144.63 260.493 145.651C256.705 147.313 241.535 151.608 237.054 151.64C234.508 151.688 231.973 151.306 229.555 150.51C229.121 150.407 228.732 150.163 228.451 149.817C228.288 149.522 228.07 149.26 227.809 149.047C227.486 148.853 227.151 148.679 226.807 148.527C226.403 148.275 226.111 147.877 225.992 147.416C225.97 147.113 225.875 146.82 225.716 146.562C225.524 146.365 225.352 146.15 225.202 145.92C225.03 145.613 224.943 145.265 224.952 144.912C224.966 144.735 224.951 144.558 224.907 144.386C224.838 144.23 224.737 144.09 224.612 143.975C224.479 143.826 224.354 143.67 224.239 143.506C224.122 143.373 224.048 143.207 224.027 143.031C224.05 142.889 224.108 142.755 224.194 142.64C224.721 141.811 225.902 141.998 226.762 142.087C227.783 142.203 228.785 142.402 229.805 142.524C231.226 142.694 232.66 142.726 234.087 142.62V139.982C235.121 140.21 236.1 140.638 236.97 141.24C238.639 142.267 239.647 143.654 242.748 142.832C245.849 142.01 253.238 137.812 256.949 136.515C260.66 135.218 264.159 140.168 263.934 141.516Z" fill="#FFA8A7"/>
<path d="M143.161 272.927L234.075 258.816V61.799L143.161 75.9422V272.927Z" fill="#455A64"/>
<path d="M231.308 60.2003L234.075 61.7989L143.161 75.9422L147.97 73.1623L231.308 60.2003Z" fill="#37474F"/>
<path d="M153.831 177.943L217.453 168.056V248.133L153.831 258.013V177.943Z" fill="#455A64"/>
<path opacity="0.1" d="M153.831 177.943L217.453 168.056V248.133L153.831 258.013V177.943Z" fill="#242424"/>
<path d="M158.607 182.033L212.683 173.622V244.037L158.607 252.447V182.033Z" fill="#455A64"/>
<path d="M153.831 258.013L158.608 252.447L212.683 244.037L217.453 248.133L153.831 258.013Z" fill="#263238"/>
<path d="M153.831 177.943L158.608 182.033V252.447L153.831 258.013V177.943Z" fill="#37474F"/>
<path d="M212.683 173.622L217.453 168.056V248.133L212.683 244.037V173.622Z" fill="#37474F"/>
<path d="M189.976 80.9754L217.453 76.6997V156.776L189.982 161.046L189.976 80.9754Z" fill="#455A64"/>
<path opacity="0.1" d="M189.976 80.9754L217.453 76.6997V156.776L189.982 161.046L189.976 80.9754Z" fill="#242424"/>
<path d="M194.752 85.065L212.683 82.2723V152.687L194.752 155.48V85.065Z" fill="#455A64"/>
<path d="M189.982 161.046L194.752 155.48L212.683 152.687L217.453 156.776L189.982 161.046Z" fill="#263238"/>
<path d="M189.976 80.9755L194.752 85.065V155.48L189.982 161.046L189.976 80.9755Z" fill="#37474F"/>
<path d="M212.683 82.2723L217.453 76.6997V156.776L212.683 152.687V82.2723Z" fill="#37474F"/>
<path d="M153.876 86.5673L181.354 82.2916V162.368L153.876 166.638V86.5673Z" fill="#455A64"/>
<path opacity="0.1" d="M153.876 86.5673L181.354 82.2916V162.368L153.876 166.638V86.5673Z" fill="#242424"/>
<path d="M158.646 90.6568L176.577 87.8577L176.583 158.279L158.646 161.071V90.6568Z" fill="#455A64"/>
<path d="M153.876 166.638L158.646 161.071L176.584 158.279L181.354 162.368L153.876 166.638Z" fill="#263238"/>
<path d="M153.876 86.5673L158.646 90.6568V161.071L153.876 166.638V86.5673Z" fill="#37474F"/>
<path d="M176.577 87.8577L181.354 82.2916V162.368L176.583 158.279L176.577 87.8577Z" fill="#37474F"/>
<path d="M221.825 153.477L223.064 154.728V175.298L221.825 174.053V153.477Z" fill="#E0E0E0"/>
<path d="M223.064 154.728L229.747 153.727V174.303L223.064 175.298V154.728Z" fill="#FAFAFA"/>
<path opacity="0.05" d="M229.747 159.389L223.064 160.365V164.391L229.747 163.421V159.389Z" fill="#242424"/>
<path d="M229.747 153.727L228.508 152.481L221.825 153.477L223.064 154.728L229.747 153.727Z" fill="#EBEBEB"/>
<path d="M225.626 158.625L228.695 161.707L229.921 160.102L226.852 157.027C226.774 156.946 226.678 156.886 226.572 156.85C226.466 156.814 226.353 156.804 226.242 156.821C225.989 156.881 225.765 157.026 225.607 157.232C225.449 157.437 225.367 157.692 225.375 157.951C225.369 158.2 225.458 158.441 225.626 158.625Z" fill="#E0E0E0"/>
<path opacity="0.1" d="M223.064 160.404L227.937 160.943V159.479L229.125 159.306L228.008 158.182L223.064 158.934V160.404Z" fill="#242424"/>
<path d="M213.03 162.169V165.379L230.441 162.773V159.563L213.03 162.169Z" fill="#FAFAFA"/>
<path d="M213.03 162.169L211.919 161.046V164.262L213.03 165.379V162.169Z" fill="#E0E0E0"/>
<path d="M230.441 159.563L229.324 158.439L211.919 161.046L213.03 162.169L230.441 159.563Z" fill="#EBEBEB"/>
<path d="M225.279 167.562C225.271 167.225 225.379 166.895 225.585 166.627C225.79 166.36 226.081 166.171 226.409 166.092C226.561 166.078 226.715 166.098 226.858 166.15C227.002 166.202 227.132 166.286 227.24 166.394C227.347 166.503 227.429 166.634 227.48 166.778C227.53 166.923 227.549 167.076 227.533 167.228C227.531 167.481 227.469 167.73 227.35 167.954C227.232 168.177 227.061 168.369 226.852 168.512V170.612C226.856 170.726 226.82 170.838 226.751 170.929C226.682 171.02 226.584 171.084 226.473 171.112H226.339C226.287 171.117 226.235 171.111 226.186 171.093C226.137 171.076 226.093 171.047 226.057 171.01C226.021 170.973 225.993 170.929 225.976 170.88C225.959 170.831 225.954 170.779 225.96 170.727V168.628C225.751 168.541 225.574 168.393 225.452 168.202C225.33 168.011 225.27 167.788 225.279 167.562Z" fill="#455A64"/>
<path d="M307.513 216.701C306.768 219.057 302.518 225.047 301.093 226.684C299.668 228.321 299.449 235.376 299.462 236.847C299.475 238.317 300.457 239.71 301.08 240.654C301.703 241.597 300.624 243.222 298.358 242.477C296.092 241.732 295.405 239.44 295.071 237.906C294.737 236.372 293.986 227.576 294.917 222.113C294.917 222.132 299.539 216.245 307.513 216.701Z" fill="#37474F"/>
<path d="M272.723 194.622C269.134 194.699 264.178 191.842 262.451 186.918C260.724 181.994 261.758 174.72 263.613 170.586C264.672 168.236 264.345 166.734 263.446 166.291C262.124 165.649 260.795 166.374 259.812 168.454C258.567 171.125 256.063 181.089 258.317 187.156C260.57 193.223 264.672 196.484 267.086 197.428L272.723 194.622Z" fill="#37474F"/>
<path d="M271.593 208.451C271.811 213.279 274.123 221.824 275.445 223.91C276.832 226.112 277.91 226.742 280.151 226.806C282.392 226.87 282.719 224.925 279.875 223.185C279.336 222.421 279.137 218.691 279.445 214.807C279.753 210.923 271.593 208.451 271.593 208.451Z" fill="#37474F"/>
<path d="M310.704 198.815C310.704 201.383 311.166 208.252 309.548 212.695C308.007 216.925 305.202 220.803 298.904 221.785C292.606 222.768 287.053 221.419 283.419 219.32C279.785 217.221 276.235 212.99 273.673 212.508C271.934 214.129 269.762 215.211 267.42 215.622C263.254 216.476 261.154 215.423 261.154 215.423C261.154 215.423 259.934 218.826 259.87 220.559C259.806 222.292 259.87 223.942 261.193 224.841C262.515 225.74 263.164 226.196 263.022 227.146C263.022 227.146 263.022 228.199 260.307 228.122C257.591 228.045 257.52 227.608 256.705 225.169C255.89 222.729 254.85 216.399 254.696 214.287C254.542 212.175 257.122 211.899 258.406 210.159C259.844 208.279 260.931 206.157 261.616 203.893C262.49 201.113 264.525 196.799 268.935 195.373C273.346 193.948 277.814 194.333 283.997 197.036C290.179 199.739 293.267 200.888 296.304 199.213C300.425 196.914 300.008 193.293 300.008 193.293C304.47 192.671 309.548 190.321 310.704 198.815Z" fill="#455A64"/>
<path d="M295.893 222.081L295.54 220.572L292.593 219.108L291.688 219.692C292.227 220.425 292.679 221.218 293.036 222.055C293.987 222.115 294.941 222.124 295.893 222.081Z" fill="#37474F"/>
<path d="M291.688 219.692C293.46 220.874 294.866 223.493 297.363 225.047C298.771 225.951 300.34 226.575 301.985 226.883C302.692 228.065 303.224 229.343 303.565 230.677C304.13 232.898 304.778 235.659 306.665 236.885C308.553 238.111 311.551 237.296 309.997 235.12C308.893 233.572 308.373 231.602 307.847 229.618C307.147 226.998 307.75 225.766 306.428 224.026C304.9 222.157 303.775 219.994 303.122 217.67C303.122 217.67 294.358 215.783 291.688 219.692Z" fill="#455A64"/>
<path d="M274.662 212.842C275.393 211.477 275.67 209.914 275.452 208.38C275.193 209.877 274.583 211.292 273.673 212.508C274.015 212.578 274.348 212.69 274.662 212.842Z" fill="#37474F"/>
<path d="M301.812 196.503C307.128 201.588 300.567 204.849 300.733 211.417C300.785 213.587 301.774 215.911 303.943 220.026C306.672 218.358 308.738 215.797 309.792 212.778C311.012 209.427 310.999 204.021 310.749 201.395C310.547 199.317 309.889 197.309 308.823 195.515C308.823 195.515 296.483 191.419 301.812 196.503Z" fill="#E0E0E0"/>
<path d="M296.567 199.071C298.722 200.082 301.136 200.407 303.481 200.002C304.7 199.818 305.844 199.301 306.788 198.508C307.731 197.715 308.438 196.677 308.829 195.508L299.745 195.296C299.19 196.905 298.057 198.25 296.567 199.071Z" fill="#37474F"/>
<path d="M304.829 183.297C306.229 181.654 309.856 180.357 311.769 181.981C312.848 182.899 309.972 187.881 309.972 187.881C309.972 187.881 306.255 185.885 304.829 183.297Z" fill="#37474F"/>
<path d="M306.306 185.018C308.078 186.495 309.959 187.881 309.959 187.881C309.959 187.881 312.835 182.899 311.757 181.981C311.018 181.525 308.547 181.93 306.306 185.018Z" fill="#FFA8A7"/>
<path d="M309.869 186.668C310.023 186.458 310.212 186.275 310.428 186.129C310.588 185.814 310.774 185.442 310.961 185.044C310.405 184.698 309.784 184.468 309.137 184.37C309.212 183.94 309.44 183.552 309.779 183.278C309.271 183.149 308.732 183.215 308.27 183.464C307.808 183.712 307.455 184.125 307.282 184.62C307.42 185.111 307.658 185.568 307.982 185.962C308.38 186.231 308.746 186.456 309.041 186.642C309.312 186.711 309.594 186.72 309.869 186.668Z" fill="#F28F8F"/>
<path d="M307.59 185.076C307.757 184.675 308.044 184.336 308.412 184.106C308.781 183.876 309.211 183.766 309.644 183.792C309.365 184.113 309.214 184.527 309.221 184.954C309.221 184.954 311.275 184.845 311.789 185.898C311.397 185.901 311.013 186.007 310.675 186.205C310.337 186.404 310.057 186.687 309.863 187.027C308.097 187.714 307.59 185.076 307.59 185.076Z" fill="#455A64"/>
<path d="M293.151 181.686C294.633 183.23 295.465 185.285 295.475 187.425L296.991 186.334C296.991 186.334 297.029 183.663 295.899 182.72C295.101 182.119 294.147 181.76 293.151 181.686Z" fill="#F28F8F"/>
<path d="M300.098 183.432C299.372 181.975 295.604 180.081 293.151 181.712C293.151 181.712 296.361 182.745 296.515 186.084L300.098 183.432Z" fill="#37474F"/>
<path d="M310.704 198.872C310.498 195.816 311.282 191.74 310.8 189.416C310.235 186.706 308.579 183.252 303.308 182.964C298.037 182.675 295.469 185.474 294.551 188.979C294.005 190.725 293.267 191.483 293.492 193.415C293.595 194.621 294.081 195.763 294.879 196.673C295.677 197.583 296.746 198.214 297.928 198.474C300.149 199.116 306.049 199.296 308.842 195.515L310.717 198.872" fill="#455A64"/>
<path d="M296.477 185.621C296.477 185.621 296.394 185.095 295.495 184.536C295.16 184.349 294.791 184.229 294.41 184.184C294.029 184.139 293.643 184.169 293.273 184.273C293.273 184.273 294.48 185.262 294.615 186.064C294.164 185.921 293.682 185.906 293.222 186.019C293.222 186.019 294.988 187.233 294.647 189.101C294.647 189.101 296.516 186.899 296.477 185.621Z" fill="#455A64"/>
<path d="M299.604 194.314C299.541 194.311 299.482 194.284 299.439 194.238C299.396 194.193 299.372 194.133 299.372 194.07L299.411 192.857C299.414 192.794 299.441 192.736 299.487 192.693C299.532 192.65 299.592 192.626 299.655 192.626C299.686 192.627 299.717 192.634 299.745 192.646C299.774 192.659 299.8 192.677 299.821 192.7C299.842 192.722 299.859 192.749 299.87 192.778C299.882 192.807 299.887 192.838 299.886 192.87L299.848 194.083C299.844 194.146 299.817 194.204 299.772 194.247C299.726 194.29 299.666 194.314 299.604 194.314Z" fill="#263238"/>
<path d="M300.721 195.078C300.677 195.077 300.635 195.064 300.599 195.04L299.604 194.359L298.589 195.001C298.536 195.026 298.476 195.03 298.42 195.013C298.364 194.996 298.316 194.959 298.286 194.908C298.255 194.858 298.245 194.799 298.256 194.741C298.267 194.683 298.299 194.632 298.345 194.597L299.488 193.903C299.526 193.877 299.57 193.863 299.616 193.863C299.662 193.863 299.707 193.877 299.745 193.903L300.862 194.667C300.913 194.702 300.949 194.756 300.961 194.818C300.973 194.879 300.961 194.943 300.926 194.995C300.902 195.025 300.87 195.048 300.834 195.063C300.798 195.077 300.759 195.082 300.721 195.078Z" fill="#263238"/>
<path d="M299.674 191.412C298.454 191.354 298.307 191.72 298.429 192.157C298.685 192.624 299.103 192.983 299.604 193.165C299.892 193.21 300.997 192.664 301.042 192.196C301.087 191.727 300.823 191.47 299.674 191.412Z" fill="#F28F8F"/>
<path d="M303.86 192.6C303.843 192.579 303.831 192.554 303.824 192.528C303.817 192.502 303.815 192.474 303.819 192.448C303.823 192.421 303.832 192.395 303.845 192.371C303.859 192.348 303.877 192.327 303.898 192.311C304.466 191.79 305.18 191.456 305.943 191.354C306.707 191.252 307.483 191.386 308.168 191.74C308.218 191.765 308.256 191.81 308.273 191.863C308.291 191.917 308.286 191.975 308.261 192.025C308.235 192.076 308.191 192.114 308.137 192.131C308.084 192.149 308.025 192.144 307.975 192.118C307.358 191.798 306.657 191.675 305.968 191.767C305.279 191.859 304.635 192.161 304.123 192.632C304.083 192.661 304.034 192.675 303.985 192.669C303.936 192.663 303.891 192.638 303.86 192.6Z" fill="#263238"/>
<path d="M304.213 193.242L304.175 193.178C304.157 193.126 304.158 193.069 304.18 193.018C304.201 192.967 304.24 192.926 304.29 192.902C304.755 192.724 305.252 192.647 305.749 192.676C306.246 192.705 306.731 192.839 307.173 193.069C307.221 193.098 307.256 193.145 307.27 193.199C307.284 193.254 307.275 193.312 307.246 193.361C307.232 193.385 307.213 193.406 307.191 193.422C307.168 193.439 307.143 193.451 307.116 193.458C307.061 193.472 307.003 193.464 306.954 193.435C306.569 193.234 306.146 193.117 305.712 193.09C305.279 193.064 304.845 193.129 304.438 193.281C304.401 193.299 304.36 193.305 304.319 193.298C304.279 193.291 304.242 193.272 304.213 193.242Z" fill="#263238"/>
<path d="M303.841 194.038C303.826 194.023 303.814 194.005 303.806 193.985C303.798 193.965 303.795 193.944 303.796 193.923C303.792 193.867 303.81 193.812 303.846 193.769C303.882 193.725 303.933 193.698 303.988 193.691C304.64 193.66 305.29 193.788 305.881 194.063C306.473 194.338 306.989 194.752 307.385 195.271C307.401 195.292 307.413 195.317 307.42 195.343C307.427 195.369 307.429 195.396 307.426 195.423C307.422 195.45 307.413 195.476 307.399 195.499C307.386 195.523 307.368 195.543 307.346 195.56C307.328 195.579 307.306 195.595 307.282 195.605C307.258 195.616 307.231 195.621 307.205 195.621C307.178 195.621 307.152 195.616 307.128 195.605C307.104 195.595 307.082 195.579 307.064 195.56C306.708 195.092 306.244 194.718 305.712 194.468C305.179 194.219 304.595 194.102 304.008 194.128C303.974 194.13 303.941 194.123 303.911 194.107C303.882 194.091 303.858 194.067 303.841 194.038Z" fill="#263238"/>
<path d="M296.676 192.26C296.714 192.22 296.736 192.167 296.736 192.112C296.736 192.057 296.714 192.004 296.676 191.964C296.223 191.341 295.59 190.873 294.862 190.622C294.134 190.372 293.346 190.352 292.606 190.565C292.558 190.585 292.519 190.622 292.497 190.669C292.475 190.715 292.47 190.768 292.484 190.818C292.499 190.868 292.531 190.911 292.574 190.939C292.618 190.967 292.67 190.977 292.721 190.969C293.389 190.782 294.099 190.805 294.753 191.035C295.408 191.265 295.976 191.69 296.381 192.253C296.399 192.274 296.421 192.291 296.447 192.303C296.472 192.315 296.499 192.321 296.527 192.322C296.555 192.323 296.582 192.317 296.608 192.307C296.634 192.296 296.657 192.28 296.676 192.26Z" fill="#263238"/>
<path d="M296.233 192.786C296.251 192.772 296.267 192.755 296.278 192.735C296.305 192.687 296.313 192.63 296.299 192.576C296.286 192.523 296.253 192.476 296.207 192.446C295.769 192.207 295.284 192.065 294.786 192.028C294.288 191.992 293.787 192.062 293.318 192.234C293.27 192.259 293.233 192.301 293.215 192.353C293.197 192.404 293.2 192.461 293.222 192.51C293.245 192.559 293.285 192.598 293.335 192.618C293.385 192.639 293.441 192.639 293.492 192.619C293.9 192.473 294.334 192.413 294.766 192.444C295.198 192.475 295.619 192.596 296.002 192.799C296.036 192.823 296.078 192.835 296.12 192.833C296.162 192.831 296.202 192.814 296.233 192.786Z" fill="#263238"/>
<path d="M296.535 193.646C296.566 193.615 296.587 193.575 296.593 193.531C296.6 193.477 296.588 193.421 296.557 193.376C296.526 193.331 296.479 193.299 296.426 193.287C295.782 193.182 295.122 193.236 294.504 193.443C293.886 193.65 293.327 194.004 292.875 194.475C292.837 194.514 292.815 194.567 292.815 194.622C292.815 194.677 292.837 194.73 292.875 194.77C292.893 194.789 292.914 194.805 292.938 194.815C292.962 194.826 292.987 194.831 293.013 194.831C293.039 194.831 293.065 194.826 293.089 194.815C293.113 194.805 293.134 194.789 293.151 194.77C293.559 194.343 294.064 194.021 294.623 193.832C295.182 193.643 295.779 193.592 296.361 193.685C296.391 193.695 296.423 193.696 296.453 193.69C296.484 193.683 296.512 193.668 296.535 193.646Z" fill="#263238"/>
<path d="M304.701 189.39C304.696 189.549 304.644 189.702 304.551 189.831C304.459 189.96 304.33 190.059 304.182 190.115C304.033 190.171 303.872 190.182 303.717 190.146C303.563 190.11 303.422 190.029 303.314 189.913C303.205 189.797 303.133 189.652 303.107 189.495C303.081 189.339 303.102 189.178 303.168 189.033C303.233 188.889 303.34 188.767 303.474 188.683C303.609 188.599 303.766 188.557 303.924 188.562C304.03 188.565 304.133 188.589 304.229 188.633C304.326 188.676 304.412 188.738 304.484 188.815C304.556 188.892 304.613 188.982 304.65 189.081C304.687 189.18 304.704 189.285 304.701 189.39Z" fill="#263238"/>
<path d="M298.23 189.133C298.226 189.292 298.174 189.447 298.083 189.577C297.991 189.707 297.862 189.806 297.713 189.863C297.564 189.92 297.402 189.931 297.247 189.895C297.092 189.859 296.951 189.778 296.842 189.662C296.733 189.546 296.661 189.4 296.635 189.243C296.61 189.086 296.631 188.925 296.697 188.78C296.764 188.635 296.871 188.513 297.007 188.43C297.143 188.346 297.3 188.305 297.459 188.311C297.564 188.315 297.667 188.339 297.762 188.382C297.857 188.425 297.943 188.486 298.015 188.563C298.086 188.639 298.142 188.729 298.179 188.827C298.216 188.924 298.233 189.029 298.23 189.133Z" fill="#263238"/>
</svg>
